M48
; DRILL file {KiCad 8.0.7} date 2026-04-27T19:35:08+0800
; FORMAT={-:-/ absolute / metric / decimal}
; #@! TF.CreationDate,2026-04-27T19:35:08+08:00
; #@! TF.GenerationSoftware,Kicad,Pcbnew,8.0.7
; #@! TF.FileFunction,Plated,1,2,PTH
FMAT,2
METRIC
; #@! TA.AperFunction,Plated,PTH,ViaDrill
T1C0.300
; #@! TA.AperFunction,Plated,PTH,ComponentDrill
T2C0.600
%
G90
G05
T1
X101.072Y-112.1
X102.745Y-120.4
X102.81Y-118.37
X102.845Y-116.05
X106.045Y-93.1
X106.495Y-112.95
X107.845Y-105.95
X107.895Y-101.15
X110.445Y-106.8
X112.845Y-104.0
X113.48Y-122.18
X114.545Y-101.3
X115.767Y-106.841
X115.945Y-83.7
X116.38Y-109.73
X116.67Y-99.87
X117.245Y-113.2
X117.645Y-95.0
X117.645Y-101.1
X117.645Y-103.4
X118.645Y-97.3
X118.845Y-102.3
X119.24Y-108.93
X119.24Y-110.61
X119.845Y-99.8
X119.945Y-101.2
X120.045Y-103.4
X120.14Y-110.61
X121.845Y-95.2
X122.24Y-110.0
X123.2Y-111.57
X123.245Y-104.9
X123.295Y-101.05
X124.245Y-111.3
X124.26Y-119.73
X125.645Y-104.9
X125.79Y-100.5
X127.345Y-96.3
X129.745Y-85.2
X130.1Y-96.5
X131.745Y-102.2
X133.045Y-101.1
X133.47Y-94.59
X134.145Y-103.3
X134.745Y-107.2
X135.145Y-99.0
X136.445Y-107.2
T2
G00X102.265Y-99.242
M15
G01X101.665Y-99.242
M16
G05
G00X102.265Y-107.882
M15
G01X101.665Y-107.882
M16
G05
G00X106.695Y-99.242
M15
G01X105.595Y-99.242
M16
G05
G00X106.695Y-107.882
M15
G01X105.595Y-107.882
M16
G05
M30
