%TF.GenerationSoftware,KiCad,Pcbnew,8.0.7*%
%TF.CreationDate,2026-04-27T19:35:08+08:00*%
%TF.ProjectId,MK4001MTD_USB_ReaderHOTDOG,4d4b3430-3031-44d5-9444-5f5553425f52,v1.1 HOTDOG*%
%TF.SameCoordinates,Original*%
%TF.FileFunction,Legend,Bot*%
%TF.FilePolarity,Positive*%
%FSLAX46Y46*%
G04 Gerber Fmt 4.6, Leading zero omitted, Abs format (unit mm)*
G04 Created by KiCad (PCBNEW 8.0.7) date 2026-04-27 19:35:08*
%MOMM*%
%LPD*%
G01*
G04 APERTURE LIST*
%ADD10C,0.150000*%
%ADD11C,0.000000*%
%ADD12C,0.350000*%
%ADD13O,1.700000X0.600000*%
%ADD14O,1.200000X0.600000*%
G04 APERTURE END LIST*
D10*
X124245000Y-113500000D02*
X123745000Y-113000000D01*
X124845000Y-112500000D02*
X125345000Y-113000000D01*
X125845000Y-107900000D02*
X128845000Y-107900000D01*
X128845000Y-117900000D01*
X125845000Y-117900000D01*
X125845000Y-107900000D01*
X125345000Y-113000000D02*
X123745000Y-113000000D01*
X118745000Y-113400000D02*
X118245000Y-112900000D01*
X114845000Y-107900000D02*
X117845000Y-107900000D01*
X117845000Y-117900000D01*
X114845000Y-117900000D01*
X114845000Y-107900000D01*
X124245000Y-112500000D02*
X123745000Y-113000000D01*
X130345000Y-113500000D02*
X130845000Y-113000000D01*
X119345000Y-113400000D02*
X119845000Y-112900000D01*
X129745000Y-112500000D02*
X129245000Y-113000000D01*
X119345000Y-112400000D02*
X119845000Y-112900000D01*
X119845000Y-112900000D02*
X118245000Y-112900000D01*
X129745000Y-113500000D02*
X129245000Y-113000000D01*
X118745000Y-112400000D02*
X118245000Y-112900000D01*
X120345000Y-107900000D02*
X123345000Y-107900000D01*
X123345000Y-117900000D01*
X120345000Y-117900000D01*
X120345000Y-107900000D01*
X130845000Y-113000000D02*
X129245000Y-113000000D01*
X124845000Y-113500000D02*
X125345000Y-113000000D01*
X131345000Y-107900000D02*
X134345000Y-107900000D01*
X134345000Y-117900000D01*
X131345000Y-117900000D01*
X131345000Y-107900000D01*
X130345000Y-112500000D02*
X130845000Y-113000000D01*
X115799819Y-109471429D02*
X116609342Y-109471429D01*
X116609342Y-109471429D02*
X116704580Y-109519048D01*
X116704580Y-109519048D02*
X116752200Y-109566667D01*
X116752200Y-109566667D02*
X116799819Y-109661905D01*
X116799819Y-109661905D02*
X116799819Y-109852381D01*
X116799819Y-109852381D02*
X116752200Y-109947619D01*
X116752200Y-109947619D02*
X116704580Y-109995238D01*
X116704580Y-109995238D02*
X116609342Y-110042857D01*
X116609342Y-110042857D02*
X115799819Y-110042857D01*
X116752200Y-110471429D02*
X116799819Y-110614286D01*
X116799819Y-110614286D02*
X116799819Y-110852381D01*
X116799819Y-110852381D02*
X116752200Y-110947619D01*
X116752200Y-110947619D02*
X116704580Y-110995238D01*
X116704580Y-110995238D02*
X116609342Y-111042857D01*
X116609342Y-111042857D02*
X116514104Y-111042857D01*
X116514104Y-111042857D02*
X116418866Y-110995238D01*
X116418866Y-110995238D02*
X116371247Y-110947619D01*
X116371247Y-110947619D02*
X116323628Y-110852381D01*
X116323628Y-110852381D02*
X116276009Y-110661905D01*
X116276009Y-110661905D02*
X116228390Y-110566667D01*
X116228390Y-110566667D02*
X116180771Y-110519048D01*
X116180771Y-110519048D02*
X116085533Y-110471429D01*
X116085533Y-110471429D02*
X115990295Y-110471429D01*
X115990295Y-110471429D02*
X115895057Y-110519048D01*
X115895057Y-110519048D02*
X115847438Y-110566667D01*
X115847438Y-110566667D02*
X115799819Y-110661905D01*
X115799819Y-110661905D02*
X115799819Y-110900000D01*
X115799819Y-110900000D02*
X115847438Y-111042857D01*
X116276009Y-111804762D02*
X116323628Y-111947619D01*
X116323628Y-111947619D02*
X116371247Y-111995238D01*
X116371247Y-111995238D02*
X116466485Y-112042857D01*
X116466485Y-112042857D02*
X116609342Y-112042857D01*
X116609342Y-112042857D02*
X116704580Y-111995238D01*
X116704580Y-111995238D02*
X116752200Y-111947619D01*
X116752200Y-111947619D02*
X116799819Y-111852381D01*
X116799819Y-111852381D02*
X116799819Y-111471429D01*
X116799819Y-111471429D02*
X115799819Y-111471429D01*
X115799819Y-111471429D02*
X115799819Y-111804762D01*
X115799819Y-111804762D02*
X115847438Y-111900000D01*
X115847438Y-111900000D02*
X115895057Y-111947619D01*
X115895057Y-111947619D02*
X115990295Y-111995238D01*
X115990295Y-111995238D02*
X116085533Y-111995238D01*
X116085533Y-111995238D02*
X116180771Y-111947619D01*
X116180771Y-111947619D02*
X116228390Y-111900000D01*
X116228390Y-111900000D02*
X116276009Y-111804762D01*
X116276009Y-111804762D02*
X116276009Y-111471429D01*
X116418866Y-112471429D02*
X116418866Y-113233334D01*
X116799819Y-113709524D02*
X115799819Y-113709524D01*
X115799819Y-113709524D02*
X116514104Y-114042857D01*
X116514104Y-114042857D02*
X115799819Y-114376190D01*
X115799819Y-114376190D02*
X116799819Y-114376190D01*
X116752200Y-114804762D02*
X116799819Y-114947619D01*
X116799819Y-114947619D02*
X116799819Y-115185714D01*
X116799819Y-115185714D02*
X116752200Y-115280952D01*
X116752200Y-115280952D02*
X116704580Y-115328571D01*
X116704580Y-115328571D02*
X116609342Y-115376190D01*
X116609342Y-115376190D02*
X116514104Y-115376190D01*
X116514104Y-115376190D02*
X116418866Y-115328571D01*
X116418866Y-115328571D02*
X116371247Y-115280952D01*
X116371247Y-115280952D02*
X116323628Y-115185714D01*
X116323628Y-115185714D02*
X116276009Y-114995238D01*
X116276009Y-114995238D02*
X116228390Y-114900000D01*
X116228390Y-114900000D02*
X116180771Y-114852381D01*
X116180771Y-114852381D02*
X116085533Y-114804762D01*
X116085533Y-114804762D02*
X115990295Y-114804762D01*
X115990295Y-114804762D02*
X115895057Y-114852381D01*
X115895057Y-114852381D02*
X115847438Y-114900000D01*
X115847438Y-114900000D02*
X115799819Y-114995238D01*
X115799819Y-114995238D02*
X115799819Y-115233333D01*
X115799819Y-115233333D02*
X115847438Y-115376190D01*
X116704580Y-116376190D02*
X116752200Y-116328571D01*
X116752200Y-116328571D02*
X116799819Y-116185714D01*
X116799819Y-116185714D02*
X116799819Y-116090476D01*
X116799819Y-116090476D02*
X116752200Y-115947619D01*
X116752200Y-115947619D02*
X116656961Y-115852381D01*
X116656961Y-115852381D02*
X116561723Y-115804762D01*
X116561723Y-115804762D02*
X116371247Y-115757143D01*
X116371247Y-115757143D02*
X116228390Y-115757143D01*
X116228390Y-115757143D02*
X116037914Y-115804762D01*
X116037914Y-115804762D02*
X115942676Y-115852381D01*
X115942676Y-115852381D02*
X115847438Y-115947619D01*
X115847438Y-115947619D02*
X115799819Y-116090476D01*
X115799819Y-116090476D02*
X115799819Y-116185714D01*
X115799819Y-116185714D02*
X115847438Y-116328571D01*
X115847438Y-116328571D02*
X115895057Y-116376190D01*
X126771939Y-98001315D02*
X126771939Y-98429887D01*
X127029082Y-97915601D02*
X126129082Y-98215601D01*
X126129082Y-98215601D02*
X127029082Y-98515601D01*
X126129082Y-98687030D02*
X126129082Y-99201316D01*
X127029082Y-98944173D02*
X126129082Y-98944173D01*
X126771939Y-99458458D02*
X126771939Y-99887030D01*
X127029082Y-99372744D02*
X126129082Y-99672744D01*
X126129082Y-99672744D02*
X127029082Y-99972744D01*
X127029082Y-100958458D02*
X126429082Y-100958458D01*
X126600510Y-100958458D02*
X126514796Y-101001315D01*
X126514796Y-101001315D02*
X126471939Y-101044173D01*
X126471939Y-101044173D02*
X126429082Y-101129887D01*
X126429082Y-101129887D02*
X126429082Y-101215601D01*
X126986225Y-101858458D02*
X127029082Y-101772744D01*
X127029082Y-101772744D02*
X127029082Y-101601316D01*
X127029082Y-101601316D02*
X126986225Y-101515601D01*
X126986225Y-101515601D02*
X126900510Y-101472744D01*
X126900510Y-101472744D02*
X126557653Y-101472744D01*
X126557653Y-101472744D02*
X126471939Y-101515601D01*
X126471939Y-101515601D02*
X126429082Y-101601316D01*
X126429082Y-101601316D02*
X126429082Y-101772744D01*
X126429082Y-101772744D02*
X126471939Y-101858458D01*
X126471939Y-101858458D02*
X126557653Y-101901316D01*
X126557653Y-101901316D02*
X126643367Y-101901316D01*
X126643367Y-101901316D02*
X126729082Y-101472744D01*
X126429082Y-102672745D02*
X127157653Y-102672745D01*
X127157653Y-102672745D02*
X127243367Y-102629887D01*
X127243367Y-102629887D02*
X127286225Y-102587030D01*
X127286225Y-102587030D02*
X127329082Y-102501316D01*
X127329082Y-102501316D02*
X127329082Y-102372745D01*
X127329082Y-102372745D02*
X127286225Y-102287030D01*
X126986225Y-102672745D02*
X127029082Y-102587030D01*
X127029082Y-102587030D02*
X127029082Y-102415602D01*
X127029082Y-102415602D02*
X126986225Y-102329887D01*
X126986225Y-102329887D02*
X126943367Y-102287030D01*
X126943367Y-102287030D02*
X126857653Y-102244173D01*
X126857653Y-102244173D02*
X126600510Y-102244173D01*
X126600510Y-102244173D02*
X126514796Y-102287030D01*
X126514796Y-102287030D02*
X126471939Y-102329887D01*
X126471939Y-102329887D02*
X126429082Y-102415602D01*
X126429082Y-102415602D02*
X126429082Y-102587030D01*
X126429082Y-102587030D02*
X126471939Y-102672745D01*
X127029082Y-103101316D02*
X126429082Y-103101316D01*
X126129082Y-103101316D02*
X126171939Y-103058459D01*
X126171939Y-103058459D02*
X126214796Y-103101316D01*
X126214796Y-103101316D02*
X126171939Y-103144173D01*
X126171939Y-103144173D02*
X126129082Y-103101316D01*
X126129082Y-103101316D02*
X126214796Y-103101316D01*
X126986225Y-103487030D02*
X127029082Y-103572744D01*
X127029082Y-103572744D02*
X127029082Y-103744173D01*
X127029082Y-103744173D02*
X126986225Y-103829887D01*
X126986225Y-103829887D02*
X126900510Y-103872744D01*
X126900510Y-103872744D02*
X126857653Y-103872744D01*
X126857653Y-103872744D02*
X126771939Y-103829887D01*
X126771939Y-103829887D02*
X126729082Y-103744173D01*
X126729082Y-103744173D02*
X126729082Y-103615602D01*
X126729082Y-103615602D02*
X126686225Y-103529887D01*
X126686225Y-103529887D02*
X126600510Y-103487030D01*
X126600510Y-103487030D02*
X126557653Y-103487030D01*
X126557653Y-103487030D02*
X126471939Y-103529887D01*
X126471939Y-103529887D02*
X126429082Y-103615602D01*
X126429082Y-103615602D02*
X126429082Y-103744173D01*
X126429082Y-103744173D02*
X126471939Y-103829887D01*
X126429082Y-104129887D02*
X126429082Y-104472744D01*
X126129082Y-104258458D02*
X126900510Y-104258458D01*
X126900510Y-104258458D02*
X126986225Y-104301315D01*
X126986225Y-104301315D02*
X127029082Y-104387030D01*
X127029082Y-104387030D02*
X127029082Y-104472744D01*
X126986225Y-105115601D02*
X127029082Y-105029887D01*
X127029082Y-105029887D02*
X127029082Y-104858459D01*
X127029082Y-104858459D02*
X126986225Y-104772744D01*
X126986225Y-104772744D02*
X126900510Y-104729887D01*
X126900510Y-104729887D02*
X126557653Y-104729887D01*
X126557653Y-104729887D02*
X126471939Y-104772744D01*
X126471939Y-104772744D02*
X126429082Y-104858459D01*
X126429082Y-104858459D02*
X126429082Y-105029887D01*
X126429082Y-105029887D02*
X126471939Y-105115601D01*
X126471939Y-105115601D02*
X126557653Y-105158459D01*
X126557653Y-105158459D02*
X126643367Y-105158459D01*
X126643367Y-105158459D02*
X126729082Y-104729887D01*
X127029082Y-105544173D02*
X126429082Y-105544173D01*
X126600510Y-105544173D02*
X126514796Y-105587030D01*
X126514796Y-105587030D02*
X126471939Y-105629888D01*
X126471939Y-105629888D02*
X126429082Y-105715602D01*
X126429082Y-105715602D02*
X126429082Y-105801316D01*
X126986225Y-106058459D02*
X127029082Y-106144173D01*
X127029082Y-106144173D02*
X127029082Y-106315602D01*
X127029082Y-106315602D02*
X126986225Y-106401316D01*
X126986225Y-106401316D02*
X126900510Y-106444173D01*
X126900510Y-106444173D02*
X126857653Y-106444173D01*
X126857653Y-106444173D02*
X126771939Y-106401316D01*
X126771939Y-106401316D02*
X126729082Y-106315602D01*
X126729082Y-106315602D02*
X126729082Y-106187031D01*
X126729082Y-106187031D02*
X126686225Y-106101316D01*
X126686225Y-106101316D02*
X126600510Y-106058459D01*
X126600510Y-106058459D02*
X126557653Y-106058459D01*
X126557653Y-106058459D02*
X126471939Y-106101316D01*
X126471939Y-106101316D02*
X126429082Y-106187031D01*
X126429082Y-106187031D02*
X126429082Y-106315602D01*
X126429082Y-106315602D02*
X126471939Y-106401316D01*
X128478032Y-87329884D02*
X127878032Y-87329884D01*
X127963746Y-87329884D02*
X127920889Y-87372741D01*
X127920889Y-87372741D02*
X127878032Y-87458456D01*
X127878032Y-87458456D02*
X127878032Y-87587027D01*
X127878032Y-87587027D02*
X127920889Y-87672741D01*
X127920889Y-87672741D02*
X128006603Y-87715599D01*
X128006603Y-87715599D02*
X128478032Y-87715599D01*
X128006603Y-87715599D02*
X127920889Y-87758456D01*
X127920889Y-87758456D02*
X127878032Y-87844170D01*
X127878032Y-87844170D02*
X127878032Y-87972741D01*
X127878032Y-87972741D02*
X127920889Y-88058456D01*
X127920889Y-88058456D02*
X128006603Y-88101313D01*
X128006603Y-88101313D02*
X128478032Y-88101313D01*
X128478032Y-88915599D02*
X128006603Y-88915599D01*
X128006603Y-88915599D02*
X127920889Y-88872741D01*
X127920889Y-88872741D02*
X127878032Y-88787027D01*
X127878032Y-88787027D02*
X127878032Y-88615599D01*
X127878032Y-88615599D02*
X127920889Y-88529884D01*
X128435175Y-88915599D02*
X128478032Y-88829884D01*
X128478032Y-88829884D02*
X128478032Y-88615599D01*
X128478032Y-88615599D02*
X128435175Y-88529884D01*
X128435175Y-88529884D02*
X128349460Y-88487027D01*
X128349460Y-88487027D02*
X128263746Y-88487027D01*
X128263746Y-88487027D02*
X128178032Y-88529884D01*
X128178032Y-88529884D02*
X128135175Y-88615599D01*
X128135175Y-88615599D02*
X128135175Y-88829884D01*
X128135175Y-88829884D02*
X128092317Y-88915599D01*
X127878032Y-89344170D02*
X128778032Y-89344170D01*
X127920889Y-89344170D02*
X127878032Y-89429885D01*
X127878032Y-89429885D02*
X127878032Y-89601313D01*
X127878032Y-89601313D02*
X127920889Y-89687027D01*
X127920889Y-89687027D02*
X127963746Y-89729885D01*
X127963746Y-89729885D02*
X128049460Y-89772742D01*
X128049460Y-89772742D02*
X128306603Y-89772742D01*
X128306603Y-89772742D02*
X128392317Y-89729885D01*
X128392317Y-89729885D02*
X128435175Y-89687027D01*
X128435175Y-89687027D02*
X128478032Y-89601313D01*
X128478032Y-89601313D02*
X128478032Y-89429885D01*
X128478032Y-89429885D02*
X128435175Y-89344170D01*
X127878032Y-90158456D02*
X128778032Y-90158456D01*
X127920889Y-90158456D02*
X127878032Y-90244171D01*
X127878032Y-90244171D02*
X127878032Y-90415599D01*
X127878032Y-90415599D02*
X127920889Y-90501313D01*
X127920889Y-90501313D02*
X127963746Y-90544171D01*
X127963746Y-90544171D02*
X128049460Y-90587028D01*
X128049460Y-90587028D02*
X128306603Y-90587028D01*
X128306603Y-90587028D02*
X128392317Y-90544171D01*
X128392317Y-90544171D02*
X128435175Y-90501313D01*
X128435175Y-90501313D02*
X128478032Y-90415599D01*
X128478032Y-90415599D02*
X128478032Y-90244171D01*
X128478032Y-90244171D02*
X128435175Y-90158456D01*
X128435175Y-91315599D02*
X128478032Y-91229885D01*
X128478032Y-91229885D02*
X128478032Y-91058457D01*
X128478032Y-91058457D02*
X128435175Y-90972742D01*
X128435175Y-90972742D02*
X128349460Y-90929885D01*
X128349460Y-90929885D02*
X128006603Y-90929885D01*
X128006603Y-90929885D02*
X127920889Y-90972742D01*
X127920889Y-90972742D02*
X127878032Y-91058457D01*
X127878032Y-91058457D02*
X127878032Y-91229885D01*
X127878032Y-91229885D02*
X127920889Y-91315599D01*
X127920889Y-91315599D02*
X128006603Y-91358457D01*
X128006603Y-91358457D02*
X128092317Y-91358457D01*
X128092317Y-91358457D02*
X128178032Y-90929885D01*
X128478032Y-92129886D02*
X127578032Y-92129886D01*
X128435175Y-92129886D02*
X128478032Y-92044171D01*
X128478032Y-92044171D02*
X128478032Y-91872743D01*
X128478032Y-91872743D02*
X128435175Y-91787028D01*
X128435175Y-91787028D02*
X128392317Y-91744171D01*
X128392317Y-91744171D02*
X128306603Y-91701314D01*
X128306603Y-91701314D02*
X128049460Y-91701314D01*
X128049460Y-91701314D02*
X127963746Y-91744171D01*
X127963746Y-91744171D02*
X127920889Y-91787028D01*
X127920889Y-91787028D02*
X127878032Y-91872743D01*
X127878032Y-91872743D02*
X127878032Y-92044171D01*
X127878032Y-92044171D02*
X127920889Y-92129886D01*
X127878032Y-93115600D02*
X127878032Y-93458457D01*
X127578032Y-93244171D02*
X128349460Y-93244171D01*
X128349460Y-93244171D02*
X128435175Y-93287028D01*
X128435175Y-93287028D02*
X128478032Y-93372743D01*
X128478032Y-93372743D02*
X128478032Y-93458457D01*
X128478032Y-93887029D02*
X128435175Y-93801314D01*
X128435175Y-93801314D02*
X128392317Y-93758457D01*
X128392317Y-93758457D02*
X128306603Y-93715600D01*
X128306603Y-93715600D02*
X128049460Y-93715600D01*
X128049460Y-93715600D02*
X127963746Y-93758457D01*
X127963746Y-93758457D02*
X127920889Y-93801314D01*
X127920889Y-93801314D02*
X127878032Y-93887029D01*
X127878032Y-93887029D02*
X127878032Y-94015600D01*
X127878032Y-94015600D02*
X127920889Y-94101314D01*
X127920889Y-94101314D02*
X127963746Y-94144172D01*
X127963746Y-94144172D02*
X128049460Y-94187029D01*
X128049460Y-94187029D02*
X128306603Y-94187029D01*
X128306603Y-94187029D02*
X128392317Y-94144172D01*
X128392317Y-94144172D02*
X128435175Y-94101314D01*
X128435175Y-94101314D02*
X128478032Y-94015600D01*
X128478032Y-94015600D02*
X128478032Y-93887029D01*
X128392317Y-95772743D02*
X128435175Y-95729886D01*
X128435175Y-95729886D02*
X128478032Y-95601314D01*
X128478032Y-95601314D02*
X128478032Y-95515600D01*
X128478032Y-95515600D02*
X128435175Y-95387029D01*
X128435175Y-95387029D02*
X128349460Y-95301314D01*
X128349460Y-95301314D02*
X128263746Y-95258457D01*
X128263746Y-95258457D02*
X128092317Y-95215600D01*
X128092317Y-95215600D02*
X127963746Y-95215600D01*
X127963746Y-95215600D02*
X127792317Y-95258457D01*
X127792317Y-95258457D02*
X127706603Y-95301314D01*
X127706603Y-95301314D02*
X127620889Y-95387029D01*
X127620889Y-95387029D02*
X127578032Y-95515600D01*
X127578032Y-95515600D02*
X127578032Y-95601314D01*
X127578032Y-95601314D02*
X127620889Y-95729886D01*
X127620889Y-95729886D02*
X127663746Y-95772743D01*
X128478032Y-96158457D02*
X127578032Y-96158457D01*
X127578032Y-96158457D02*
X128220889Y-96458457D01*
X128220889Y-96458457D02*
X127578032Y-96758457D01*
X127578032Y-96758457D02*
X128478032Y-96758457D01*
X128478032Y-97187028D02*
X127578032Y-97187028D01*
X127578032Y-97187028D02*
X127578032Y-97401314D01*
X127578032Y-97401314D02*
X127620889Y-97529885D01*
X127620889Y-97529885D02*
X127706603Y-97615600D01*
X127706603Y-97615600D02*
X127792317Y-97658457D01*
X127792317Y-97658457D02*
X127963746Y-97701314D01*
X127963746Y-97701314D02*
X128092317Y-97701314D01*
X128092317Y-97701314D02*
X128263746Y-97658457D01*
X128263746Y-97658457D02*
X128349460Y-97615600D01*
X128349460Y-97615600D02*
X128435175Y-97529885D01*
X128435175Y-97529885D02*
X128478032Y-97401314D01*
X128478032Y-97401314D02*
X128478032Y-97187028D01*
X127578032Y-98515600D02*
X127578032Y-98087028D01*
X127578032Y-98087028D02*
X128006603Y-98044171D01*
X128006603Y-98044171D02*
X127963746Y-98087028D01*
X127963746Y-98087028D02*
X127920889Y-98172743D01*
X127920889Y-98172743D02*
X127920889Y-98387028D01*
X127920889Y-98387028D02*
X127963746Y-98472743D01*
X127963746Y-98472743D02*
X128006603Y-98515600D01*
X128006603Y-98515600D02*
X128092317Y-98558457D01*
X128092317Y-98558457D02*
X128306603Y-98558457D01*
X128306603Y-98558457D02*
X128392317Y-98515600D01*
X128392317Y-98515600D02*
X128435175Y-98472743D01*
X128435175Y-98472743D02*
X128478032Y-98387028D01*
X128478032Y-98387028D02*
X128478032Y-98172743D01*
X128478032Y-98172743D02*
X128435175Y-98087028D01*
X128435175Y-98087028D02*
X128392317Y-98044171D01*
X127663746Y-98901314D02*
X127620889Y-98944171D01*
X127620889Y-98944171D02*
X127578032Y-99029886D01*
X127578032Y-99029886D02*
X127578032Y-99244171D01*
X127578032Y-99244171D02*
X127620889Y-99329886D01*
X127620889Y-99329886D02*
X127663746Y-99372743D01*
X127663746Y-99372743D02*
X127749460Y-99415600D01*
X127749460Y-99415600D02*
X127835175Y-99415600D01*
X127835175Y-99415600D02*
X127963746Y-99372743D01*
X127963746Y-99372743D02*
X128478032Y-98858457D01*
X128478032Y-98858457D02*
X128478032Y-99415600D01*
X127878032Y-100358457D02*
X127878032Y-100701314D01*
X128478032Y-100487028D02*
X127706603Y-100487028D01*
X127706603Y-100487028D02*
X127620889Y-100529885D01*
X127620889Y-100529885D02*
X127578032Y-100615600D01*
X127578032Y-100615600D02*
X127578032Y-100701314D01*
X127878032Y-101387029D02*
X128478032Y-101387029D01*
X127878032Y-101001314D02*
X128349460Y-101001314D01*
X128349460Y-101001314D02*
X128435175Y-101044171D01*
X128435175Y-101044171D02*
X128478032Y-101129886D01*
X128478032Y-101129886D02*
X128478032Y-101258457D01*
X128478032Y-101258457D02*
X128435175Y-101344171D01*
X128435175Y-101344171D02*
X128392317Y-101387029D01*
X127878032Y-101815600D02*
X128478032Y-101815600D01*
X127963746Y-101815600D02*
X127920889Y-101858457D01*
X127920889Y-101858457D02*
X127878032Y-101944172D01*
X127878032Y-101944172D02*
X127878032Y-102072743D01*
X127878032Y-102072743D02*
X127920889Y-102158457D01*
X127920889Y-102158457D02*
X128006603Y-102201315D01*
X128006603Y-102201315D02*
X128478032Y-102201315D01*
X128435175Y-103015601D02*
X128478032Y-102929886D01*
X128478032Y-102929886D02*
X128478032Y-102758458D01*
X128478032Y-102758458D02*
X128435175Y-102672743D01*
X128435175Y-102672743D02*
X128392317Y-102629886D01*
X128392317Y-102629886D02*
X128306603Y-102587029D01*
X128306603Y-102587029D02*
X128049460Y-102587029D01*
X128049460Y-102587029D02*
X127963746Y-102629886D01*
X127963746Y-102629886D02*
X127920889Y-102672743D01*
X127920889Y-102672743D02*
X127878032Y-102758458D01*
X127878032Y-102758458D02*
X127878032Y-102929886D01*
X127878032Y-102929886D02*
X127920889Y-103015601D01*
X127878032Y-103272744D02*
X127878032Y-103615601D01*
X127578032Y-103401315D02*
X128349460Y-103401315D01*
X128349460Y-103401315D02*
X128435175Y-103444172D01*
X128435175Y-103444172D02*
X128478032Y-103529887D01*
X128478032Y-103529887D02*
X128478032Y-103615601D01*
X128478032Y-103915601D02*
X127878032Y-103915601D01*
X127578032Y-103915601D02*
X127620889Y-103872744D01*
X127620889Y-103872744D02*
X127663746Y-103915601D01*
X127663746Y-103915601D02*
X127620889Y-103958458D01*
X127620889Y-103958458D02*
X127578032Y-103915601D01*
X127578032Y-103915601D02*
X127663746Y-103915601D01*
X128478032Y-104472744D02*
X128435175Y-104387029D01*
X128435175Y-104387029D02*
X128392317Y-104344172D01*
X128392317Y-104344172D02*
X128306603Y-104301315D01*
X128306603Y-104301315D02*
X128049460Y-104301315D01*
X128049460Y-104301315D02*
X127963746Y-104344172D01*
X127963746Y-104344172D02*
X127920889Y-104387029D01*
X127920889Y-104387029D02*
X127878032Y-104472744D01*
X127878032Y-104472744D02*
X127878032Y-104601315D01*
X127878032Y-104601315D02*
X127920889Y-104687029D01*
X127920889Y-104687029D02*
X127963746Y-104729887D01*
X127963746Y-104729887D02*
X128049460Y-104772744D01*
X128049460Y-104772744D02*
X128306603Y-104772744D01*
X128306603Y-104772744D02*
X128392317Y-104729887D01*
X128392317Y-104729887D02*
X128435175Y-104687029D01*
X128435175Y-104687029D02*
X128478032Y-104601315D01*
X128478032Y-104601315D02*
X128478032Y-104472744D01*
X127878032Y-105158458D02*
X128478032Y-105158458D01*
X127963746Y-105158458D02*
X127920889Y-105201315D01*
X127920889Y-105201315D02*
X127878032Y-105287030D01*
X127878032Y-105287030D02*
X127878032Y-105415601D01*
X127878032Y-105415601D02*
X127920889Y-105501315D01*
X127920889Y-105501315D02*
X128006603Y-105544173D01*
X128006603Y-105544173D02*
X128478032Y-105544173D01*
X128478032Y-107129887D02*
X128478032Y-106615601D01*
X128478032Y-106872744D02*
X127578032Y-106872744D01*
X127578032Y-106872744D02*
X127706603Y-106787030D01*
X127706603Y-106787030D02*
X127792317Y-106701315D01*
X127792317Y-106701315D02*
X127835175Y-106615601D01*
X122014104Y-109495237D02*
X122014104Y-109971427D01*
X122299819Y-109399999D02*
X121299819Y-109733332D01*
X121299819Y-109733332D02*
X122299819Y-110066665D01*
X121299819Y-110257142D02*
X121299819Y-110828570D01*
X122299819Y-110542856D02*
X121299819Y-110542856D01*
X122014104Y-111114285D02*
X122014104Y-111590475D01*
X122299819Y-111019047D02*
X121299819Y-111352380D01*
X121299819Y-111352380D02*
X122299819Y-111685713D01*
X122299819Y-113257142D02*
X122299819Y-112780952D01*
X122299819Y-112780952D02*
X121299819Y-112780952D01*
X122299819Y-114019047D02*
X121776009Y-114019047D01*
X121776009Y-114019047D02*
X121680771Y-113971428D01*
X121680771Y-113971428D02*
X121633152Y-113876190D01*
X121633152Y-113876190D02*
X121633152Y-113685714D01*
X121633152Y-113685714D02*
X121680771Y-113590476D01*
X122252200Y-114019047D02*
X122299819Y-113923809D01*
X122299819Y-113923809D02*
X122299819Y-113685714D01*
X122299819Y-113685714D02*
X122252200Y-113590476D01*
X122252200Y-113590476D02*
X122156961Y-113542857D01*
X122156961Y-113542857D02*
X122061723Y-113542857D01*
X122061723Y-113542857D02*
X121966485Y-113590476D01*
X121966485Y-113590476D02*
X121918866Y-113685714D01*
X121918866Y-113685714D02*
X121918866Y-113923809D01*
X121918866Y-113923809D02*
X121871247Y-114019047D01*
X121633152Y-114400000D02*
X122299819Y-114638095D01*
X121633152Y-114876190D02*
X122299819Y-114638095D01*
X122299819Y-114638095D02*
X122537914Y-114542857D01*
X122537914Y-114542857D02*
X122585533Y-114495238D01*
X122585533Y-114495238D02*
X122633152Y-114400000D01*
X122252200Y-115638095D02*
X122299819Y-115542857D01*
X122299819Y-115542857D02*
X122299819Y-115352381D01*
X122299819Y-115352381D02*
X122252200Y-115257143D01*
X122252200Y-115257143D02*
X122156961Y-115209524D01*
X122156961Y-115209524D02*
X121776009Y-115209524D01*
X121776009Y-115209524D02*
X121680771Y-115257143D01*
X121680771Y-115257143D02*
X121633152Y-115352381D01*
X121633152Y-115352381D02*
X121633152Y-115542857D01*
X121633152Y-115542857D02*
X121680771Y-115638095D01*
X121680771Y-115638095D02*
X121776009Y-115685714D01*
X121776009Y-115685714D02*
X121871247Y-115685714D01*
X121871247Y-115685714D02*
X121966485Y-115209524D01*
X122299819Y-116114286D02*
X121633152Y-116114286D01*
X121823628Y-116114286D02*
X121728390Y-116161905D01*
X121728390Y-116161905D02*
X121680771Y-116209524D01*
X121680771Y-116209524D02*
X121633152Y-116304762D01*
X121633152Y-116304762D02*
X121633152Y-116400000D01*
X127514104Y-108876191D02*
X127514104Y-109352381D01*
X127799819Y-108780953D02*
X126799819Y-109114286D01*
X126799819Y-109114286D02*
X127799819Y-109447619D01*
X126799819Y-109638096D02*
X126799819Y-110209524D01*
X127799819Y-109923810D02*
X126799819Y-109923810D01*
X127514104Y-110495239D02*
X127514104Y-110971429D01*
X127799819Y-110400001D02*
X126799819Y-110733334D01*
X126799819Y-110733334D02*
X127799819Y-111066667D01*
X127418866Y-111400001D02*
X127418866Y-112161906D01*
X127133152Y-112638096D02*
X127418866Y-113400001D01*
X127418866Y-113400001D02*
X127704580Y-112638096D01*
X127752200Y-113828572D02*
X127799819Y-113971429D01*
X127799819Y-113971429D02*
X127799819Y-114209524D01*
X127799819Y-114209524D02*
X127752200Y-114304762D01*
X127752200Y-114304762D02*
X127704580Y-114352381D01*
X127704580Y-114352381D02*
X127609342Y-114400000D01*
X127609342Y-114400000D02*
X127514104Y-114400000D01*
X127514104Y-114400000D02*
X127418866Y-114352381D01*
X127418866Y-114352381D02*
X127371247Y-114304762D01*
X127371247Y-114304762D02*
X127323628Y-114209524D01*
X127323628Y-114209524D02*
X127276009Y-114019048D01*
X127276009Y-114019048D02*
X127228390Y-113923810D01*
X127228390Y-113923810D02*
X127180771Y-113876191D01*
X127180771Y-113876191D02*
X127085533Y-113828572D01*
X127085533Y-113828572D02*
X126990295Y-113828572D01*
X126990295Y-113828572D02*
X126895057Y-113876191D01*
X126895057Y-113876191D02*
X126847438Y-113923810D01*
X126847438Y-113923810D02*
X126799819Y-114019048D01*
X126799819Y-114019048D02*
X126799819Y-114257143D01*
X126799819Y-114257143D02*
X126847438Y-114400000D01*
X127799819Y-114828572D02*
X126799819Y-114828572D01*
X126799819Y-114828572D02*
X126799819Y-115066667D01*
X126799819Y-115066667D02*
X126847438Y-115209524D01*
X126847438Y-115209524D02*
X126942676Y-115304762D01*
X126942676Y-115304762D02*
X127037914Y-115352381D01*
X127037914Y-115352381D02*
X127228390Y-115400000D01*
X127228390Y-115400000D02*
X127371247Y-115400000D01*
X127371247Y-115400000D02*
X127561723Y-115352381D01*
X127561723Y-115352381D02*
X127656961Y-115304762D01*
X127656961Y-115304762D02*
X127752200Y-115209524D01*
X127752200Y-115209524D02*
X127799819Y-115066667D01*
X127799819Y-115066667D02*
X127799819Y-114828572D01*
X127799819Y-115828572D02*
X126799819Y-115828572D01*
X126799819Y-116495238D02*
X126799819Y-116685714D01*
X126799819Y-116685714D02*
X126847438Y-116780952D01*
X126847438Y-116780952D02*
X126942676Y-116876190D01*
X126942676Y-116876190D02*
X127133152Y-116923809D01*
X127133152Y-116923809D02*
X127466485Y-116923809D01*
X127466485Y-116923809D02*
X127656961Y-116876190D01*
X127656961Y-116876190D02*
X127752200Y-116780952D01*
X127752200Y-116780952D02*
X127799819Y-116685714D01*
X127799819Y-116685714D02*
X127799819Y-116495238D01*
X127799819Y-116495238D02*
X127752200Y-116400000D01*
X127752200Y-116400000D02*
X127656961Y-116304762D01*
X127656961Y-116304762D02*
X127466485Y-116257143D01*
X127466485Y-116257143D02*
X127133152Y-116257143D01*
X127133152Y-116257143D02*
X126942676Y-116304762D01*
X126942676Y-116304762D02*
X126847438Y-116400000D01*
X126847438Y-116400000D02*
X126799819Y-116495238D01*
X133299819Y-108709524D02*
X132299819Y-108709524D01*
X132299819Y-108709524D02*
X133014104Y-109042857D01*
X133014104Y-109042857D02*
X132299819Y-109376190D01*
X132299819Y-109376190D02*
X133299819Y-109376190D01*
X133299819Y-109852381D02*
X132299819Y-109852381D01*
X133299819Y-110423809D02*
X132728390Y-109995238D01*
X132299819Y-110423809D02*
X132871247Y-109852381D01*
X132633152Y-111280952D02*
X133299819Y-111280952D01*
X132252200Y-111042857D02*
X132966485Y-110804762D01*
X132966485Y-110804762D02*
X132966485Y-111423809D01*
X132299819Y-111995238D02*
X132299819Y-112090476D01*
X132299819Y-112090476D02*
X132347438Y-112185714D01*
X132347438Y-112185714D02*
X132395057Y-112233333D01*
X132395057Y-112233333D02*
X132490295Y-112280952D01*
X132490295Y-112280952D02*
X132680771Y-112328571D01*
X132680771Y-112328571D02*
X132918866Y-112328571D01*
X132918866Y-112328571D02*
X133109342Y-112280952D01*
X133109342Y-112280952D02*
X133204580Y-112233333D01*
X133204580Y-112233333D02*
X133252200Y-112185714D01*
X133252200Y-112185714D02*
X133299819Y-112090476D01*
X133299819Y-112090476D02*
X133299819Y-111995238D01*
X133299819Y-111995238D02*
X133252200Y-111900000D01*
X133252200Y-111900000D02*
X133204580Y-111852381D01*
X133204580Y-111852381D02*
X133109342Y-111804762D01*
X133109342Y-111804762D02*
X132918866Y-111757143D01*
X132918866Y-111757143D02*
X132680771Y-111757143D01*
X132680771Y-111757143D02*
X132490295Y-111804762D01*
X132490295Y-111804762D02*
X132395057Y-111852381D01*
X132395057Y-111852381D02*
X132347438Y-111900000D01*
X132347438Y-111900000D02*
X132299819Y-111995238D01*
X132299819Y-112947619D02*
X132299819Y-113042857D01*
X132299819Y-113042857D02*
X132347438Y-113138095D01*
X132347438Y-113138095D02*
X132395057Y-113185714D01*
X132395057Y-113185714D02*
X132490295Y-113233333D01*
X132490295Y-113233333D02*
X132680771Y-113280952D01*
X132680771Y-113280952D02*
X132918866Y-113280952D01*
X132918866Y-113280952D02*
X133109342Y-113233333D01*
X133109342Y-113233333D02*
X133204580Y-113185714D01*
X133204580Y-113185714D02*
X133252200Y-113138095D01*
X133252200Y-113138095D02*
X133299819Y-113042857D01*
X133299819Y-113042857D02*
X133299819Y-112947619D01*
X133299819Y-112947619D02*
X133252200Y-112852381D01*
X133252200Y-112852381D02*
X133204580Y-112804762D01*
X133204580Y-112804762D02*
X133109342Y-112757143D01*
X133109342Y-112757143D02*
X132918866Y-112709524D01*
X132918866Y-112709524D02*
X132680771Y-112709524D01*
X132680771Y-112709524D02*
X132490295Y-112757143D01*
X132490295Y-112757143D02*
X132395057Y-112804762D01*
X132395057Y-112804762D02*
X132347438Y-112852381D01*
X132347438Y-112852381D02*
X132299819Y-112947619D01*
X133299819Y-114233333D02*
X133299819Y-113661905D01*
X133299819Y-113947619D02*
X132299819Y-113947619D01*
X132299819Y-113947619D02*
X132442676Y-113852381D01*
X132442676Y-113852381D02*
X132537914Y-113757143D01*
X132537914Y-113757143D02*
X132585533Y-113661905D01*
X133299819Y-114661905D02*
X132299819Y-114661905D01*
X132299819Y-114661905D02*
X133014104Y-114995238D01*
X133014104Y-114995238D02*
X132299819Y-115328571D01*
X132299819Y-115328571D02*
X133299819Y-115328571D01*
X132299819Y-115661905D02*
X132299819Y-116233333D01*
X133299819Y-115947619D02*
X132299819Y-115947619D01*
X133299819Y-116566667D02*
X132299819Y-116566667D01*
X132299819Y-116566667D02*
X132299819Y-116804762D01*
X132299819Y-116804762D02*
X132347438Y-116947619D01*
X132347438Y-116947619D02*
X132442676Y-117042857D01*
X132442676Y-117042857D02*
X132537914Y-117090476D01*
X132537914Y-117090476D02*
X132728390Y-117138095D01*
X132728390Y-117138095D02*
X132871247Y-117138095D01*
X132871247Y-117138095D02*
X133061723Y-117090476D01*
X133061723Y-117090476D02*
X133156961Y-117042857D01*
X133156961Y-117042857D02*
X133252200Y-116947619D01*
X133252200Y-116947619D02*
X133299819Y-116804762D01*
X133299819Y-116804762D02*
X133299819Y-116566667D01*
X129833152Y-97880952D02*
X130499819Y-97880952D01*
X129452200Y-97642857D02*
X130166485Y-97404762D01*
X130166485Y-97404762D02*
X130166485Y-98023809D01*
X130118866Y-98404762D02*
X130118866Y-99166667D01*
X130499819Y-99642857D02*
X129499819Y-99642857D01*
X129880771Y-99642857D02*
X129833152Y-99738095D01*
X129833152Y-99738095D02*
X129833152Y-99928571D01*
X129833152Y-99928571D02*
X129880771Y-100023809D01*
X129880771Y-100023809D02*
X129928390Y-100071428D01*
X129928390Y-100071428D02*
X130023628Y-100119047D01*
X130023628Y-100119047D02*
X130309342Y-100119047D01*
X130309342Y-100119047D02*
X130404580Y-100071428D01*
X130404580Y-100071428D02*
X130452200Y-100023809D01*
X130452200Y-100023809D02*
X130499819Y-99928571D01*
X130499819Y-99928571D02*
X130499819Y-99738095D01*
X130499819Y-99738095D02*
X130452200Y-99642857D01*
X130499819Y-100547619D02*
X129833152Y-100547619D01*
X129499819Y-100547619D02*
X129547438Y-100500000D01*
X129547438Y-100500000D02*
X129595057Y-100547619D01*
X129595057Y-100547619D02*
X129547438Y-100595238D01*
X129547438Y-100595238D02*
X129499819Y-100547619D01*
X129499819Y-100547619D02*
X129595057Y-100547619D01*
X129833152Y-100880952D02*
X129833152Y-101261904D01*
X129499819Y-101023809D02*
X130356961Y-101023809D01*
X130356961Y-101023809D02*
X130452200Y-101071428D01*
X130452200Y-101071428D02*
X130499819Y-101166666D01*
X130499819Y-101166666D02*
X130499819Y-101261904D01*
X130452200Y-102309524D02*
X130499819Y-102452381D01*
X130499819Y-102452381D02*
X130499819Y-102690476D01*
X130499819Y-102690476D02*
X130452200Y-102785714D01*
X130452200Y-102785714D02*
X130404580Y-102833333D01*
X130404580Y-102833333D02*
X130309342Y-102880952D01*
X130309342Y-102880952D02*
X130214104Y-102880952D01*
X130214104Y-102880952D02*
X130118866Y-102833333D01*
X130118866Y-102833333D02*
X130071247Y-102785714D01*
X130071247Y-102785714D02*
X130023628Y-102690476D01*
X130023628Y-102690476D02*
X129976009Y-102500000D01*
X129976009Y-102500000D02*
X129928390Y-102404762D01*
X129928390Y-102404762D02*
X129880771Y-102357143D01*
X129880771Y-102357143D02*
X129785533Y-102309524D01*
X129785533Y-102309524D02*
X129690295Y-102309524D01*
X129690295Y-102309524D02*
X129595057Y-102357143D01*
X129595057Y-102357143D02*
X129547438Y-102404762D01*
X129547438Y-102404762D02*
X129499819Y-102500000D01*
X129499819Y-102500000D02*
X129499819Y-102738095D01*
X129499819Y-102738095D02*
X129547438Y-102880952D01*
X130499819Y-103309524D02*
X129499819Y-103309524D01*
X129499819Y-103309524D02*
X129499819Y-103547619D01*
X129499819Y-103547619D02*
X129547438Y-103690476D01*
X129547438Y-103690476D02*
X129642676Y-103785714D01*
X129642676Y-103785714D02*
X129737914Y-103833333D01*
X129737914Y-103833333D02*
X129928390Y-103880952D01*
X129928390Y-103880952D02*
X130071247Y-103880952D01*
X130071247Y-103880952D02*
X130261723Y-103833333D01*
X130261723Y-103833333D02*
X130356961Y-103785714D01*
X130356961Y-103785714D02*
X130452200Y-103690476D01*
X130452200Y-103690476D02*
X130499819Y-103547619D01*
X130499819Y-103547619D02*
X130499819Y-103309524D01*
X130499819Y-104309524D02*
X129499819Y-104309524D01*
X129499819Y-104976190D02*
X129499819Y-105166666D01*
X129499819Y-105166666D02*
X129547438Y-105261904D01*
X129547438Y-105261904D02*
X129642676Y-105357142D01*
X129642676Y-105357142D02*
X129833152Y-105404761D01*
X129833152Y-105404761D02*
X130166485Y-105404761D01*
X130166485Y-105404761D02*
X130356961Y-105357142D01*
X130356961Y-105357142D02*
X130452200Y-105261904D01*
X130452200Y-105261904D02*
X130499819Y-105166666D01*
X130499819Y-105166666D02*
X130499819Y-104976190D01*
X130499819Y-104976190D02*
X130452200Y-104880952D01*
X130452200Y-104880952D02*
X130356961Y-104785714D01*
X130356961Y-104785714D02*
X130166485Y-104738095D01*
X130166485Y-104738095D02*
X129833152Y-104738095D01*
X129833152Y-104738095D02*
X129642676Y-104785714D01*
X129642676Y-104785714D02*
X129547438Y-104880952D01*
X129547438Y-104880952D02*
X129499819Y-104976190D01*
X129833152Y-106500000D02*
X130499819Y-106738095D01*
X130499819Y-106738095D02*
X129833152Y-106976190D01*
X130499819Y-107357143D02*
X129833152Y-107357143D01*
X129499819Y-107357143D02*
X129547438Y-107309524D01*
X129547438Y-107309524D02*
X129595057Y-107357143D01*
X129595057Y-107357143D02*
X129547438Y-107404762D01*
X129547438Y-107404762D02*
X129499819Y-107357143D01*
X129499819Y-107357143D02*
X129595057Y-107357143D01*
X130499819Y-108261904D02*
X129976009Y-108261904D01*
X129976009Y-108261904D02*
X129880771Y-108214285D01*
X129880771Y-108214285D02*
X129833152Y-108119047D01*
X129833152Y-108119047D02*
X129833152Y-107928571D01*
X129833152Y-107928571D02*
X129880771Y-107833333D01*
X130452200Y-108261904D02*
X130499819Y-108166666D01*
X130499819Y-108166666D02*
X130499819Y-107928571D01*
X130499819Y-107928571D02*
X130452200Y-107833333D01*
X130452200Y-107833333D02*
X130356961Y-107785714D01*
X130356961Y-107785714D02*
X130261723Y-107785714D01*
X130261723Y-107785714D02*
X130166485Y-107833333D01*
X130166485Y-107833333D02*
X130118866Y-107928571D01*
X130118866Y-107928571D02*
X130118866Y-108166666D01*
X130118866Y-108166666D02*
X130071247Y-108261904D01*
X130499819Y-109500000D02*
X129499819Y-109500000D01*
X129499819Y-109500000D02*
X129499819Y-109880952D01*
X129499819Y-109880952D02*
X129547438Y-109976190D01*
X129547438Y-109976190D02*
X129595057Y-110023809D01*
X129595057Y-110023809D02*
X129690295Y-110071428D01*
X129690295Y-110071428D02*
X129833152Y-110071428D01*
X129833152Y-110071428D02*
X129928390Y-110023809D01*
X129928390Y-110023809D02*
X129976009Y-109976190D01*
X129976009Y-109976190D02*
X130023628Y-109880952D01*
X130023628Y-109880952D02*
X130023628Y-109500000D01*
X130499819Y-110500000D02*
X129499819Y-110500000D01*
X129499819Y-111166666D02*
X129499819Y-111357142D01*
X129499819Y-111357142D02*
X129547438Y-111452380D01*
X129547438Y-111452380D02*
X129642676Y-111547618D01*
X129642676Y-111547618D02*
X129833152Y-111595237D01*
X129833152Y-111595237D02*
X130166485Y-111595237D01*
X130166485Y-111595237D02*
X130356961Y-111547618D01*
X130356961Y-111547618D02*
X130452200Y-111452380D01*
X130452200Y-111452380D02*
X130499819Y-111357142D01*
X130499819Y-111357142D02*
X130499819Y-111166666D01*
X130499819Y-111166666D02*
X130452200Y-111071428D01*
X130452200Y-111071428D02*
X130356961Y-110976190D01*
X130356961Y-110976190D02*
X130166485Y-110928571D01*
X130166485Y-110928571D02*
X129833152Y-110928571D01*
X129833152Y-110928571D02*
X129642676Y-110976190D01*
X129642676Y-110976190D02*
X129547438Y-111071428D01*
X129547438Y-111071428D02*
X129499819Y-111166666D01*
D11*
%TO.C,G\u002A\u002A\u002A*%
G36*
X170668892Y-100892052D02*
G01*
X170714950Y-100947963D01*
X170730603Y-101036441D01*
X170666495Y-101137145D01*
X170595152Y-101189132D01*
X170512423Y-101172078D01*
X170504964Y-101167736D01*
X170443552Y-101085102D01*
X170434757Y-100973878D01*
X170482747Y-100875702D01*
X170522701Y-100841458D01*
X170588449Y-100830703D01*
X170668892Y-100892052D01*
G37*
G36*
X171968852Y-103293338D02*
G01*
X172048558Y-103386131D01*
X172065840Y-103425928D01*
X172096024Y-103618316D01*
X172038309Y-103813142D01*
X171973194Y-103909182D01*
X171867760Y-103971190D01*
X171747876Y-103946925D01*
X171694600Y-103900655D01*
X171639678Y-103777917D01*
X171625239Y-103620443D01*
X171652393Y-103455713D01*
X171722246Y-103311208D01*
X171762381Y-103274345D01*
X171863143Y-103253708D01*
X171968852Y-103293338D01*
G37*
G36*
X171931971Y-108350670D02*
G01*
X172015506Y-108387968D01*
X172102005Y-108469585D01*
X172167082Y-108601757D01*
X172155959Y-108751481D01*
X172063293Y-108922703D01*
X171976751Y-109009545D01*
X171864387Y-109046793D01*
X171763393Y-109011027D01*
X171690517Y-108909487D01*
X171662504Y-108749412D01*
X171678501Y-108632233D01*
X171738229Y-108492532D01*
X171826517Y-108390171D01*
X171926629Y-108350433D01*
X171931971Y-108350670D01*
G37*
G36*
X172398659Y-104556207D02*
G01*
X172487289Y-104652686D01*
X172516272Y-104764442D01*
X172504965Y-104906469D01*
X172457265Y-105041089D01*
X172383063Y-105141508D01*
X172292252Y-105180936D01*
X172290706Y-105180929D01*
X172179198Y-105141883D01*
X172100499Y-105042428D01*
X172061382Y-104905998D01*
X172068618Y-104756027D01*
X172128979Y-104615947D01*
X172173786Y-104568439D01*
X172284552Y-104527139D01*
X172398659Y-104556207D01*
G37*
G36*
X189158567Y-106183873D02*
G01*
X189180448Y-106231568D01*
X189146750Y-106294416D01*
X189047341Y-106387594D01*
X189006622Y-106421317D01*
X188917979Y-106482964D01*
X188849341Y-106497417D01*
X188768184Y-106474839D01*
X188720173Y-106442391D01*
X188704281Y-106366638D01*
X188763336Y-106282491D01*
X188781731Y-106269467D01*
X188876180Y-106226529D01*
X188993563Y-106192189D01*
X189099239Y-106175089D01*
X189158567Y-106183873D01*
G37*
G36*
X178384101Y-110834422D02*
G01*
X178410665Y-110869886D01*
X178470823Y-111033152D01*
X178468733Y-111222301D01*
X178407595Y-111411946D01*
X178290605Y-111576702D01*
X178235790Y-111620711D01*
X178133988Y-111647258D01*
X178044193Y-111607552D01*
X177972786Y-111515976D01*
X177926145Y-111386910D01*
X177910652Y-111234734D01*
X177932685Y-111073828D01*
X177998626Y-110918575D01*
X178049686Y-110845556D01*
X178160474Y-110755056D01*
X178272988Y-110751117D01*
X178384101Y-110834422D01*
G37*
G36*
X173010485Y-105870121D02*
G01*
X173094227Y-105985849D01*
X173129610Y-106068458D01*
X173152175Y-106145856D01*
X173144654Y-106218152D01*
X173108957Y-106329913D01*
X173037540Y-106490041D01*
X172934546Y-106598842D01*
X172802718Y-106633622D01*
X172742660Y-106625907D01*
X172636698Y-106559919D01*
X172570648Y-106442378D01*
X172546108Y-106292658D01*
X172564676Y-106130128D01*
X172627954Y-105974162D01*
X172737539Y-105844131D01*
X172783560Y-105816713D01*
X172898376Y-105810344D01*
X173010485Y-105870121D01*
G37*
G36*
X189073129Y-96553191D02*
G01*
X189076788Y-96556271D01*
X189132486Y-96636095D01*
X189110859Y-96723553D01*
X189009273Y-96830073D01*
X188902223Y-96897180D01*
X188757821Y-96958559D01*
X188605727Y-97004624D01*
X188474449Y-97026764D01*
X188392497Y-97016369D01*
X188370455Y-96997634D01*
X188347303Y-96912179D01*
X188385862Y-96800249D01*
X188480555Y-96682954D01*
X188519099Y-96650929D01*
X188662125Y-96571869D01*
X188821700Y-96524942D01*
X188968481Y-96516575D01*
X189073129Y-96553191D01*
G37*
G36*
X189687409Y-103468493D02*
G01*
X189786828Y-103513509D01*
X189819340Y-103586466D01*
X189777176Y-103665963D01*
X189665109Y-103741715D01*
X189492285Y-103807658D01*
X189267847Y-103857725D01*
X189244508Y-103861516D01*
X189079999Y-103887677D01*
X188982861Y-103898483D01*
X188935391Y-103891986D01*
X188919890Y-103866237D01*
X188918657Y-103819288D01*
X188955135Y-103729770D01*
X189058126Y-103639019D01*
X189205296Y-103559610D01*
X189374196Y-103499449D01*
X189542383Y-103466441D01*
X189687409Y-103468493D01*
G37*
G36*
X168442640Y-109963919D02*
G01*
X168607461Y-110084852D01*
X168633662Y-110112575D01*
X168737765Y-110287347D01*
X168756625Y-110483068D01*
X168690389Y-110700827D01*
X168666115Y-110745866D01*
X168539960Y-110883520D01*
X168378306Y-110962294D01*
X168201514Y-110982376D01*
X168029940Y-110943956D01*
X167883945Y-110847225D01*
X167783887Y-110692373D01*
X167763574Y-110594147D01*
X167783995Y-110414947D01*
X167860599Y-110233120D01*
X167983759Y-110078249D01*
X168107402Y-109985598D01*
X168276607Y-109930841D01*
X168442640Y-109963919D01*
G37*
G36*
X168388022Y-95347437D02*
G01*
X168545242Y-95416937D01*
X168676709Y-95558883D01*
X168680837Y-95565586D01*
X168742543Y-95745317D01*
X168735361Y-95940227D01*
X168667842Y-96126289D01*
X168548534Y-96279480D01*
X168385989Y-96375775D01*
X168325339Y-96391485D01*
X168146304Y-96387205D01*
X167992173Y-96312696D01*
X167876168Y-96181200D01*
X167811507Y-96005958D01*
X167811409Y-95800214D01*
X167836235Y-95700563D01*
X167929154Y-95526945D01*
X168063246Y-95407107D01*
X168221779Y-95345715D01*
X168388022Y-95347437D01*
G37*
G36*
X179342601Y-96727671D02*
G01*
X179401875Y-96802048D01*
X179407525Y-96906596D01*
X179339047Y-97011495D01*
X179203358Y-97107315D01*
X179007376Y-97184628D01*
X178975526Y-97193788D01*
X178726266Y-97257780D01*
X178546739Y-97286508D01*
X178427451Y-97280805D01*
X178358911Y-97241502D01*
X178326650Y-97191261D01*
X178323082Y-97094551D01*
X178401823Y-96997788D01*
X178565516Y-96896562D01*
X178698952Y-96834551D01*
X178908508Y-96757918D01*
X179098330Y-96711801D01*
X179249376Y-96700339D01*
X179342601Y-96727671D01*
G37*
G36*
X188170724Y-93607596D02*
G01*
X188305259Y-93649035D01*
X188356122Y-93684723D01*
X188390407Y-93737077D01*
X188378193Y-93774816D01*
X188310966Y-93857729D01*
X188208950Y-93941595D01*
X188099648Y-94001411D01*
X188083705Y-94007132D01*
X187934212Y-94038216D01*
X187774377Y-94041986D01*
X187636018Y-94020035D01*
X187550949Y-93973953D01*
X187528639Y-93937005D01*
X187532122Y-93849417D01*
X187599384Y-93765269D01*
X187713649Y-93691788D01*
X187858144Y-93636198D01*
X188016094Y-93605726D01*
X188170724Y-93607596D01*
G37*
G36*
X171859204Y-91626662D02*
G01*
X171952120Y-91685970D01*
X172007278Y-91795809D01*
X172005775Y-91931284D01*
X171929186Y-92053508D01*
X171784803Y-92155690D01*
X171579920Y-92231041D01*
X171321830Y-92272772D01*
X171262284Y-92277099D01*
X171117981Y-92279275D01*
X171025256Y-92260322D01*
X170957364Y-92216080D01*
X170897181Y-92137807D01*
X170875624Y-92001776D01*
X170936087Y-91856098D01*
X171009257Y-91784496D01*
X171154706Y-91705059D01*
X171335202Y-91645744D01*
X171527968Y-91610363D01*
X171710228Y-91602731D01*
X171859204Y-91626662D01*
G37*
G36*
X170659757Y-101609422D02*
G01*
X170784482Y-101757421D01*
X170808599Y-101798819D01*
X170847595Y-101899959D01*
X170862941Y-102026613D01*
X170859757Y-102209532D01*
X170850363Y-102335752D01*
X170806409Y-102564298D01*
X170725267Y-102733340D01*
X170600290Y-102859525D01*
X170523988Y-102903622D01*
X170400559Y-102919303D01*
X170294274Y-102866186D01*
X170209064Y-102756101D01*
X170148860Y-102600880D01*
X170117592Y-102412352D01*
X170119191Y-102202350D01*
X170157588Y-101982704D01*
X170236714Y-101765244D01*
X170290253Y-101672474D01*
X170403917Y-101567073D01*
X170529993Y-101546015D01*
X170659757Y-101609422D01*
G37*
G36*
X171387154Y-89199996D02*
G01*
X171398379Y-89311156D01*
X171374813Y-89441020D01*
X171277211Y-89592268D01*
X171115773Y-89711246D01*
X170903367Y-89789213D01*
X170652863Y-89817432D01*
X170578680Y-89809373D01*
X170439756Y-89750406D01*
X170337605Y-89651414D01*
X170297859Y-89532938D01*
X170297982Y-89526695D01*
X170309877Y-89485268D01*
X170351196Y-89449684D01*
X170436078Y-89413752D01*
X170578664Y-89371279D01*
X170793093Y-89316074D01*
X170976179Y-89269884D01*
X171151737Y-89224487D01*
X171280593Y-89189916D01*
X171343353Y-89171274D01*
X171352098Y-89168880D01*
X171387154Y-89199996D01*
G37*
G36*
X179299312Y-108147296D02*
G01*
X179364175Y-108194579D01*
X179425046Y-108256927D01*
X179454185Y-108303440D01*
X179416136Y-108396609D01*
X179309448Y-108492318D01*
X179153895Y-108580728D01*
X178969301Y-108655162D01*
X178775490Y-108708946D01*
X178592286Y-108735403D01*
X178439513Y-108727860D01*
X178336994Y-108679639D01*
X178292836Y-108620995D01*
X178276239Y-108554422D01*
X178276368Y-108553998D01*
X178324942Y-108505967D01*
X178434779Y-108437627D01*
X178584893Y-108359265D01*
X178754298Y-108281163D01*
X178922007Y-108213607D01*
X179067035Y-108166881D01*
X179116887Y-108154323D01*
X179227939Y-108134908D01*
X179299312Y-108147296D01*
G37*
G36*
X187128751Y-112140765D02*
G01*
X187314866Y-112165147D01*
X187576022Y-112208118D01*
X187653008Y-112221326D01*
X187871628Y-112259841D01*
X188055701Y-112293729D01*
X188187792Y-112319721D01*
X188250466Y-112334550D01*
X188273142Y-112362455D01*
X188253023Y-112432026D01*
X188187765Y-112520701D01*
X188092234Y-112609443D01*
X187981294Y-112679220D01*
X187771978Y-112752706D01*
X187533439Y-112778135D01*
X187313588Y-112744004D01*
X187127338Y-112655159D01*
X186989603Y-112516450D01*
X186915298Y-112332723D01*
X186905675Y-112272336D01*
X186906142Y-112200759D01*
X186935842Y-112156412D01*
X187006228Y-112137134D01*
X187128751Y-112140765D01*
G37*
G36*
X179197280Y-106602093D02*
G01*
X179296968Y-106658777D01*
X179328960Y-106695671D01*
X179368554Y-106808400D01*
X179324235Y-106926327D01*
X179195088Y-107050432D01*
X178980201Y-107181692D01*
X178678658Y-107321087D01*
X178551002Y-107374143D01*
X178348345Y-107456845D01*
X178207928Y-107509998D01*
X178117190Y-107536851D01*
X178063571Y-107540652D01*
X178034509Y-107524650D01*
X178017443Y-107492093D01*
X178008228Y-107445957D01*
X178043760Y-107326580D01*
X178158357Y-107182548D01*
X178353879Y-107011204D01*
X178413744Y-106965170D01*
X178629115Y-106814969D01*
X178831360Y-106696036D01*
X179003223Y-106617778D01*
X179127441Y-106589601D01*
X179197280Y-106602093D01*
G37*
G36*
X179282399Y-107402394D02*
G01*
X179362618Y-107459012D01*
X179387114Y-107508285D01*
X179408826Y-107583401D01*
X179375881Y-107658245D01*
X179265259Y-107755534D01*
X179084385Y-107863776D01*
X178841157Y-107977488D01*
X178776521Y-108005149D01*
X178606184Y-108081794D01*
X178467005Y-108149588D01*
X178384209Y-108196443D01*
X178383840Y-108196701D01*
X178248740Y-108255517D01*
X178125684Y-108249421D01*
X178036120Y-108185462D01*
X178001499Y-108070688D01*
X178011791Y-108015565D01*
X178084387Y-107901495D01*
X178213199Y-107783926D01*
X178382438Y-107669954D01*
X178576314Y-107566674D01*
X178779037Y-107481183D01*
X178974819Y-107420575D01*
X179147869Y-107391947D01*
X179282399Y-107402394D01*
G37*
G36*
X186453492Y-113976639D02*
G01*
X186475727Y-113978948D01*
X186600723Y-113996378D01*
X186779372Y-114025011D01*
X186988240Y-114060683D01*
X187203892Y-114099231D01*
X187402891Y-114136491D01*
X187561804Y-114168299D01*
X187657195Y-114190492D01*
X187668456Y-114193872D01*
X187705557Y-114216479D01*
X187689950Y-114258850D01*
X187616065Y-114341414D01*
X187609993Y-114347641D01*
X187446307Y-114469291D01*
X187237821Y-114564556D01*
X187019553Y-114620835D01*
X186826524Y-114625526D01*
X186783156Y-114618053D01*
X186562607Y-114543299D01*
X186400024Y-114421624D01*
X186304793Y-114262580D01*
X186286302Y-114075722D01*
X186301802Y-114007755D01*
X186348628Y-113975312D01*
X186453492Y-113976639D01*
G37*
G36*
X179281635Y-95173384D02*
G01*
X179315491Y-95237591D01*
X179334371Y-95312291D01*
X179319817Y-95414437D01*
X179245611Y-95511243D01*
X179103340Y-95612268D01*
X178884590Y-95727069D01*
X178811384Y-95762666D01*
X178624090Y-95857019D01*
X178458445Y-95944685D01*
X178343535Y-96010430D01*
X178272424Y-96049713D01*
X178127874Y-96101359D01*
X178007922Y-96109250D01*
X177936267Y-96069923D01*
X177925219Y-96024491D01*
X177961068Y-95921571D01*
X178054478Y-95795796D01*
X178192185Y-95657768D01*
X178360923Y-95518092D01*
X178547426Y-95387372D01*
X178738431Y-95276209D01*
X178920672Y-95195208D01*
X179080884Y-95154973D01*
X179117994Y-95151011D01*
X179225326Y-95147877D01*
X179281635Y-95173384D01*
G37*
G36*
X179254431Y-95921482D02*
G01*
X179296968Y-95961723D01*
X179336403Y-96015704D01*
X179366144Y-96111883D01*
X179362755Y-96131919D01*
X179312238Y-96217378D01*
X179223216Y-96312199D01*
X179124179Y-96389099D01*
X179043615Y-96420789D01*
X179008504Y-96430565D01*
X178905435Y-96473058D01*
X178756667Y-96541490D01*
X178581170Y-96627389D01*
X178533061Y-96651366D01*
X178329147Y-96744780D01*
X178185805Y-96790501D01*
X178092024Y-96788864D01*
X178036795Y-96740207D01*
X178009109Y-96644865D01*
X178015466Y-96545975D01*
X178097604Y-96404209D01*
X178263835Y-96265111D01*
X178511831Y-96130485D01*
X178839259Y-96002135D01*
X178901053Y-95981113D01*
X179056348Y-95929632D01*
X179153854Y-95903694D01*
X179213304Y-95901558D01*
X179254431Y-95921482D01*
G37*
G36*
X178432543Y-114160009D02*
G01*
X178519355Y-114261194D01*
X178527990Y-114281111D01*
X178546988Y-114368392D01*
X178536648Y-114477918D01*
X178493551Y-114628485D01*
X178414278Y-114838890D01*
X178307752Y-115075873D01*
X178105136Y-115402371D01*
X177862705Y-115657743D01*
X177574482Y-115849180D01*
X177570421Y-115851272D01*
X177425840Y-115910552D01*
X177321830Y-115910986D01*
X177234279Y-115852835D01*
X177204139Y-115809850D01*
X177169874Y-115683133D01*
X177174710Y-115542068D01*
X177220130Y-115430868D01*
X177257431Y-115393466D01*
X177356038Y-115311620D01*
X177479911Y-115220017D01*
X177669886Y-115059370D01*
X177877087Y-114793998D01*
X178047905Y-114454738D01*
X178103839Y-114334343D01*
X178174439Y-114217036D01*
X178232850Y-114155159D01*
X178315182Y-114130546D01*
X178432543Y-114160009D01*
G37*
G36*
X178426123Y-100448837D02*
G01*
X178661811Y-100563520D01*
X178907509Y-100706789D01*
X179173818Y-100898744D01*
X179378356Y-101102920D01*
X179535561Y-101334431D01*
X179659870Y-101608392D01*
X179689310Y-101717408D01*
X179709553Y-101945679D01*
X179694916Y-102200256D01*
X179648165Y-102448133D01*
X179572064Y-102656304D01*
X179474423Y-102809896D01*
X179302482Y-103011264D01*
X179094006Y-103208833D01*
X178872794Y-103380423D01*
X178662649Y-103503851D01*
X178538231Y-103554066D01*
X178331108Y-103606815D01*
X178139831Y-103621361D01*
X177985170Y-103596930D01*
X177887898Y-103532747D01*
X177856218Y-103481440D01*
X177830145Y-103360563D01*
X177871246Y-103222241D01*
X177982596Y-103050829D01*
X178140836Y-102811536D01*
X178288452Y-102468735D01*
X178350279Y-102121220D01*
X178326209Y-101774621D01*
X178216133Y-101434569D01*
X178019943Y-101106694D01*
X177997394Y-101076098D01*
X177879426Y-100887684D01*
X177830669Y-100736011D01*
X177849293Y-100608038D01*
X177933467Y-100490720D01*
X177976300Y-100452831D01*
X178096219Y-100394777D01*
X178241876Y-100393017D01*
X178426123Y-100448837D01*
G37*
G36*
X162330641Y-105972314D02*
G01*
X162426784Y-106072253D01*
X162462157Y-106224286D01*
X162462157Y-106382228D01*
X162737412Y-106356525D01*
X162819276Y-106347671D01*
X163002102Y-106324569D01*
X163236209Y-106292478D01*
X163500087Y-106254378D01*
X163772224Y-106213246D01*
X163996297Y-106178887D01*
X164213077Y-106147452D01*
X164367803Y-106128877D01*
X164474359Y-106122459D01*
X164546634Y-106127496D01*
X164598511Y-106143283D01*
X164643878Y-106169119D01*
X164729566Y-106243600D01*
X164795878Y-106339048D01*
X164804126Y-106363909D01*
X164823363Y-106485244D01*
X164826526Y-106629192D01*
X164817108Y-106727802D01*
X164791968Y-106808893D01*
X164740999Y-106873055D01*
X164653917Y-106924677D01*
X164520436Y-106968152D01*
X164330273Y-107007869D01*
X164073143Y-107048219D01*
X163738761Y-107093594D01*
X163485802Y-107126907D01*
X163173842Y-107168342D01*
X162875546Y-107208304D01*
X162615461Y-107243503D01*
X162418137Y-107270648D01*
X162367291Y-107277684D01*
X162062997Y-107315478D01*
X161833340Y-107332451D01*
X161668179Y-107325862D01*
X161557374Y-107292974D01*
X161490783Y-107231048D01*
X161458265Y-107137346D01*
X161449679Y-107009129D01*
X161458897Y-106922920D01*
X161504868Y-106753637D01*
X161579914Y-106560308D01*
X161673322Y-106364657D01*
X161774383Y-106188407D01*
X161872385Y-106053281D01*
X161956618Y-105981001D01*
X162015913Y-105957533D01*
X162188695Y-105931673D01*
X162330641Y-105972314D01*
G37*
G36*
X177486797Y-112004475D02*
G01*
X177685262Y-112051677D01*
X177847052Y-112176334D01*
X177968640Y-112374559D01*
X178046499Y-112642461D01*
X178075544Y-112987637D01*
X178042266Y-113380863D01*
X177947116Y-113769575D01*
X177795015Y-114124767D01*
X177731944Y-114227428D01*
X177586364Y-114410239D01*
X177419082Y-114571099D01*
X177250810Y-114691255D01*
X177102261Y-114751956D01*
X177017993Y-114761140D01*
X176818342Y-114725894D01*
X176642041Y-114612063D01*
X176496585Y-114425737D01*
X176389472Y-114173004D01*
X176344740Y-113957896D01*
X176339040Y-113688436D01*
X176827284Y-113688436D01*
X176856146Y-113851071D01*
X176919851Y-113956542D01*
X177017017Y-114014808D01*
X177127539Y-114000887D01*
X177243140Y-113920913D01*
X177355542Y-113781020D01*
X177456465Y-113587345D01*
X177537632Y-113346021D01*
X177559429Y-113260669D01*
X177592808Y-113107038D01*
X177600188Y-113003443D01*
X177581527Y-112925881D01*
X177536784Y-112850349D01*
X177504206Y-112813197D01*
X177387770Y-112757552D01*
X177254115Y-112770562D01*
X177130907Y-112852108D01*
X177110511Y-112874893D01*
X176994456Y-113049820D01*
X176903715Y-113261356D01*
X176845566Y-113483046D01*
X176827284Y-113688436D01*
X176339040Y-113688436D01*
X176337506Y-113615938D01*
X176394390Y-113258888D01*
X176509980Y-112906795D01*
X176678864Y-112579706D01*
X176895633Y-112297671D01*
X176933603Y-112258472D01*
X177109369Y-112109492D01*
X177279898Y-112028569D01*
X177387770Y-112014547D01*
X177467686Y-112004159D01*
X177486797Y-112004475D01*
G37*
G36*
X177478361Y-97489521D02*
G01*
X177744130Y-97544825D01*
X177883212Y-97597879D01*
X178155596Y-97745884D01*
X178391614Y-97932640D01*
X178574109Y-98143244D01*
X178685921Y-98362795D01*
X178694744Y-98392476D01*
X178726934Y-98629931D01*
X178709101Y-98888685D01*
X178643632Y-99125696D01*
X178586664Y-99218377D01*
X178481924Y-99344383D01*
X178355126Y-99470569D01*
X178165652Y-99613693D01*
X177847861Y-99770065D01*
X177495665Y-99863701D01*
X177127738Y-99891981D01*
X176762752Y-99852289D01*
X176419379Y-99742004D01*
X176321823Y-99692589D01*
X176101346Y-99541165D01*
X175905089Y-99354980D01*
X175752919Y-99154602D01*
X175684161Y-99003396D01*
X176018031Y-99003396D01*
X176040173Y-99121658D01*
X176122176Y-99225077D01*
X176256021Y-99297998D01*
X176433692Y-99324770D01*
X176467999Y-99323609D01*
X176597325Y-99304497D01*
X176684690Y-99269744D01*
X176772524Y-99181675D01*
X176824519Y-99058042D01*
X176810308Y-98939303D01*
X176741819Y-98836271D01*
X176630979Y-98759756D01*
X176489716Y-98720572D01*
X176329957Y-98729528D01*
X176163631Y-98797437D01*
X176063764Y-98885945D01*
X176018031Y-99003396D01*
X175684161Y-99003396D01*
X175664701Y-98960601D01*
X175658568Y-98936550D01*
X175633952Y-98655188D01*
X175687526Y-98370155D01*
X175813387Y-98100424D01*
X176005630Y-97864967D01*
X176087030Y-97800798D01*
X176233637Y-97708487D01*
X176394740Y-97624703D01*
X176489716Y-97589433D01*
X176557770Y-97564160D01*
X176851551Y-97501179D01*
X177169625Y-97475636D01*
X177478361Y-97489521D01*
G37*
G36*
X173142089Y-113451156D02*
G01*
X173180001Y-113545357D01*
X173223362Y-113652610D01*
X173295161Y-113811863D01*
X173375993Y-113978513D01*
X173388424Y-114003033D01*
X173467364Y-114145929D01*
X173542136Y-114238388D01*
X173640229Y-114307021D01*
X173789137Y-114378440D01*
X173926477Y-114436021D01*
X174114573Y-114506489D01*
X174270736Y-114556291D01*
X174342959Y-114578083D01*
X174441282Y-114617893D01*
X174479835Y-114649431D01*
X174472507Y-114661443D01*
X174406015Y-114697511D01*
X174292747Y-114734180D01*
X174239278Y-114748135D01*
X173939383Y-114836321D01*
X173721317Y-114920788D01*
X173579868Y-115003503D01*
X173520340Y-115058980D01*
X173396085Y-115222608D01*
X173283444Y-115428545D01*
X173200075Y-115646880D01*
X173183456Y-115699935D01*
X173146064Y-115795773D01*
X173119228Y-115833563D01*
X173107278Y-115821526D01*
X173063164Y-115746886D01*
X172997882Y-115619160D01*
X172920705Y-115455985D01*
X172808553Y-115231509D01*
X172694381Y-115065160D01*
X172560439Y-114946427D01*
X172385099Y-114856302D01*
X172146733Y-114775778D01*
X172102930Y-114762666D01*
X171908356Y-114698882D01*
X171795409Y-114649406D01*
X171760043Y-114612015D01*
X171798211Y-114584490D01*
X171802836Y-114583040D01*
X171882185Y-114559162D01*
X172016554Y-114519477D01*
X172179613Y-114471769D01*
X172280752Y-114439240D01*
X172495609Y-114346816D01*
X172651932Y-114244228D01*
X172666620Y-114230641D01*
X172775260Y-114098482D01*
X172892574Y-113911900D01*
X173003648Y-113696742D01*
X173093567Y-113478856D01*
X173117112Y-113432337D01*
X173142089Y-113451156D01*
G37*
G36*
X177359002Y-104227571D02*
G01*
X177646510Y-104264476D01*
X177891447Y-104329342D01*
X177953964Y-104356069D01*
X178137564Y-104467275D01*
X178323726Y-104618649D01*
X178492124Y-104790304D01*
X178622431Y-104962351D01*
X178694322Y-105114904D01*
X178703727Y-105151581D01*
X178739592Y-105352039D01*
X178732951Y-105524964D01*
X178682985Y-105713662D01*
X178618978Y-105851889D01*
X178459678Y-106064665D01*
X178241589Y-106262594D01*
X177981767Y-106428295D01*
X177880011Y-106480036D01*
X177782002Y-106521494D01*
X177683357Y-106547252D01*
X177562226Y-106561036D01*
X177396759Y-106566573D01*
X177165104Y-106567591D01*
X176960703Y-106566871D01*
X176786329Y-106562000D01*
X176657809Y-106549112D01*
X176552483Y-106524348D01*
X176447695Y-106483846D01*
X176320787Y-106423746D01*
X176050281Y-106257270D01*
X175833948Y-106043306D01*
X175694914Y-105798832D01*
X175687656Y-105765910D01*
X176028445Y-105765910D01*
X176066622Y-105888928D01*
X176162381Y-105981315D01*
X176297221Y-106037105D01*
X176452643Y-106050330D01*
X176610147Y-106015026D01*
X176751233Y-105925224D01*
X176814079Y-105852018D01*
X176854321Y-105726633D01*
X176808851Y-105609968D01*
X176679084Y-105510165D01*
X176580259Y-105471693D01*
X176404038Y-105453113D01*
X176239183Y-105488564D01*
X176108984Y-105571354D01*
X176036729Y-105694789D01*
X176028445Y-105765910D01*
X175687656Y-105765910D01*
X175635860Y-105530980D01*
X175659465Y-105246883D01*
X175768409Y-104953673D01*
X175816747Y-104868358D01*
X176024497Y-104616013D01*
X176300733Y-104418378D01*
X176404038Y-104375650D01*
X176644495Y-104276196D01*
X176792049Y-104243428D01*
X177062867Y-104220073D01*
X177359002Y-104227571D01*
G37*
G36*
X170331465Y-114849187D02*
G01*
X170377224Y-114929723D01*
X170437944Y-115064268D01*
X170504499Y-115233452D01*
X170532258Y-115306640D01*
X170607851Y-115489649D01*
X170679928Y-115644270D01*
X170736013Y-115743041D01*
X170796973Y-115816320D01*
X170988483Y-115973939D01*
X171242098Y-116114730D01*
X171539918Y-116227898D01*
X171554287Y-116232291D01*
X171725123Y-116285919D01*
X171872655Y-116334529D01*
X171966341Y-116368080D01*
X172004564Y-116385865D01*
X172039813Y-116425743D01*
X171998624Y-116466164D01*
X171877244Y-116509552D01*
X171671922Y-116558331D01*
X171507991Y-116597955D01*
X171150005Y-116730983D01*
X170840740Y-116921289D01*
X170772196Y-116990467D01*
X170667710Y-117133384D01*
X170556659Y-117315036D01*
X170452751Y-117510975D01*
X170369693Y-117696753D01*
X170321194Y-117847920D01*
X170318545Y-117859841D01*
X170287620Y-117952851D01*
X170255681Y-117990988D01*
X170253824Y-117990944D01*
X170234170Y-117981943D01*
X170211217Y-117947286D01*
X170178612Y-117872581D01*
X170130002Y-117743434D01*
X170059034Y-117545452D01*
X170040170Y-117495863D01*
X169902990Y-117233238D01*
X169719187Y-116989243D01*
X169514051Y-116798540D01*
X169384206Y-116722169D01*
X169182875Y-116635581D01*
X168952727Y-116560845D01*
X168872885Y-116538468D01*
X168713686Y-116491126D01*
X168597983Y-116452901D01*
X168546589Y-116430474D01*
X168535857Y-116402452D01*
X168581900Y-116360146D01*
X168704867Y-116312882D01*
X168910033Y-116258156D01*
X169273403Y-116141626D01*
X169591137Y-115967157D01*
X169846190Y-115734668D01*
X170044489Y-115438680D01*
X170191964Y-115073715D01*
X170233192Y-114958905D01*
X170280684Y-114865211D01*
X170316864Y-114835162D01*
X170331465Y-114849187D01*
G37*
G36*
X162851059Y-100082487D02*
G01*
X163276010Y-100128682D01*
X163701409Y-100248632D01*
X163732818Y-100261122D01*
X163931730Y-100368167D01*
X164134434Y-100516831D01*
X164319786Y-100687957D01*
X164466642Y-100862389D01*
X164553859Y-101020970D01*
X164584499Y-101136077D01*
X164612739Y-101373792D01*
X164609391Y-101624553D01*
X164573408Y-101844308D01*
X164507603Y-102011374D01*
X164341989Y-102245409D01*
X164105238Y-102449047D01*
X163806364Y-102615101D01*
X163454382Y-102736387D01*
X163414813Y-102746149D01*
X163044583Y-102799877D01*
X162680384Y-102789921D01*
X162332237Y-102721997D01*
X162010160Y-102601818D01*
X161724174Y-102435102D01*
X161484298Y-102227562D01*
X161300553Y-101984915D01*
X161182958Y-101712875D01*
X161141533Y-101417157D01*
X161977929Y-101417157D01*
X161984122Y-101473462D01*
X162053854Y-101608052D01*
X162188850Y-101722367D01*
X162373758Y-101813641D01*
X162593225Y-101879106D01*
X162831900Y-101915996D01*
X163074431Y-101921542D01*
X163305467Y-101892979D01*
X163509656Y-101827537D01*
X163671646Y-101722452D01*
X163710175Y-101681129D01*
X163774513Y-101541867D01*
X163764877Y-101393642D01*
X163688165Y-101251492D01*
X163551278Y-101130458D01*
X163361115Y-101045577D01*
X163340883Y-101039918D01*
X163105368Y-100992646D01*
X162851059Y-100968648D01*
X162611989Y-100969670D01*
X162422186Y-100997456D01*
X162280871Y-101052444D01*
X162125562Y-101158007D01*
X162018085Y-101285715D01*
X161977929Y-101417157D01*
X161141533Y-101417157D01*
X161143559Y-101356901D01*
X161202568Y-101076766D01*
X161334246Y-100805967D01*
X161526460Y-100560712D01*
X161767076Y-100357210D01*
X162043960Y-100211670D01*
X162047154Y-100210453D01*
X162432203Y-100109220D01*
X162847381Y-100082087D01*
X162851059Y-100082487D01*
G37*
G36*
X163014159Y-103005675D02*
G01*
X163137681Y-103008104D01*
X163339300Y-103023087D01*
X163502078Y-103053831D01*
X163655354Y-103104601D01*
X163987751Y-103265894D01*
X164257790Y-103462485D01*
X164455571Y-103686783D01*
X164573809Y-103932226D01*
X164600822Y-104069028D01*
X164613739Y-104289697D01*
X164601863Y-104518846D01*
X164565642Y-104713610D01*
X164558592Y-104735776D01*
X164448475Y-104941576D01*
X164268271Y-105141978D01*
X164033949Y-105326058D01*
X163761476Y-105482894D01*
X163466820Y-105601561D01*
X163165951Y-105671136D01*
X163011076Y-105685442D01*
X162729276Y-105685185D01*
X162439986Y-105658473D01*
X162174553Y-105608744D01*
X161964321Y-105539433D01*
X161934847Y-105525524D01*
X161687656Y-105368354D01*
X161459896Y-105158016D01*
X161284291Y-104924120D01*
X161222087Y-104806653D01*
X161185061Y-104694406D01*
X161168097Y-104558378D01*
X161164306Y-104366551D01*
X161164327Y-104362271D01*
X161975682Y-104362271D01*
X162009699Y-104503358D01*
X162131060Y-104645954D01*
X162151889Y-104663716D01*
X162291146Y-104754365D01*
X162453916Y-104807084D01*
X162660501Y-104826188D01*
X162931206Y-104815991D01*
X163127327Y-104791309D01*
X163396257Y-104717333D01*
X163605398Y-104605025D01*
X163742897Y-104459588D01*
X163787518Y-104385591D01*
X163817505Y-104315294D01*
X163807751Y-104254433D01*
X163760635Y-104163240D01*
X163655091Y-104046266D01*
X163481098Y-103953689D01*
X163261206Y-103893460D01*
X163014159Y-103866280D01*
X162758702Y-103872853D01*
X162513578Y-103913881D01*
X162297534Y-103990066D01*
X162129313Y-104102111D01*
X162028992Y-104218034D01*
X161975682Y-104362271D01*
X161164327Y-104362271D01*
X161164395Y-104348665D01*
X161183663Y-104083449D01*
X161245119Y-103869824D01*
X161361387Y-103678387D01*
X161545093Y-103479733D01*
X161628940Y-103404222D01*
X161896196Y-103220777D01*
X162199891Y-103095936D01*
X162552974Y-103025376D01*
X162968397Y-103004775D01*
X163014159Y-103005675D01*
G37*
G36*
X165891684Y-111168037D02*
G01*
X166034476Y-111199591D01*
X166163291Y-111296440D01*
X166201884Y-111337606D01*
X166272962Y-111456519D01*
X166291967Y-111606688D01*
X166273732Y-111742636D01*
X166200761Y-111868823D01*
X166061674Y-111972330D01*
X165845507Y-112064397D01*
X165712598Y-112111567D01*
X165525833Y-112179128D01*
X165305294Y-112259750D01*
X165065541Y-112348023D01*
X164821132Y-112438540D01*
X164586626Y-112525893D01*
X164376583Y-112604673D01*
X164205562Y-112669473D01*
X164088121Y-112714885D01*
X164038819Y-112735500D01*
X164037783Y-112736362D01*
X164038651Y-112788371D01*
X164066660Y-112898057D01*
X164116176Y-113043016D01*
X164165757Y-113181410D01*
X164194972Y-113294162D01*
X164194731Y-113374526D01*
X164168407Y-113448688D01*
X164162389Y-113460516D01*
X164060925Y-113575162D01*
X163915223Y-113653556D01*
X163752149Y-113689441D01*
X163598566Y-113676563D01*
X163481339Y-113608667D01*
X163480760Y-113608040D01*
X163450010Y-113572206D01*
X163420426Y-113528799D01*
X163387428Y-113467124D01*
X163346432Y-113376486D01*
X163292859Y-113246190D01*
X163222125Y-113065540D01*
X163129650Y-112823841D01*
X163010851Y-112510398D01*
X162945370Y-112336327D01*
X162854256Y-112087539D01*
X162790608Y-111900248D01*
X162750972Y-111761605D01*
X162731890Y-111658757D01*
X162729907Y-111578854D01*
X162741567Y-111509045D01*
X162766786Y-111451876D01*
X162870352Y-111351985D01*
X163024271Y-111282110D01*
X163203802Y-111255806D01*
X163239031Y-111256607D01*
X163354044Y-111279331D01*
X163441117Y-111344412D01*
X163514311Y-111466693D01*
X163587685Y-111661015D01*
X163615601Y-111736709D01*
X163662953Y-111834025D01*
X163699310Y-111872097D01*
X163723653Y-111866120D01*
X163822053Y-111834862D01*
X163983552Y-111780496D01*
X164196137Y-111707141D01*
X164447801Y-111618913D01*
X164726531Y-111519930D01*
X164876533Y-111466966D01*
X165160423Y-111370232D01*
X165415465Y-111287828D01*
X165628252Y-111223870D01*
X165785374Y-111182477D01*
X165873426Y-111167764D01*
X165891684Y-111168037D01*
G37*
G36*
X166794146Y-112857612D02*
G01*
X166869164Y-112903724D01*
X166973872Y-113018824D01*
X167089173Y-113183624D01*
X167204803Y-113380478D01*
X167310498Y-113591740D01*
X167395994Y-113799764D01*
X167451027Y-113986905D01*
X167452704Y-113995932D01*
X167461144Y-114101647D01*
X167463477Y-114260148D01*
X167459152Y-114440746D01*
X167440031Y-114633185D01*
X167350210Y-114970199D01*
X167195705Y-115266366D01*
X166983445Y-115506164D01*
X166980498Y-115508708D01*
X166640249Y-115754264D01*
X166282782Y-115924562D01*
X165917703Y-116019110D01*
X165554617Y-116037413D01*
X165203130Y-115978978D01*
X164872847Y-115843314D01*
X164573373Y-115629925D01*
X164388454Y-115440785D01*
X164213508Y-115218415D01*
X164060009Y-114981312D01*
X163936052Y-114744940D01*
X163914498Y-114689964D01*
X164913264Y-114689964D01*
X164921122Y-114721864D01*
X165002269Y-114837881D01*
X165179872Y-114989580D01*
X165393827Y-115086815D01*
X165425543Y-115095438D01*
X165554830Y-115119409D01*
X165673607Y-115111554D01*
X165827448Y-115070119D01*
X165950045Y-115025256D01*
X166180009Y-114903809D01*
X166362555Y-114755618D01*
X166477397Y-114595497D01*
X166494813Y-114555026D01*
X166545553Y-114389551D01*
X166570499Y-114223282D01*
X166570728Y-114073505D01*
X166547315Y-113957507D01*
X166501337Y-113892578D01*
X166433868Y-113896002D01*
X166375666Y-113925543D01*
X166250225Y-113986873D01*
X166072738Y-114072568D01*
X165857307Y-114175823D01*
X165618029Y-114289832D01*
X165452713Y-114368702D01*
X165235211Y-114474637D01*
X165082249Y-114553697D01*
X164984093Y-114611915D01*
X164931010Y-114655326D01*
X164913264Y-114689964D01*
X163914498Y-114689964D01*
X163849729Y-114524766D01*
X163809134Y-114336254D01*
X163822361Y-114194869D01*
X163833191Y-114168424D01*
X163868610Y-114107358D01*
X163924477Y-114050820D01*
X164013029Y-113991310D01*
X164146503Y-113921328D01*
X164337136Y-113833372D01*
X164597166Y-113719942D01*
X164658496Y-113693439D01*
X164913612Y-113581911D01*
X165207910Y-113451734D01*
X165509653Y-113316995D01*
X165787105Y-113191780D01*
X166025225Y-113084332D01*
X166254912Y-112983802D01*
X166427550Y-112913823D01*
X166501337Y-112888720D01*
X166555465Y-112870305D01*
X166650985Y-112849157D01*
X166726437Y-112846290D01*
X166794146Y-112857612D01*
G37*
G36*
X164047792Y-97301451D02*
G01*
X164108026Y-97319842D01*
X164285147Y-97406691D01*
X164401350Y-97519965D01*
X164443093Y-97647799D01*
X164441500Y-97677862D01*
X164425255Y-97801099D01*
X164395209Y-97971564D01*
X164356004Y-98161848D01*
X164337996Y-98244902D01*
X164302413Y-98419844D01*
X164277559Y-98557567D01*
X164267963Y-98633786D01*
X164295235Y-98699976D01*
X164399805Y-98764262D01*
X164587281Y-98818004D01*
X164684814Y-98854553D01*
X164796379Y-98931102D01*
X164857654Y-99027502D01*
X164879812Y-99198087D01*
X164834650Y-99408571D01*
X164834164Y-99409963D01*
X164778101Y-99521690D01*
X164692782Y-99590292D01*
X164559100Y-99624817D01*
X164357946Y-99634315D01*
X164261776Y-99636461D01*
X164133923Y-99653274D01*
X164090927Y-99686504D01*
X164075194Y-99747592D01*
X163996093Y-99842121D01*
X163875266Y-99913943D01*
X163740882Y-99942461D01*
X163719217Y-99942129D01*
X163539936Y-99903560D01*
X163420219Y-99800296D01*
X163359026Y-99631489D01*
X163342901Y-99548217D01*
X163308950Y-99479611D01*
X163238044Y-99436523D01*
X163105770Y-99396281D01*
X163077988Y-99389056D01*
X162931435Y-99354981D01*
X162727853Y-99311480D01*
X162490355Y-99263391D01*
X162242053Y-99215550D01*
X161963133Y-99160573D01*
X161735627Y-99107631D01*
X161576182Y-99057762D01*
X161474743Y-99007019D01*
X161421253Y-98951452D01*
X161405658Y-98887113D01*
X161405762Y-98877044D01*
X161423182Y-98724100D01*
X161463483Y-98549431D01*
X161491907Y-98463897D01*
X162748293Y-98463897D01*
X163113414Y-98548254D01*
X163179164Y-98563045D01*
X163336052Y-98594754D01*
X163449525Y-98612444D01*
X163498546Y-98612600D01*
X163506826Y-98595752D01*
X163530441Y-98512114D01*
X163556943Y-98387110D01*
X163573420Y-98286909D01*
X163571023Y-98218277D01*
X163535698Y-98189305D01*
X163455234Y-98198234D01*
X163317420Y-98243306D01*
X163110044Y-98322763D01*
X162748293Y-98463897D01*
X161491907Y-98463897D01*
X161516621Y-98389528D01*
X161572551Y-98280878D01*
X161576310Y-98276175D01*
X161626534Y-98231656D01*
X161715332Y-98175528D01*
X161849916Y-98104323D01*
X162037502Y-98014575D01*
X162285302Y-97902815D01*
X162600533Y-97765577D01*
X162990407Y-97599393D01*
X163154975Y-97530216D01*
X163410951Y-97426051D01*
X163535698Y-97379624D01*
X163606791Y-97353166D01*
X163755445Y-97307913D01*
X163869863Y-97286642D01*
X163962996Y-97285704D01*
X164047792Y-97301451D01*
G37*
G36*
X162909204Y-94269824D02*
G01*
X163043812Y-94289191D01*
X163218806Y-94326545D01*
X163441486Y-94383185D01*
X163719151Y-94460412D01*
X164059101Y-94559522D01*
X164468635Y-94681817D01*
X164955052Y-94828594D01*
X165064899Y-94861948D01*
X165303854Y-94936520D01*
X165476903Y-94995554D01*
X165597718Y-95045152D01*
X165679969Y-95091415D01*
X165737330Y-95140448D01*
X165783470Y-95198350D01*
X165825676Y-95276544D01*
X165846856Y-95441709D01*
X165792547Y-95640842D01*
X165741276Y-95744277D01*
X165659180Y-95840207D01*
X165549671Y-95889633D01*
X165399766Y-95894638D01*
X165196486Y-95857305D01*
X164926852Y-95779714D01*
X164860276Y-95758617D01*
X164694991Y-95705657D01*
X164566988Y-95663816D01*
X164499631Y-95640699D01*
X164494662Y-95639304D01*
X164491439Y-95666493D01*
X164535821Y-95750010D01*
X164620743Y-95879546D01*
X164739142Y-96044790D01*
X164883953Y-96235434D01*
X165048113Y-96441168D01*
X165117352Y-96528271D01*
X165228879Y-96679605D01*
X165311217Y-96805834D01*
X165350240Y-96886150D01*
X165347820Y-97034289D01*
X165283435Y-97192118D01*
X165175095Y-97334556D01*
X165041085Y-97437612D01*
X164899690Y-97477296D01*
X164868344Y-97474338D01*
X164802561Y-97448865D01*
X164723538Y-97390794D01*
X164623702Y-97292307D01*
X164495478Y-97145584D01*
X164331294Y-96942810D01*
X164123575Y-96676164D01*
X163974274Y-96489175D01*
X163841486Y-96337179D01*
X163740948Y-96238596D01*
X163681548Y-96202941D01*
X163596057Y-96217601D01*
X163483455Y-96261307D01*
X163398318Y-96298742D01*
X163249924Y-96357739D01*
X163060190Y-96429705D01*
X162850175Y-96506487D01*
X162696848Y-96560529D01*
X162512674Y-96620284D01*
X162386049Y-96651843D01*
X162302399Y-96658519D01*
X162247146Y-96643627D01*
X162130726Y-96548821D01*
X162044774Y-96389207D01*
X162023108Y-96200975D01*
X162072004Y-96006936D01*
X162104766Y-95959582D01*
X162189527Y-95892122D01*
X162327960Y-95817576D01*
X162527984Y-95732313D01*
X162797517Y-95632700D01*
X163144480Y-95515106D01*
X163288952Y-95464975D01*
X163426183Y-95410581D01*
X163507449Y-95369483D01*
X163518657Y-95347976D01*
X163482430Y-95336827D01*
X163370209Y-95304289D01*
X163208677Y-95258565D01*
X163019423Y-95205802D01*
X162896390Y-95169833D01*
X162721701Y-95111706D01*
X162588747Y-95058718D01*
X162519355Y-95019020D01*
X162491396Y-94973268D01*
X162469116Y-94847323D01*
X162478518Y-94690049D01*
X162516522Y-94532551D01*
X162580049Y-94405936D01*
X162586502Y-94397344D01*
X162628662Y-94346257D01*
X162674713Y-94306662D01*
X162731955Y-94279859D01*
X162807685Y-94267147D01*
X162909204Y-94269824D01*
G37*
G36*
X164606178Y-90434466D02*
G01*
X164692593Y-90459270D01*
X164843523Y-90517375D01*
X165046917Y-90603069D01*
X165290727Y-90710643D01*
X165562902Y-90834385D01*
X165851392Y-90968586D01*
X166144147Y-91107535D01*
X166429117Y-91245522D01*
X166694253Y-91376837D01*
X166927504Y-91495768D01*
X167116821Y-91596607D01*
X167250153Y-91673643D01*
X167315450Y-91721164D01*
X167366732Y-91800574D01*
X167389837Y-91956793D01*
X167333703Y-92132822D01*
X167199897Y-92320528D01*
X167195362Y-92325535D01*
X167097731Y-92417515D01*
X167000597Y-92464479D01*
X166884583Y-92467014D01*
X166730312Y-92425706D01*
X166518408Y-92341140D01*
X166460174Y-92315923D01*
X166252533Y-92222844D01*
X166053893Y-92129696D01*
X165900436Y-92053332D01*
X165789714Y-91997513D01*
X165692246Y-91953729D01*
X165649629Y-91942049D01*
X165651878Y-91952610D01*
X165688208Y-92020495D01*
X165759043Y-92135975D01*
X165854071Y-92281908D01*
X165929324Y-92399844D01*
X166030516Y-92595853D01*
X166069985Y-92753480D01*
X166049998Y-92886586D01*
X165972816Y-93009035D01*
X165971034Y-93011084D01*
X165820179Y-93118244D01*
X165592944Y-93183405D01*
X165290494Y-93206229D01*
X165201121Y-93209218D01*
X165099155Y-93221665D01*
X165059510Y-93240294D01*
X165063373Y-93245774D01*
X165124044Y-93282683D01*
X165246982Y-93343538D01*
X165417465Y-93421292D01*
X165620775Y-93508902D01*
X165821179Y-93594993D01*
X166048176Y-93701315D01*
X166207876Y-93791397D01*
X166309960Y-93871894D01*
X166364110Y-93949460D01*
X166380008Y-94030751D01*
X166352537Y-94196318D01*
X166276685Y-94366781D01*
X166168292Y-94515268D01*
X166043232Y-94620193D01*
X165917378Y-94659965D01*
X165915804Y-94659953D01*
X165817228Y-94641811D01*
X165671005Y-94595756D01*
X165508185Y-94531533D01*
X165341151Y-94458601D01*
X164972387Y-94296584D01*
X164617805Y-94139500D01*
X164286918Y-93991652D01*
X163989234Y-93857346D01*
X163734266Y-93740885D01*
X163531524Y-93646573D01*
X163390520Y-93578715D01*
X163320763Y-93541614D01*
X163298301Y-93525447D01*
X163196515Y-93394903D01*
X163149886Y-93222395D01*
X163157997Y-93030421D01*
X163220430Y-92841477D01*
X163336769Y-92678061D01*
X163367003Y-92649298D01*
X163436191Y-92600040D01*
X163524530Y-92567885D01*
X163654965Y-92546133D01*
X163850444Y-92528085D01*
X163953892Y-92519480D01*
X164193102Y-92495863D01*
X164412724Y-92469439D01*
X164595709Y-92442601D01*
X164725009Y-92417738D01*
X164783576Y-92397241D01*
X164782742Y-92388532D01*
X164748871Y-92321827D01*
X164676197Y-92201664D01*
X164573008Y-92041428D01*
X164447590Y-91854506D01*
X164383889Y-91760477D01*
X164240595Y-91537062D01*
X164146636Y-91361177D01*
X164098002Y-91217046D01*
X164090681Y-91088891D01*
X164120663Y-90960934D01*
X164183936Y-90817397D01*
X164238080Y-90716048D01*
X164352247Y-90552718D01*
X164469037Y-90462001D01*
X164599204Y-90433968D01*
X164606178Y-90434466D01*
G37*
G36*
X164884387Y-107424868D02*
G01*
X164999744Y-107542582D01*
X165060953Y-107692958D01*
X165063916Y-107854659D01*
X165004537Y-108006345D01*
X164878720Y-108126679D01*
X164871283Y-108130948D01*
X164769293Y-108174390D01*
X164605290Y-108230395D01*
X164400290Y-108292199D01*
X164175312Y-108353039D01*
X164162540Y-108356303D01*
X163936521Y-108417648D01*
X163772131Y-108469532D01*
X163677549Y-108509086D01*
X163660956Y-108533440D01*
X163665432Y-108535959D01*
X163742778Y-108563949D01*
X163876865Y-108601509D01*
X164041584Y-108641243D01*
X164079755Y-108650036D01*
X164294066Y-108714382D01*
X164433252Y-108791966D01*
X164508534Y-108891509D01*
X164531135Y-109021733D01*
X164529846Y-109052566D01*
X164510807Y-109128219D01*
X164459751Y-109211177D01*
X164364907Y-109317915D01*
X164214505Y-109464909D01*
X164118639Y-109555069D01*
X164026439Y-109643750D01*
X163978315Y-109700908D01*
X163981190Y-109728382D01*
X164041990Y-109728010D01*
X164167640Y-109701632D01*
X164365064Y-109651086D01*
X164641187Y-109578211D01*
X164710469Y-109560218D01*
X164984181Y-109495465D01*
X165190850Y-109461855D01*
X165343475Y-109460503D01*
X165455052Y-109492526D01*
X165538580Y-109559039D01*
X165607056Y-109661158D01*
X165631738Y-109712287D01*
X165671969Y-109899814D01*
X165635144Y-110069616D01*
X165527748Y-110205406D01*
X165356268Y-110290897D01*
X165320511Y-110300747D01*
X165143417Y-110351229D01*
X164971343Y-110402309D01*
X164958135Y-110406248D01*
X164829046Y-110440979D01*
X164640690Y-110487770D01*
X164416265Y-110540980D01*
X164178968Y-110594968D01*
X164177365Y-110595325D01*
X163917371Y-110653469D01*
X163648483Y-110714115D01*
X163402322Y-110770103D01*
X163210511Y-110814272D01*
X163024355Y-110854404D01*
X162772071Y-110891405D01*
X162581572Y-110889112D01*
X162441120Y-110845154D01*
X162338980Y-110757156D01*
X162263417Y-110622745D01*
X162239837Y-110559624D01*
X162221281Y-110461127D01*
X162235993Y-110364334D01*
X162290759Y-110257529D01*
X162392366Y-110128995D01*
X162547602Y-109967016D01*
X162763254Y-109759875D01*
X162875074Y-109653427D01*
X163029947Y-109501545D01*
X163150771Y-109377427D01*
X163227311Y-109291701D01*
X163249333Y-109254997D01*
X163204581Y-109239652D01*
X163089486Y-109212643D01*
X162922737Y-109178556D01*
X162722534Y-109141318D01*
X162659380Y-109130021D01*
X162395280Y-109080224D01*
X162201152Y-109036808D01*
X162062712Y-108994652D01*
X161965674Y-108948638D01*
X161895756Y-108893645D01*
X161838670Y-108824556D01*
X161829991Y-108811892D01*
X161759132Y-108649262D01*
X161735232Y-108467592D01*
X161758702Y-108297788D01*
X161829954Y-108170758D01*
X161882407Y-108136606D01*
X162017360Y-108077024D01*
X162214954Y-108004320D01*
X162461988Y-107922168D01*
X162745263Y-107834238D01*
X163051579Y-107744202D01*
X163367737Y-107655733D01*
X163680538Y-107572501D01*
X163976781Y-107498179D01*
X164243268Y-107436439D01*
X164466798Y-107390952D01*
X164634173Y-107365390D01*
X164732192Y-107363425D01*
X164884387Y-107424868D01*
G37*
G36*
X186597600Y-86635501D02*
G01*
X186639247Y-86647000D01*
X186723788Y-86693976D01*
X186815380Y-86779780D01*
X186920121Y-86912573D01*
X187044113Y-87100517D01*
X187193455Y-87351771D01*
X187374247Y-87674496D01*
X187464226Y-87844754D01*
X187921809Y-88710589D01*
X188561576Y-90046182D01*
X188883601Y-90807322D01*
X189133194Y-91397262D01*
X189642547Y-92778932D01*
X190095516Y-94206295D01*
X190497985Y-95694454D01*
X190554471Y-95931299D01*
X190632623Y-96282896D01*
X190715384Y-96676754D01*
X190798589Y-97091553D01*
X190878075Y-97505975D01*
X190949677Y-97898702D01*
X191009232Y-98248415D01*
X191052575Y-98533795D01*
X191075846Y-98701483D01*
X191109170Y-98937311D01*
X191139665Y-99148665D01*
X191162840Y-99304159D01*
X191191009Y-99507385D01*
X191227828Y-99823034D01*
X191265045Y-100190159D01*
X191300864Y-100588554D01*
X191333489Y-100998016D01*
X191361125Y-101398340D01*
X191381974Y-101769324D01*
X191392545Y-102048258D01*
X191401281Y-102484876D01*
X191403958Y-102972164D01*
X191400845Y-103488820D01*
X191392212Y-104013540D01*
X191378326Y-104525020D01*
X191359457Y-105001958D01*
X191335873Y-105423050D01*
X191310270Y-105773979D01*
X191180849Y-107069828D01*
X190997185Y-108382126D01*
X190762529Y-109696777D01*
X190480136Y-110999685D01*
X190153257Y-112276753D01*
X189785147Y-113513885D01*
X189379059Y-114696986D01*
X188938246Y-115811958D01*
X188864545Y-115986494D01*
X188775640Y-116199481D01*
X188699277Y-116384988D01*
X188646523Y-116516291D01*
X188631069Y-116554699D01*
X188549672Y-116740533D01*
X188436708Y-116981945D01*
X188300656Y-117261909D01*
X188149995Y-117563398D01*
X187993203Y-117869386D01*
X187838759Y-118162848D01*
X187695142Y-118426758D01*
X187584265Y-118626643D01*
X187440530Y-118886825D01*
X187302044Y-119138491D01*
X187187645Y-119347466D01*
X187110900Y-119483108D01*
X186940135Y-119742457D01*
X186779167Y-119921950D01*
X186623297Y-120026236D01*
X186467830Y-120059965D01*
X186424413Y-120058487D01*
X186328241Y-120036016D01*
X186233425Y-119974322D01*
X186112732Y-119857907D01*
X186022970Y-119760321D01*
X185916082Y-119634035D01*
X185845148Y-119538072D01*
X185833920Y-119520818D01*
X185760783Y-119417712D01*
X185655766Y-119277677D01*
X185537626Y-119125854D01*
X185445992Y-119011809D01*
X185360454Y-118915099D01*
X185299428Y-118868048D01*
X185246550Y-118859075D01*
X185185459Y-118876599D01*
X184884351Y-118990836D01*
X184457200Y-119150832D01*
X184108017Y-119278714D01*
X183837680Y-119374168D01*
X183647064Y-119436880D01*
X183537044Y-119466537D01*
X183456750Y-119476110D01*
X183265480Y-119456540D01*
X183103670Y-119383351D01*
X182997094Y-119266110D01*
X182985188Y-119242048D01*
X182946716Y-119132330D01*
X182935527Y-119011507D01*
X182954253Y-118866159D01*
X183005525Y-118682866D01*
X183091974Y-118448210D01*
X183216234Y-118148770D01*
X183368522Y-117779555D01*
X183405520Y-117684348D01*
X184874980Y-117684348D01*
X184930558Y-117825037D01*
X185056469Y-117933471D01*
X185235569Y-117995632D01*
X185484749Y-118011568D01*
X185756314Y-117967634D01*
X186028971Y-117865323D01*
X186180353Y-117781486D01*
X186367476Y-117658158D01*
X186518334Y-117538324D01*
X186720551Y-117352686D01*
X186560953Y-117088561D01*
X186526167Y-117032071D01*
X186341582Y-116773013D01*
X186154528Y-116586866D01*
X185950826Y-116461838D01*
X185716296Y-116386136D01*
X185568204Y-116377096D01*
X185389677Y-116421035D01*
X185236412Y-116513529D01*
X185129204Y-116641173D01*
X185088847Y-116790565D01*
X185088849Y-116791386D01*
X185111669Y-116906093D01*
X185165884Y-117029704D01*
X185171821Y-117039806D01*
X185216179Y-117124972D01*
X185212842Y-117169967D01*
X185160916Y-117206542D01*
X185105470Y-117241151D01*
X184964913Y-117375163D01*
X184887257Y-117528642D01*
X184874980Y-117684348D01*
X183405520Y-117684348D01*
X183550090Y-117312320D01*
X183746575Y-116783305D01*
X183953997Y-116204574D01*
X184065702Y-115883401D01*
X187253158Y-115883401D01*
X187290361Y-115988613D01*
X187318847Y-116015042D01*
X187431047Y-116051438D01*
X187561048Y-116030452D01*
X187675138Y-115955026D01*
X187730805Y-115886953D01*
X187795851Y-115750341D01*
X187792034Y-115635112D01*
X187722209Y-115555521D01*
X187589228Y-115525823D01*
X187462793Y-115559440D01*
X187354320Y-115645671D01*
X187279460Y-115761372D01*
X187253158Y-115883401D01*
X184065702Y-115883401D01*
X184129158Y-115700955D01*
X185136029Y-115700955D01*
X185153104Y-115756271D01*
X185218002Y-115793658D01*
X185340770Y-115818169D01*
X185531455Y-115834860D01*
X185568204Y-115836765D01*
X185800105Y-115848785D01*
X186128043Y-115863199D01*
X186409998Y-115873548D01*
X186623636Y-115877874D01*
X186779163Y-115875711D01*
X186886780Y-115866593D01*
X186956692Y-115850053D01*
X186999102Y-115825624D01*
X187024213Y-115792842D01*
X187051114Y-115731467D01*
X187067041Y-115620087D01*
X187030138Y-115550538D01*
X186989976Y-115539509D01*
X186874059Y-115517026D01*
X186698348Y-115486850D01*
X186477768Y-115451528D01*
X186227246Y-115413604D01*
X186099220Y-115394921D01*
X185824304Y-115357608D01*
X185618767Y-115337168D01*
X185470054Y-115335173D01*
X185365609Y-115353192D01*
X185292875Y-115392796D01*
X185239297Y-115455556D01*
X185192319Y-115543041D01*
X185156729Y-115622656D01*
X185136029Y-115700955D01*
X184129158Y-115700955D01*
X184168378Y-115588192D01*
X184385737Y-114946226D01*
X184602097Y-114290740D01*
X184643058Y-114163440D01*
X185742739Y-114163440D01*
X185746607Y-114381610D01*
X185792486Y-114579376D01*
X185853625Y-114702232D01*
X186017966Y-114893174D01*
X186239693Y-115042195D01*
X186501731Y-115139090D01*
X186787001Y-115173657D01*
X186795647Y-115173606D01*
X187025460Y-115145334D01*
X187279988Y-115073954D01*
X187521678Y-114972439D01*
X187589228Y-114930533D01*
X187712978Y-114853762D01*
X187787711Y-114790645D01*
X187958673Y-114625200D01*
X188119332Y-114444621D01*
X188249974Y-114271990D01*
X188330881Y-114130388D01*
X188337227Y-114114937D01*
X188385550Y-113946804D01*
X188370484Y-113833932D01*
X188291360Y-113770211D01*
X188234298Y-113754588D01*
X188099781Y-113726380D01*
X187918302Y-113693339D01*
X187712623Y-113659806D01*
X187609461Y-113643200D01*
X187325827Y-113592455D01*
X187030623Y-113533994D01*
X186773278Y-113477413D01*
X186630824Y-113445098D01*
X186438548Y-113405726D01*
X186282982Y-113378788D01*
X186188462Y-113368804D01*
X186155640Y-113371672D01*
X186034279Y-113432515D01*
X185926654Y-113559403D01*
X185838418Y-113735047D01*
X185775228Y-113942156D01*
X185742739Y-114163440D01*
X184643058Y-114163440D01*
X184813478Y-113633800D01*
X185015901Y-112987470D01*
X185205387Y-112363817D01*
X185222239Y-112306309D01*
X186380297Y-112306309D01*
X186407286Y-112585643D01*
X186514036Y-112837579D01*
X186699299Y-113054712D01*
X186750309Y-113096788D01*
X187001705Y-113239589D01*
X187280920Y-113310089D01*
X187575508Y-113311967D01*
X187873021Y-113248903D01*
X188161012Y-113124579D01*
X188427031Y-112942672D01*
X188658633Y-112706865D01*
X188843370Y-112420836D01*
X188892027Y-112310412D01*
X188938386Y-112144220D01*
X188944537Y-112008357D01*
X188907581Y-111925193D01*
X188845819Y-111896231D01*
X188719714Y-111860885D01*
X188563056Y-111830831D01*
X188484642Y-111818511D01*
X188301239Y-111788525D01*
X188066695Y-111749267D01*
X187802964Y-111704424D01*
X187532001Y-111657682D01*
X187355801Y-111627377D01*
X187099118Y-111586841D01*
X186908708Y-111566252D01*
X186771561Y-111567958D01*
X186674666Y-111594305D01*
X186605011Y-111647641D01*
X186549585Y-111730311D01*
X186495376Y-111844664D01*
X186434317Y-112006981D01*
X186380297Y-112306309D01*
X185222239Y-112306309D01*
X185377957Y-111774905D01*
X185470054Y-111445739D01*
X185529632Y-111232800D01*
X185577165Y-111051653D01*
X186719816Y-111051653D01*
X186723729Y-111165251D01*
X186758850Y-111232072D01*
X186778787Y-111238418D01*
X186874733Y-111257029D01*
X186908708Y-111262431D01*
X187033375Y-111282253D01*
X187238574Y-111311597D01*
X187474188Y-111342568D01*
X187533741Y-111350119D01*
X187819195Y-111387227D01*
X188110239Y-111426329D01*
X188375876Y-111463210D01*
X188585114Y-111493655D01*
X188710141Y-111511457D01*
X188878739Y-111531470D01*
X189001185Y-111540949D01*
X189057124Y-111537982D01*
X189074433Y-111519577D01*
X189115461Y-111431903D01*
X189151678Y-111310035D01*
X189173288Y-111190846D01*
X189170497Y-111111206D01*
X189153430Y-111090178D01*
X189061520Y-111048416D01*
X188911400Y-111018324D01*
X188833128Y-111008357D01*
X188621348Y-110977993D01*
X188483483Y-110945252D01*
X188409107Y-110900247D01*
X188387795Y-110833092D01*
X188409120Y-110733900D01*
X188462658Y-110592784D01*
X188534910Y-110412210D01*
X188803820Y-110440988D01*
X188928303Y-110455524D01*
X189062866Y-110474284D01*
X189142380Y-110489232D01*
X189205107Y-110482065D01*
X189287329Y-110425493D01*
X189313861Y-110390661D01*
X189365412Y-110279930D01*
X189392327Y-110158972D01*
X189389917Y-110057556D01*
X189353492Y-110005449D01*
X189325101Y-109999374D01*
X189217227Y-109981696D01*
X189046733Y-109956293D01*
X188829016Y-109925248D01*
X188579472Y-109890639D01*
X188313495Y-109854549D01*
X188046482Y-109819057D01*
X187793829Y-109786245D01*
X187570930Y-109758192D01*
X187393182Y-109736979D01*
X187275979Y-109724688D01*
X187154851Y-109719417D01*
X187061803Y-109737156D01*
X187002249Y-109787670D01*
X186960838Y-109880685D01*
X186941026Y-110000684D01*
X186945527Y-110110711D01*
X186976754Y-110174214D01*
X187023916Y-110187478D01*
X187142587Y-110210249D01*
X187312339Y-110238145D01*
X187514022Y-110267829D01*
X187695613Y-110294129D01*
X187867283Y-110321131D01*
X187989097Y-110342767D01*
X188042347Y-110355917D01*
X188046395Y-110389199D01*
X188026106Y-110484696D01*
X187983087Y-110617066D01*
X187959482Y-110680553D01*
X187918867Y-110771316D01*
X187869974Y-110827820D01*
X187797120Y-110853836D01*
X187684625Y-110853136D01*
X187516808Y-110829492D01*
X187277987Y-110786676D01*
X186879291Y-110713734D01*
X186798454Y-110813563D01*
X186792655Y-110821105D01*
X186743872Y-110925522D01*
X186719816Y-111051653D01*
X185577165Y-111051653D01*
X185656433Y-110749566D01*
X185988638Y-109317610D01*
X186188462Y-108270215D01*
X186194154Y-108240381D01*
X187487981Y-108240381D01*
X187487981Y-108416464D01*
X187487981Y-108592547D01*
X187782580Y-108605506D01*
X188077180Y-108618465D01*
X188090726Y-108781589D01*
X188099769Y-108853173D01*
X188133352Y-108929972D01*
X188202615Y-108958688D01*
X188247181Y-108959083D01*
X188313734Y-108918647D01*
X188378545Y-108809961D01*
X188456132Y-108647258D01*
X188823397Y-108675489D01*
X188991200Y-108690966D01*
X189170867Y-108719871D01*
X189283671Y-108760944D01*
X189342157Y-108819460D01*
X189358864Y-108900693D01*
X189374124Y-108971609D01*
X189455086Y-109059143D01*
X189513655Y-109082996D01*
X189576029Y-109068672D01*
X189653180Y-108992206D01*
X189690406Y-108942067D01*
X189750047Y-108783774D01*
X189738629Y-108625431D01*
X189656005Y-108492853D01*
X189598166Y-108449824D01*
X189428222Y-108376236D01*
X189208171Y-108326385D01*
X188962677Y-108306887D01*
X188896726Y-108305508D01*
X188709700Y-108286639D01*
X188601402Y-108244722D01*
X188566490Y-108178020D01*
X188562430Y-108136710D01*
X188510571Y-108044537D01*
X188421918Y-108004392D01*
X188325689Y-108022889D01*
X188251100Y-108106640D01*
X188235234Y-108138199D01*
X188198042Y-108180665D01*
X188134229Y-108205670D01*
X188023323Y-108219314D01*
X187844851Y-108227697D01*
X187487981Y-108240381D01*
X186194154Y-108240381D01*
X186255164Y-107920590D01*
X186294403Y-107652755D01*
X188226582Y-107652755D01*
X188275970Y-107799659D01*
X188355867Y-107884051D01*
X188421918Y-107903457D01*
X188453067Y-107912608D01*
X188536082Y-107873432D01*
X188586755Y-107776357D01*
X188586933Y-107631217D01*
X188576495Y-107559078D01*
X188588427Y-107479542D01*
X188647155Y-107429944D01*
X188660961Y-107422844D01*
X188742151Y-107399921D01*
X188816116Y-107426219D01*
X188897957Y-107511791D01*
X189002774Y-107666691D01*
X189059149Y-107750080D01*
X189205147Y-107905996D01*
X189358311Y-107980446D01*
X189526512Y-107978109D01*
X189658241Y-107922767D01*
X189793175Y-107785068D01*
X189882649Y-107580069D01*
X189886025Y-107567716D01*
X189916349Y-107452972D01*
X189924133Y-107381740D01*
X189907417Y-107315039D01*
X189864241Y-107213890D01*
X189828100Y-107141525D01*
X189768853Y-107086512D01*
X189678876Y-107081828D01*
X189645441Y-107086421D01*
X189586209Y-107110240D01*
X189560696Y-107170888D01*
X189553827Y-107293934D01*
X189552410Y-107369843D01*
X189545766Y-107502525D01*
X189529142Y-107572243D01*
X189495691Y-107596835D01*
X189438564Y-107594136D01*
X189385017Y-107569595D01*
X189282822Y-107473723D01*
X189162845Y-107316797D01*
X189066075Y-107188592D01*
X188955573Y-107072505D01*
X188867164Y-107012609D01*
X188861501Y-107010684D01*
X188709891Y-107002572D01*
X188559244Y-107063610D01*
X188422575Y-107176474D01*
X188312899Y-107323837D01*
X188243230Y-107488372D01*
X188226582Y-107652755D01*
X186294403Y-107652755D01*
X186454516Y-106559873D01*
X186470408Y-106400888D01*
X188390407Y-106400888D01*
X188402956Y-106519965D01*
X188468310Y-106642892D01*
X188597709Y-106718866D01*
X188709891Y-106739328D01*
X188800315Y-106755821D01*
X188841504Y-106758946D01*
X188976144Y-106759024D01*
X189071525Y-106730307D01*
X189165880Y-106663099D01*
X189190655Y-106640489D01*
X189296482Y-106513276D01*
X189380561Y-106370193D01*
X189422306Y-106287187D01*
X189483646Y-106215125D01*
X189553569Y-106202355D01*
X189585452Y-106212759D01*
X189644296Y-106283569D01*
X189664541Y-106393374D01*
X189644155Y-106512101D01*
X189581104Y-106609679D01*
X189521837Y-106683447D01*
X189490927Y-106772507D01*
X189491248Y-106781087D01*
X189528614Y-106841649D01*
X189614077Y-106851545D01*
X189727606Y-106813205D01*
X189849169Y-106729058D01*
X189869946Y-106710057D01*
X189946880Y-106620389D01*
X189988076Y-106515111D01*
X190009123Y-106358068D01*
X190015015Y-106274093D01*
X190012184Y-106156640D01*
X189983223Y-106076895D01*
X189919934Y-106002128D01*
X189904576Y-105987424D01*
X189722220Y-105874582D01*
X189493891Y-105814542D01*
X189240866Y-105806119D01*
X188984426Y-105848125D01*
X188745849Y-105939376D01*
X188546415Y-106078685D01*
X188457784Y-106172476D01*
X188404099Y-106274283D01*
X188390407Y-106400888D01*
X186470408Y-106400888D01*
X186569711Y-105407467D01*
X187534695Y-105407467D01*
X187551201Y-105496524D01*
X187613748Y-105537220D01*
X187645577Y-105538500D01*
X187755704Y-105541261D01*
X187927136Y-105544792D01*
X188143996Y-105548772D01*
X188390407Y-105552881D01*
X188484389Y-105554576D01*
X188791273Y-105562315D01*
X189106612Y-105573051D01*
X189240866Y-105578827D01*
X189398241Y-105585598D01*
X189633994Y-105598768D01*
X190151239Y-105633112D01*
X190151239Y-105496080D01*
X190151235Y-105493062D01*
X190146406Y-105416325D01*
X190126284Y-105355163D01*
X190081774Y-105307544D01*
X190003785Y-105271431D01*
X189883223Y-105244791D01*
X189710994Y-105225589D01*
X189478006Y-105211791D01*
X189175166Y-105201362D01*
X188793380Y-105192267D01*
X187652699Y-105167786D01*
X187580346Y-105278210D01*
X187567949Y-105298890D01*
X187534695Y-105407467D01*
X186569711Y-105407467D01*
X186587803Y-105226476D01*
X186611322Y-104773834D01*
X187575131Y-104773834D01*
X187589137Y-104859369D01*
X187595043Y-104864848D01*
X187648557Y-104880554D01*
X187652699Y-104881029D01*
X187759300Y-104893261D01*
X187933431Y-104903253D01*
X188177110Y-104910814D01*
X188496497Y-104916230D01*
X188897751Y-104919785D01*
X190173249Y-104927589D01*
X190186338Y-104820856D01*
X190179122Y-104743401D01*
X190111606Y-104634647D01*
X190107116Y-104630680D01*
X190073329Y-104607642D01*
X190025131Y-104589934D01*
X189952004Y-104576950D01*
X189843430Y-104568086D01*
X189688891Y-104562737D01*
X189477870Y-104560296D01*
X189199850Y-104560159D01*
X188844312Y-104561721D01*
X188531149Y-104564571D01*
X188246642Y-104569289D01*
X188003157Y-104575506D01*
X187812449Y-104582854D01*
X187686273Y-104590966D01*
X187636383Y-104599473D01*
X187598465Y-104665778D01*
X187575131Y-104773834D01*
X186611322Y-104773834D01*
X186656132Y-103911418D01*
X186656214Y-103887454D01*
X188575873Y-103887454D01*
X188627313Y-103971999D01*
X188673182Y-104033008D01*
X188698553Y-104140295D01*
X188698553Y-104256499D01*
X189199850Y-104256499D01*
X189267957Y-104256499D01*
X189286296Y-104256522D01*
X189511552Y-104260535D01*
X189712797Y-104270451D01*
X189868694Y-104284855D01*
X189957903Y-104302329D01*
X189972002Y-104307525D01*
X190070978Y-104324618D01*
X190142560Y-104284044D01*
X190173697Y-104233530D01*
X190181369Y-104124656D01*
X190140581Y-104020609D01*
X190061193Y-103960584D01*
X190056188Y-103959281D01*
X189999366Y-103941715D01*
X189983669Y-103914551D01*
X190011487Y-103856449D01*
X190085208Y-103746072D01*
X190128571Y-103676504D01*
X190187035Y-103517298D01*
X190166563Y-103377177D01*
X190066583Y-103240634D01*
X190043926Y-103218532D01*
X189954332Y-103150540D01*
X189852321Y-103119407D01*
X189700397Y-103111958D01*
X189628059Y-103114387D01*
X189426228Y-103137479D01*
X189243625Y-103177071D01*
X189071252Y-103250589D01*
X188907209Y-103360885D01*
X188765036Y-103493408D01*
X188655347Y-103634470D01*
X188588755Y-103770382D01*
X188575873Y-103887454D01*
X186656214Y-103887454D01*
X186660610Y-102605719D01*
X186635807Y-101841815D01*
X186610144Y-101435699D01*
X188524506Y-101435699D01*
X188573099Y-101521130D01*
X188689021Y-101563124D01*
X188833563Y-101577028D01*
X188722037Y-101709569D01*
X188671218Y-101774573D01*
X188619084Y-101885571D01*
X188640889Y-101983911D01*
X188737660Y-102094890D01*
X188864809Y-102213665D01*
X188759670Y-102307314D01*
X188686226Y-102401176D01*
X188654532Y-102557352D01*
X188660328Y-102635580D01*
X188697159Y-102730592D01*
X188777569Y-102798181D01*
X188912589Y-102843265D01*
X189113248Y-102870763D01*
X189390577Y-102885594D01*
X189559445Y-102889147D01*
X189700397Y-102888837D01*
X189765770Y-102888693D01*
X189935060Y-102883015D01*
X190041862Y-102872621D01*
X190124916Y-102852028D01*
X190181956Y-102807834D01*
X190195260Y-102722580D01*
X190192908Y-102667099D01*
X190171422Y-102591311D01*
X190116214Y-102541551D01*
X190013739Y-102512542D01*
X189850450Y-102499006D01*
X189612804Y-102495667D01*
X189455572Y-102494807D01*
X189291573Y-102489445D01*
X189189354Y-102477218D01*
X189133404Y-102455902D01*
X189108216Y-102423270D01*
X189104763Y-102357412D01*
X189171807Y-102289134D01*
X189315982Y-102244678D01*
X189532356Y-102226334D01*
X189677097Y-102222112D01*
X189872343Y-102206430D01*
X189999490Y-102177204D01*
X190071064Y-102130843D01*
X190099592Y-102063758D01*
X190101211Y-102051523D01*
X190099133Y-101953743D01*
X190056820Y-101889051D01*
X189962591Y-101852611D01*
X189804763Y-101839584D01*
X189571654Y-101845134D01*
X189336618Y-101852523D01*
X189175386Y-101846696D01*
X189085966Y-101825489D01*
X189060550Y-101787021D01*
X189091330Y-101729412D01*
X189131177Y-101693535D01*
X189274750Y-101628491D01*
X189481538Y-101586505D01*
X189735633Y-101571476D01*
X189927507Y-101560172D01*
X190064188Y-101519224D01*
X190133399Y-101443252D01*
X190144010Y-101326945D01*
X190129228Y-101197053D01*
X189607674Y-101184614D01*
X189578362Y-101183977D01*
X189270939Y-101185296D01*
X189003169Y-101200903D01*
X188787052Y-101229270D01*
X188634591Y-101268871D01*
X188557789Y-101318178D01*
X188553216Y-101325445D01*
X188524506Y-101435699D01*
X186610144Y-101435699D01*
X186568304Y-100773565D01*
X186542190Y-100519284D01*
X187598033Y-100519284D01*
X187601211Y-100630038D01*
X187635327Y-100836478D01*
X187710053Y-100969449D01*
X187829380Y-101034110D01*
X187997299Y-101035624D01*
X188070098Y-101003976D01*
X188136221Y-100913265D01*
X188152872Y-100799100D01*
X188108789Y-100695806D01*
X188081747Y-100657578D01*
X188043107Y-100526664D01*
X188051617Y-100385285D01*
X188107416Y-100275761D01*
X188189979Y-100228778D01*
X188309520Y-100206585D01*
X188349961Y-100209967D01*
X188422726Y-100236404D01*
X188510436Y-100298084D01*
X188627075Y-100405653D01*
X188786631Y-100569757D01*
X189130814Y-100932929D01*
X189409917Y-100932860D01*
X189569911Y-100923175D01*
X189578362Y-100920746D01*
X189777166Y-100863613D01*
X189928998Y-100744178D01*
X190036180Y-100558429D01*
X190084659Y-100395616D01*
X190107114Y-100160891D01*
X190081089Y-99935690D01*
X190009979Y-99743265D01*
X189897183Y-99606868D01*
X189783447Y-99559717D01*
X189630875Y-99551505D01*
X189493212Y-99589071D01*
X189447683Y-99617550D01*
X189388795Y-99698580D01*
X189411460Y-99797425D01*
X189516129Y-99920609D01*
X189607366Y-100016921D01*
X189654732Y-100108256D01*
X189659015Y-100213249D01*
X189626920Y-100328943D01*
X189529984Y-100422154D01*
X189417558Y-100457042D01*
X189272402Y-100426610D01*
X189114608Y-100314321D01*
X188940438Y-100118247D01*
X188875699Y-100038437D01*
X188685873Y-99857869D01*
X188489308Y-99755039D01*
X188273702Y-99722647D01*
X188081158Y-99758204D01*
X187894203Y-99875732D01*
X187722887Y-100077952D01*
X187647736Y-100208202D01*
X187608312Y-100343243D01*
X187598033Y-100519284D01*
X186542190Y-100519284D01*
X186460916Y-99727889D01*
X186311040Y-98689635D01*
X186256582Y-98397475D01*
X188214324Y-98397475D01*
X188228570Y-98549863D01*
X188278790Y-98700011D01*
X188355409Y-98799361D01*
X188448115Y-98835538D01*
X188546592Y-98796167D01*
X188577139Y-98765170D01*
X188606967Y-98663271D01*
X188555806Y-98533046D01*
X188525090Y-98459267D01*
X188549519Y-98368565D01*
X188559949Y-98352897D01*
X188626870Y-98293658D01*
X188711433Y-98294083D01*
X188825724Y-98357487D01*
X188981830Y-98487187D01*
X188991954Y-98496322D01*
X189144437Y-98622047D01*
X189261811Y-98689691D01*
X189362225Y-98709878D01*
X189497267Y-98694340D01*
X189630875Y-98620952D01*
X189639270Y-98616341D01*
X189736768Y-98465635D01*
X189794255Y-98256051D01*
X189780046Y-98059699D01*
X189688365Y-97898946D01*
X189620387Y-97840359D01*
X189508280Y-97795802D01*
X189411971Y-97807276D01*
X189349249Y-97864239D01*
X189337898Y-97956145D01*
X189395706Y-98072449D01*
X189423754Y-98110047D01*
X189462666Y-98192779D01*
X189441741Y-98253883D01*
X189431658Y-98265300D01*
X189363964Y-98306141D01*
X189276598Y-98294092D01*
X189156880Y-98224621D01*
X188992129Y-98093196D01*
X188927698Y-98039062D01*
X188786423Y-97934730D01*
X188675121Y-97885646D01*
X188571984Y-97885023D01*
X188455208Y-97926074D01*
X188331566Y-98022937D01*
X188245082Y-98187171D01*
X188214324Y-98397475D01*
X186256582Y-98397475D01*
X186192000Y-98050999D01*
X187165103Y-98050999D01*
X187208631Y-98151547D01*
X187309498Y-98210505D01*
X187452670Y-98212907D01*
X187624900Y-98158811D01*
X187812939Y-98048271D01*
X187880982Y-97993934D01*
X187964025Y-97904896D01*
X187997209Y-97835273D01*
X187975827Y-97798754D01*
X187895173Y-97809029D01*
X187824166Y-97824560D01*
X187683597Y-97841102D01*
X187519869Y-97850508D01*
X187336130Y-97863798D01*
X187221424Y-97896916D01*
X187168665Y-97956915D01*
X187165103Y-98050999D01*
X186192000Y-98050999D01*
X186116071Y-97643651D01*
X186075316Y-97464139D01*
X187056211Y-97464139D01*
X187070659Y-97566974D01*
X187107159Y-97625852D01*
X187154700Y-97661969D01*
X187154851Y-97661985D01*
X187228972Y-97670044D01*
X187349417Y-97651841D01*
X187535474Y-97609121D01*
X187696386Y-97572294D01*
X187965945Y-97515845D01*
X187975827Y-97513918D01*
X188269859Y-97456577D01*
X188584067Y-97398874D01*
X188884510Y-97347119D01*
X189147128Y-97305694D01*
X189347859Y-97278982D01*
X189449809Y-97266370D01*
X189508280Y-97254219D01*
X189558679Y-97243745D01*
X189610076Y-97211903D01*
X189622989Y-97162827D01*
X189622871Y-97158658D01*
X189589915Y-97067885D01*
X189516151Y-96970269D01*
X189455335Y-96900567D01*
X189430944Y-96821630D01*
X189452310Y-96707704D01*
X189458782Y-96681661D01*
X189461228Y-96508089D01*
X189394463Y-96365150D01*
X189271502Y-96256635D01*
X189105362Y-96186337D01*
X188909057Y-96158045D01*
X188695602Y-96175551D01*
X188478012Y-96242646D01*
X188269303Y-96363121D01*
X188110661Y-96518105D01*
X188018997Y-96711498D01*
X188010227Y-96933037D01*
X188020227Y-97011900D01*
X188017132Y-97093039D01*
X187973649Y-97134172D01*
X187872126Y-97164939D01*
X187788368Y-97184995D01*
X187619954Y-97220753D01*
X187443960Y-97254137D01*
X187264984Y-97299735D01*
X187123130Y-97373264D01*
X187056211Y-97464139D01*
X186075316Y-97464139D01*
X185873406Y-96574785D01*
X185772408Y-96193189D01*
X186769673Y-96193189D01*
X186826219Y-96287531D01*
X186840333Y-96297012D01*
X186897830Y-96310896D01*
X186994396Y-96305375D01*
X187145216Y-96278818D01*
X187365473Y-96229594D01*
X187559284Y-96184976D01*
X187842248Y-96121777D01*
X188139759Y-96056982D01*
X188412417Y-95999260D01*
X188434312Y-95994711D01*
X188663607Y-95946630D01*
X188874316Y-95901717D01*
X188909057Y-95894158D01*
X189043886Y-95864821D01*
X189149766Y-95840787D01*
X189168448Y-95836071D01*
X189279868Y-95788334D01*
X189314844Y-95721590D01*
X189314482Y-95711592D01*
X189268546Y-95607053D01*
X189165351Y-95527792D01*
X189033106Y-95496360D01*
X189023501Y-95496725D01*
X188927183Y-95509825D01*
X188764912Y-95539249D01*
X188551912Y-95581618D01*
X188303410Y-95633553D01*
X188034627Y-95691675D01*
X187760791Y-95752607D01*
X187497124Y-95812968D01*
X187258851Y-95869381D01*
X187061197Y-95918467D01*
X186919386Y-95956847D01*
X186848644Y-95981143D01*
X186831021Y-95992378D01*
X186772252Y-96081442D01*
X186769673Y-96193189D01*
X185772408Y-96193189D01*
X185580440Y-95467885D01*
X185407413Y-94887535D01*
X187467117Y-94887535D01*
X187476323Y-94975984D01*
X187509991Y-95017634D01*
X187513202Y-95018049D01*
X187598033Y-95034142D01*
X187604564Y-95035761D01*
X187669454Y-95050650D01*
X187677313Y-95060892D01*
X187653513Y-95111178D01*
X187589071Y-95237241D01*
X187581663Y-95379227D01*
X187641383Y-95495690D01*
X187646858Y-95501036D01*
X187753480Y-95567984D01*
X187858527Y-95580505D01*
X187931789Y-95534556D01*
X187937424Y-95522671D01*
X187957055Y-95433449D01*
X187967402Y-95308283D01*
X187983055Y-95195307D01*
X188038935Y-95093288D01*
X188146786Y-95015107D01*
X188318631Y-94952516D01*
X188566490Y-94897269D01*
X188631122Y-94884648D01*
X188799697Y-94846736D01*
X188929181Y-94810447D01*
X188995693Y-94782185D01*
X189033106Y-94738777D01*
X189035158Y-94736396D01*
X189040162Y-94643674D01*
X188967160Y-94522507D01*
X188883601Y-94419316D01*
X188515947Y-94498599D01*
X188497674Y-94502523D01*
X188277372Y-94547895D01*
X188050050Y-94591900D01*
X187862157Y-94625519D01*
X187719075Y-94653436D01*
X187590939Y-94686927D01*
X187520996Y-94715972D01*
X187516638Y-94719721D01*
X187481010Y-94789657D01*
X187467117Y-94887535D01*
X185407413Y-94887535D01*
X185234569Y-94307799D01*
X185147576Y-94033117D01*
X185106517Y-93905761D01*
X187126947Y-93905761D01*
X187181675Y-94107364D01*
X187281286Y-94247186D01*
X187448466Y-94360069D01*
X187655166Y-94418809D01*
X187885247Y-94423359D01*
X188122568Y-94373670D01*
X188350993Y-94269696D01*
X188554380Y-94111390D01*
X188594858Y-94070120D01*
X188687529Y-93959662D01*
X188731464Y-93863480D01*
X188742573Y-93751115D01*
X188732663Y-93638630D01*
X188660825Y-93467879D01*
X188518464Y-93346982D01*
X188304327Y-93275076D01*
X188017164Y-93251300D01*
X187881100Y-93257717D01*
X187620984Y-93310893D01*
X187407185Y-93410816D01*
X187248028Y-93548956D01*
X187151840Y-93716781D01*
X187126947Y-93905761D01*
X185106517Y-93905761D01*
X185033502Y-93679288D01*
X184907477Y-93293658D01*
X184774351Y-92890684D01*
X184638969Y-92484823D01*
X184506181Y-92090532D01*
X184380834Y-91722267D01*
X184267775Y-91394485D01*
X184256155Y-91361433D01*
X185263998Y-91361433D01*
X185278647Y-91449094D01*
X185327046Y-91558101D01*
X185397004Y-91656422D01*
X185404179Y-91664044D01*
X185451684Y-91707096D01*
X185506442Y-91734605D01*
X185581596Y-91746104D01*
X185690289Y-91741129D01*
X185845664Y-91719213D01*
X186060864Y-91679892D01*
X186349032Y-91622698D01*
X186453494Y-91601972D01*
X186686110Y-91558094D01*
X186889272Y-91522785D01*
X187044079Y-91499236D01*
X187131632Y-91490636D01*
X187213297Y-91493566D01*
X187230461Y-91515919D01*
X187180812Y-91577429D01*
X187132180Y-91617406D01*
X187014204Y-91694315D01*
X186852704Y-91788392D01*
X186667750Y-91887508D01*
X186517215Y-91967590D01*
X186370171Y-92052460D01*
X186270243Y-92118170D01*
X186233388Y-92154899D01*
X186233603Y-92158787D01*
X186255836Y-92230711D01*
X186303472Y-92334701D01*
X186341968Y-92403010D01*
X186389716Y-92445954D01*
X186466202Y-92455198D01*
X186600613Y-92441202D01*
X186905573Y-92405735D01*
X187190610Y-92381766D01*
X187400926Y-92375974D01*
X187530878Y-92388678D01*
X187649438Y-92418435D01*
X187546699Y-92498296D01*
X187449474Y-92553102D01*
X187288776Y-92622101D01*
X187086502Y-92697875D01*
X186864539Y-92773016D01*
X186644779Y-92840114D01*
X186449109Y-92891757D01*
X186299419Y-92920536D01*
X186112497Y-92945437D01*
X185987007Y-92969142D01*
X185917434Y-92996934D01*
X185887574Y-93035430D01*
X185881222Y-93091243D01*
X185897284Y-93170742D01*
X185988643Y-93286914D01*
X186152921Y-93377874D01*
X186249014Y-93392765D01*
X186426879Y-93378394D01*
X186653895Y-93332347D01*
X186914189Y-93260034D01*
X187191889Y-93166866D01*
X187471122Y-93058256D01*
X187736016Y-92939613D01*
X187970699Y-92816349D01*
X188017164Y-92786175D01*
X188159298Y-92693875D01*
X188204739Y-92657293D01*
X188281385Y-92560726D01*
X188302365Y-92442348D01*
X188293364Y-92363954D01*
X188216728Y-92219849D01*
X188068305Y-92111191D01*
X187855900Y-92042606D01*
X187587318Y-92018717D01*
X187465693Y-92010096D01*
X187389536Y-91984593D01*
X187383943Y-91949273D01*
X187457594Y-91911324D01*
X187507130Y-91884434D01*
X187607809Y-91807408D01*
X187721719Y-91703405D01*
X187827160Y-91580900D01*
X187904555Y-91414730D01*
X187894850Y-91259400D01*
X187798127Y-91114290D01*
X187791618Y-91107919D01*
X187711093Y-91049702D01*
X187606046Y-91013319D01*
X187464226Y-90998370D01*
X187273380Y-91004451D01*
X187021258Y-91031160D01*
X186695606Y-91078095D01*
X186450484Y-91116829D01*
X186150889Y-91165970D01*
X185876149Y-91212937D01*
X185638696Y-91255492D01*
X185450965Y-91291392D01*
X185325388Y-91318397D01*
X185274397Y-91334265D01*
X185263998Y-91361433D01*
X184256155Y-91361433D01*
X184171854Y-91121643D01*
X184097917Y-90918197D01*
X184042018Y-90766695D01*
X183965730Y-90556934D01*
X183880098Y-90319339D01*
X183795215Y-90081802D01*
X183547348Y-89409594D01*
X183445390Y-89156156D01*
X184868743Y-89156156D01*
X184868937Y-89174791D01*
X184884842Y-89282586D01*
X184938710Y-89375343D01*
X185048054Y-89485200D01*
X185142810Y-89573655D01*
X185192111Y-89637094D01*
X185193909Y-89688813D01*
X185158106Y-89752899D01*
X185110502Y-89845808D01*
X185087737Y-90007361D01*
X185135991Y-90153677D01*
X185244343Y-90274420D01*
X185401869Y-90359255D01*
X185597645Y-90397847D01*
X185820748Y-90379861D01*
X185857111Y-90371447D01*
X185988130Y-90323674D01*
X186110501Y-90240904D01*
X186253605Y-90104442D01*
X186368857Y-89973985D01*
X186499698Y-89803218D01*
X186596975Y-89651531D01*
X186718448Y-89429045D01*
X186493196Y-89232000D01*
X186452162Y-89196822D01*
X186133247Y-88972910D01*
X185806133Y-88832333D01*
X185461549Y-88770950D01*
X185427349Y-88768781D01*
X185272017Y-88763069D01*
X185170150Y-88773769D01*
X185092629Y-88807271D01*
X185010336Y-88869966D01*
X184949404Y-88926261D01*
X184885359Y-89026482D01*
X184868743Y-89156156D01*
X183445390Y-89156156D01*
X183091687Y-88276949D01*
X183013475Y-88076850D01*
X182944009Y-87829456D01*
X182930205Y-87632489D01*
X182971804Y-87475531D01*
X183068546Y-87348164D01*
X183149960Y-87283615D01*
X183246472Y-87238462D01*
X183362078Y-87220138D01*
X183506953Y-87230249D01*
X183691270Y-87270400D01*
X183925203Y-87342198D01*
X184218924Y-87447248D01*
X184582608Y-87587156D01*
X184668113Y-87620833D01*
X184859677Y-87696944D01*
X185026515Y-87764065D01*
X185139974Y-87810705D01*
X185272017Y-87866397D01*
X185301153Y-87878686D01*
X185756265Y-87284815D01*
X185887539Y-87115466D01*
X186050518Y-86915699D01*
X186181423Y-86774815D01*
X186290918Y-86684585D01*
X186389669Y-86636777D01*
X186488341Y-86623159D01*
X186597600Y-86635501D01*
G37*
G36*
X171751787Y-85130907D02*
G01*
X171978511Y-85181383D01*
X172239423Y-85263267D01*
X172547776Y-85374008D01*
X172641483Y-85408634D01*
X172986507Y-85536315D01*
X173259839Y-85638038D01*
X173470319Y-85717368D01*
X173576777Y-85758532D01*
X173626787Y-85777870D01*
X173738081Y-85823110D01*
X173813042Y-85856652D01*
X173860509Y-85882062D01*
X173889322Y-85902905D01*
X173908320Y-85922747D01*
X173919101Y-85942619D01*
X173953203Y-86040316D01*
X173998631Y-86199535D01*
X174050758Y-86403507D01*
X174104958Y-86635465D01*
X174222390Y-87159675D01*
X174364463Y-87789143D01*
X174490061Y-88339714D01*
X174598940Y-88810353D01*
X174690855Y-89200025D01*
X174765560Y-89507695D01*
X174822812Y-89732328D01*
X174862364Y-89872889D01*
X174883973Y-89928343D01*
X174915295Y-89927874D01*
X175009176Y-89903173D01*
X175093695Y-89873799D01*
X175139953Y-89857722D01*
X175142974Y-89856580D01*
X175381975Y-89792243D01*
X175674428Y-89751986D01*
X175989160Y-89737286D01*
X176294994Y-89749618D01*
X176396941Y-89765285D01*
X176560756Y-89790459D01*
X176759157Y-89845970D01*
X177152017Y-90013440D01*
X177494858Y-90241686D01*
X177778130Y-90523622D01*
X177992281Y-90852166D01*
X178011729Y-90887071D01*
X178111988Y-91017364D01*
X178223991Y-91111660D01*
X178225630Y-91112621D01*
X178363233Y-91210859D01*
X178537702Y-91360599D01*
X178731527Y-91544550D01*
X178927197Y-91745422D01*
X179107202Y-91945925D01*
X179254032Y-92128769D01*
X179297712Y-92188896D01*
X179437125Y-92389864D01*
X179585922Y-92614563D01*
X179718533Y-92824682D01*
X179791068Y-92942233D01*
X179882058Y-93085596D01*
X179949502Y-93186861D01*
X179982513Y-93229337D01*
X179983870Y-93230000D01*
X180042691Y-93242649D01*
X180169644Y-93263225D01*
X180347093Y-93289025D01*
X180557401Y-93317352D01*
X180797595Y-93351441D01*
X181142738Y-93408436D01*
X181492272Y-93473995D01*
X181823230Y-93543493D01*
X182112644Y-93612305D01*
X182337547Y-93675806D01*
X182365714Y-93686636D01*
X182548528Y-93756927D01*
X182840830Y-93922202D01*
X183076517Y-94125198D01*
X183240526Y-94354591D01*
X183270658Y-94433518D01*
X183312976Y-94595853D01*
X183354383Y-94804718D01*
X183389805Y-95036914D01*
X183405473Y-95152194D01*
X183453549Y-95452102D01*
X183504088Y-95696111D01*
X183554966Y-95876238D01*
X183604062Y-95984499D01*
X183649252Y-96012909D01*
X183688693Y-95968962D01*
X183746371Y-95864266D01*
X183808221Y-95722682D01*
X183867051Y-95591060D01*
X183961502Y-95420063D01*
X184053387Y-95289896D01*
X184078747Y-95261018D01*
X184120390Y-95221951D01*
X184169819Y-95175579D01*
X184262465Y-95139275D01*
X184398474Y-95133122D01*
X184447431Y-95135212D01*
X184693061Y-95192342D01*
X184912785Y-95328218D01*
X185108307Y-95544640D01*
X185281333Y-95843409D01*
X185433567Y-96226326D01*
X185443837Y-96257884D01*
X185514746Y-96520522D01*
X185582330Y-96842696D01*
X185642335Y-97199514D01*
X185690507Y-97566081D01*
X185722592Y-97917504D01*
X185730137Y-98068708D01*
X185734492Y-98356359D01*
X185729529Y-98669424D01*
X185716314Y-98985228D01*
X185695910Y-99281101D01*
X185669385Y-99534368D01*
X185637802Y-99722357D01*
X185530929Y-100094764D01*
X185375520Y-100439727D01*
X185183249Y-100705608D01*
X184954442Y-100891969D01*
X184689424Y-100998372D01*
X184592423Y-101022418D01*
X184466268Y-101058114D01*
X184393248Y-101084683D01*
X184390036Y-101086838D01*
X184371266Y-101124041D01*
X184356145Y-101207274D01*
X184344113Y-101344938D01*
X184334608Y-101545434D01*
X184327072Y-101817165D01*
X184320942Y-102168532D01*
X184319294Y-102275586D01*
X184312546Y-102620859D01*
X184303831Y-102969256D01*
X184293821Y-103297987D01*
X184283189Y-103584260D01*
X184272609Y-103805286D01*
X184239285Y-104388561D01*
X184353918Y-104388561D01*
X184507166Y-104410190D01*
X184701322Y-104470365D01*
X184900373Y-104555910D01*
X185073731Y-104653605D01*
X185190804Y-104750230D01*
X185342654Y-104969875D01*
X185490570Y-105301747D01*
X185603335Y-105709185D01*
X185621865Y-105817386D01*
X185647139Y-106055118D01*
X185666299Y-106354960D01*
X185679358Y-106700973D01*
X185686326Y-107077214D01*
X185687215Y-107467743D01*
X185682037Y-107856619D01*
X185670804Y-108227902D01*
X185653526Y-108565649D01*
X185630216Y-108853921D01*
X185600885Y-109076776D01*
X185496595Y-109588754D01*
X185375588Y-110020983D01*
X185236892Y-110372205D01*
X185078800Y-110645362D01*
X184899606Y-110843400D01*
X184697603Y-110969263D01*
X184471085Y-111025895D01*
X184366169Y-111033459D01*
X184270154Y-111022548D01*
X184188328Y-110974855D01*
X184083996Y-110876187D01*
X184070418Y-110862134D01*
X183921420Y-110657590D01*
X183794856Y-110389611D01*
X183785679Y-110365747D01*
X183719546Y-110209403D01*
X183657759Y-110086529D01*
X183612628Y-110021960D01*
X183602498Y-110014178D01*
X183567612Y-110002503D01*
X183535128Y-110026560D01*
X183501002Y-110096447D01*
X183461191Y-110222262D01*
X183411654Y-110414103D01*
X183348346Y-110682067D01*
X183289164Y-110927507D01*
X183205861Y-111225092D01*
X183120693Y-111457749D01*
X183026223Y-111638872D01*
X182915015Y-111781854D01*
X182779631Y-111900087D01*
X182612633Y-112006965D01*
X182563614Y-112035100D01*
X182439813Y-112111666D01*
X182372693Y-112171358D01*
X182345841Y-112232924D01*
X182342842Y-112315111D01*
X182343276Y-112402473D01*
X182332711Y-112621182D01*
X182309870Y-112881100D01*
X182278022Y-113152508D01*
X182240433Y-113405687D01*
X182200372Y-113610918D01*
X182186753Y-113663499D01*
X182120789Y-113864381D01*
X182031332Y-114089536D01*
X181933697Y-114299427D01*
X181745276Y-114621008D01*
X181495346Y-114928561D01*
X181214380Y-115156622D01*
X180898870Y-115307936D01*
X180545305Y-115385247D01*
X180268570Y-115415771D01*
X180162447Y-115635875D01*
X179965654Y-116018402D01*
X179671660Y-116499581D01*
X179366544Y-116894849D01*
X179049434Y-117205154D01*
X178719456Y-117431444D01*
X178375737Y-117574666D01*
X178305289Y-117592531D01*
X178023033Y-117628423D01*
X177707763Y-117625402D01*
X177394227Y-117585260D01*
X177117170Y-117509787D01*
X176747127Y-117326806D01*
X176400148Y-117066429D01*
X176087314Y-116740087D01*
X175815664Y-116357701D01*
X175592235Y-115929194D01*
X175424064Y-115464489D01*
X175318191Y-114973509D01*
X175315513Y-114954588D01*
X175279568Y-114545954D01*
X175279050Y-114501333D01*
X175810499Y-114501333D01*
X175834947Y-114858635D01*
X175887449Y-115172196D01*
X175970944Y-115460876D01*
X176088375Y-115743537D01*
X176227443Y-116000081D01*
X176429510Y-116266650D01*
X176651459Y-116451611D01*
X176890947Y-116553134D01*
X177145631Y-116569389D01*
X177252854Y-116553289D01*
X177560732Y-116449515D01*
X177605425Y-116421467D01*
X178641474Y-116421467D01*
X178644510Y-116508663D01*
X178711266Y-116538301D01*
X178716247Y-116538115D01*
X178805632Y-116494790D01*
X178918203Y-116385421D01*
X179044409Y-116224453D01*
X179174701Y-116026330D01*
X179299529Y-115805496D01*
X179409343Y-115576396D01*
X179494593Y-115353475D01*
X179495329Y-115351207D01*
X179540671Y-115209486D01*
X179572071Y-115107553D01*
X179582772Y-115067339D01*
X179579634Y-115061470D01*
X179557093Y-115008579D01*
X179535757Y-114970667D01*
X179483063Y-114955338D01*
X179412894Y-115017274D01*
X179322981Y-115158928D01*
X179211053Y-115382755D01*
X179161745Y-115485204D01*
X179043005Y-115713362D01*
X178918733Y-115932567D01*
X178808936Y-116106793D01*
X178701575Y-116279293D01*
X178641474Y-116421467D01*
X177605425Y-116421467D01*
X177852545Y-116266383D01*
X178124700Y-116009843D01*
X178373603Y-115685841D01*
X178595660Y-115300327D01*
X178787280Y-114859249D01*
X178944867Y-114368554D01*
X179064830Y-113834193D01*
X179143573Y-113262112D01*
X179147789Y-113217288D01*
X179170338Y-112863906D01*
X179767049Y-112863906D01*
X179768888Y-113100066D01*
X179770728Y-113158682D01*
X179779837Y-113368387D01*
X179793801Y-113517253D01*
X179816884Y-113627433D01*
X179853344Y-113721079D01*
X179907445Y-113820343D01*
X179936215Y-113867594D01*
X180070636Y-114038822D01*
X180221682Y-114141576D01*
X180410641Y-114191564D01*
X180552186Y-114188589D01*
X180676725Y-114139724D01*
X180750623Y-114055655D01*
X180755424Y-113949347D01*
X180721217Y-113890430D01*
X180624280Y-113853033D01*
X180536434Y-113839024D01*
X180385444Y-113760509D01*
X180255612Y-113632596D01*
X180174039Y-113477866D01*
X180163805Y-113440329D01*
X180129819Y-113216858D01*
X180121311Y-112946009D01*
X180138114Y-112658301D01*
X180180058Y-112384252D01*
X180182915Y-112371044D01*
X180293474Y-112052759D01*
X180472395Y-111789906D01*
X180719589Y-111582620D01*
X180861492Y-111485823D01*
X180956701Y-111399579D01*
X180971912Y-111341996D01*
X180907640Y-111309828D01*
X180764398Y-111299826D01*
X180753834Y-111299969D01*
X180563354Y-111345091D01*
X180368089Y-111460970D01*
X180181301Y-111633185D01*
X180016251Y-111847316D01*
X179886202Y-112088944D01*
X179804414Y-112343647D01*
X179789731Y-112441277D01*
X179774467Y-112634282D01*
X179767049Y-112863906D01*
X179170338Y-112863906D01*
X179178563Y-112735010D01*
X179182782Y-112268788D01*
X179161523Y-111832504D01*
X179115863Y-111440038D01*
X179046882Y-111105270D01*
X178955656Y-110842080D01*
X178909793Y-110750134D01*
X178764024Y-110524331D01*
X178596237Y-110337534D01*
X178498301Y-110265964D01*
X179147777Y-110265964D01*
X179173399Y-110372357D01*
X179241860Y-110507452D01*
X179304643Y-110625054D01*
X179380745Y-110791881D01*
X179452281Y-110969354D01*
X179454147Y-110974332D01*
X179483063Y-111038544D01*
X179539792Y-111164519D01*
X179622556Y-111275498D01*
X179699424Y-111304593D01*
X179767387Y-111249132D01*
X179790540Y-111196162D01*
X179803202Y-111043162D01*
X179770401Y-110855078D01*
X179697536Y-110655674D01*
X179590008Y-110468713D01*
X179550393Y-110419648D01*
X179431295Y-110311598D01*
X179301311Y-110230970D01*
X179192246Y-110199306D01*
X179167882Y-110206206D01*
X179147777Y-110265964D01*
X178498301Y-110265964D01*
X178426315Y-110213358D01*
X178296314Y-110169934D01*
X178093612Y-110149137D01*
X177879888Y-110164396D01*
X177693353Y-110215595D01*
X177480749Y-110337817D01*
X177235112Y-110542326D01*
X176985567Y-110808633D01*
X176741525Y-111124459D01*
X176512401Y-111477528D01*
X176307607Y-111855558D01*
X176136557Y-112246274D01*
X176127767Y-112269253D01*
X176014934Y-112592489D01*
X175931942Y-112899884D01*
X175874006Y-113217245D01*
X175836341Y-113570379D01*
X175814162Y-113985095D01*
X175811163Y-114081430D01*
X175810499Y-114501333D01*
X175279050Y-114501333D01*
X175274246Y-114087528D01*
X175298068Y-113609910D01*
X175349553Y-113143700D01*
X175427220Y-112719497D01*
X175434591Y-112673787D01*
X175417694Y-112637976D01*
X175352047Y-112623334D01*
X175218022Y-112620581D01*
X175014362Y-112627389D01*
X174711328Y-112650707D01*
X174351287Y-112688324D01*
X173949818Y-112737866D01*
X173522502Y-112796961D01*
X173084920Y-112863233D01*
X172652651Y-112934311D01*
X172241277Y-113007821D01*
X171866378Y-113081388D01*
X171543535Y-113152641D01*
X171288327Y-113219204D01*
X171172218Y-113249264D01*
X170951068Y-113296157D01*
X170684030Y-113344896D01*
X170393113Y-113392157D01*
X170100325Y-113434613D01*
X169827672Y-113468939D01*
X169597163Y-113491810D01*
X169430806Y-113499899D01*
X169285342Y-113494236D01*
X169102462Y-113464673D01*
X168923308Y-113402024D01*
X168724889Y-113297613D01*
X168484214Y-113142766D01*
X168268541Y-112991939D01*
X167940776Y-112745898D01*
X167635094Y-112496684D01*
X167472134Y-112351754D01*
X168855162Y-112351754D01*
X168914276Y-112390006D01*
X168925055Y-112395003D01*
X168996335Y-112408366D01*
X169108780Y-112404390D01*
X169271071Y-112381636D01*
X169491883Y-112338667D01*
X169779896Y-112274045D01*
X170143787Y-112186333D01*
X170343581Y-112137866D01*
X170578017Y-112082690D01*
X170785236Y-112035623D01*
X170936161Y-112003376D01*
X171050094Y-111978529D01*
X171188494Y-111941174D01*
X171277932Y-111907911D01*
X171306066Y-111883684D01*
X171260557Y-111873435D01*
X171252520Y-111873631D01*
X171167691Y-111882033D01*
X171018361Y-111900959D01*
X170823041Y-111927964D01*
X170600245Y-111960606D01*
X170388391Y-111994729D01*
X170152406Y-112041809D01*
X169989931Y-112088423D01*
X169892449Y-112136689D01*
X169819867Y-112179275D01*
X169724160Y-112206893D01*
X169586368Y-112220577D01*
X169383619Y-112224263D01*
X169205821Y-112228118D01*
X169015945Y-112247887D01*
X168911684Y-112284500D01*
X168869578Y-112316850D01*
X168855162Y-112351754D01*
X167472134Y-112351754D01*
X167362188Y-112253972D01*
X167132752Y-112027438D01*
X166957480Y-111826756D01*
X166857623Y-111677394D01*
X171076521Y-111677394D01*
X171134254Y-111706436D01*
X171247593Y-111756462D01*
X171260557Y-111762198D01*
X171380518Y-111815271D01*
X171404982Y-111825464D01*
X171540845Y-111853531D01*
X171705800Y-111833140D01*
X171819346Y-111801749D01*
X171941446Y-111742883D01*
X171987879Y-111677525D01*
X171952517Y-111611190D01*
X171903647Y-111584894D01*
X171811392Y-111579094D01*
X171662006Y-111603966D01*
X171598753Y-111616187D01*
X171406115Y-111642911D01*
X171231134Y-111654972D01*
X171160204Y-111656379D01*
X171081852Y-111662472D01*
X171076521Y-111677394D01*
X166857623Y-111677394D01*
X166847065Y-111661601D01*
X166830860Y-111628826D01*
X166760615Y-111450716D01*
X166695773Y-111222077D01*
X166635848Y-110938741D01*
X166580356Y-110596542D01*
X166528812Y-110191311D01*
X166480730Y-109718881D01*
X166435626Y-109175086D01*
X166393016Y-108555757D01*
X166352414Y-107856728D01*
X166313336Y-107073830D01*
X166309795Y-106995166D01*
X166294262Y-106579803D01*
X166280943Y-106105768D01*
X166270928Y-105634760D01*
X167083269Y-105634760D01*
X167083307Y-106230297D01*
X167087972Y-106798415D01*
X167097369Y-107323993D01*
X167111600Y-107791914D01*
X167130772Y-108187056D01*
X167139211Y-108314407D01*
X167163094Y-108616661D01*
X167193437Y-108946453D01*
X167228527Y-109289372D01*
X167266655Y-109631009D01*
X167306107Y-109956953D01*
X167345173Y-110252795D01*
X167382142Y-110504123D01*
X167415302Y-110696527D01*
X167442941Y-110815598D01*
X167457280Y-110859111D01*
X167560501Y-111080489D01*
X167701211Y-111246056D01*
X167885741Y-111357562D01*
X168120425Y-111416756D01*
X168411596Y-111425388D01*
X168765587Y-111385208D01*
X169029461Y-111330804D01*
X174836575Y-111330804D01*
X174843550Y-111372922D01*
X174937270Y-111405472D01*
X175117218Y-111428313D01*
X175382878Y-111441309D01*
X175497473Y-111444139D01*
X175671473Y-111446314D01*
X175780979Y-111441618D01*
X175841714Y-111427505D01*
X175869404Y-111401429D01*
X175879772Y-111360843D01*
X175876925Y-111303853D01*
X175829708Y-111265286D01*
X175715536Y-111239400D01*
X175633315Y-111231136D01*
X175468728Y-111228637D01*
X175282667Y-111236755D01*
X175102504Y-111253405D01*
X174955610Y-111276498D01*
X174869357Y-111303945D01*
X174836575Y-111330804D01*
X169029461Y-111330804D01*
X169188730Y-111297967D01*
X169970987Y-111117127D01*
X170963902Y-110903915D01*
X171811392Y-110735515D01*
X171992931Y-110699442D01*
X173029811Y-110509509D01*
X173231360Y-110472476D01*
X173469108Y-110424143D01*
X173669584Y-110378194D01*
X173816234Y-110338480D01*
X173892505Y-110308852D01*
X173917219Y-110290530D01*
X173958736Y-110239348D01*
X173982674Y-110163189D01*
X173989211Y-110049760D01*
X173978524Y-109886766D01*
X173950790Y-109661914D01*
X173906189Y-109362911D01*
X173884871Y-109218412D01*
X173848467Y-108939752D01*
X173817092Y-108662053D01*
X173795808Y-108428198D01*
X173780689Y-108257219D01*
X173751378Y-108061599D01*
X173711997Y-107940476D01*
X173659454Y-107885724D01*
X173590656Y-107889222D01*
X173565266Y-107900795D01*
X173524643Y-107935937D01*
X173498278Y-107996764D01*
X173485045Y-108095663D01*
X173483817Y-108245021D01*
X173493468Y-108457223D01*
X173512872Y-108744658D01*
X173519841Y-108845425D01*
X173534955Y-109106417D01*
X173545264Y-109350404D01*
X173549895Y-109553813D01*
X173547976Y-109693067D01*
X173533388Y-109957192D01*
X173357305Y-110007703D01*
X173287005Y-110024492D01*
X173131557Y-110055400D01*
X172921438Y-110093321D01*
X172675065Y-110134960D01*
X172410858Y-110177022D01*
X172086233Y-110229446D01*
X171722634Y-110294790D01*
X171352744Y-110369213D01*
X170957082Y-110456865D01*
X170516168Y-110561897D01*
X170010522Y-110688460D01*
X169796211Y-110739307D01*
X169599064Y-110779183D01*
X169443120Y-110803557D01*
X169350210Y-110808462D01*
X169300230Y-110801511D01*
X169252662Y-110781051D01*
X169225004Y-110730774D01*
X169208531Y-110631345D01*
X169194520Y-110463431D01*
X169166619Y-110256226D01*
X169079946Y-109976044D01*
X168945432Y-109753297D01*
X168768675Y-109596301D01*
X168555269Y-109513373D01*
X168516890Y-109507592D01*
X168326299Y-109502047D01*
X168098344Y-109521594D01*
X167869607Y-109563556D01*
X167818994Y-109571268D01*
X167756192Y-109556237D01*
X167707329Y-109498577D01*
X167667255Y-109386996D01*
X167630820Y-109210206D01*
X167596799Y-108983123D01*
X171166704Y-108983123D01*
X171203569Y-109152054D01*
X171292428Y-109324621D01*
X171396038Y-109445804D01*
X171583298Y-109548649D01*
X171825332Y-109583015D01*
X171844610Y-109582657D01*
X172054272Y-109533966D01*
X172245017Y-109413860D01*
X172398645Y-109237585D01*
X172496962Y-109020383D01*
X172527779Y-108870067D01*
X172532147Y-108607212D01*
X172478576Y-108361293D01*
X172374648Y-108146072D01*
X172227948Y-107975307D01*
X172046058Y-107862758D01*
X171836564Y-107822183D01*
X171719357Y-107839784D01*
X171551814Y-107934880D01*
X171406471Y-108107454D01*
X171287598Y-108351875D01*
X171199465Y-108662513D01*
X171177260Y-108785246D01*
X171166704Y-108983123D01*
X167596799Y-108983123D01*
X167592873Y-108956917D01*
X167579049Y-108852207D01*
X167541763Y-108523661D01*
X167509830Y-108162759D01*
X167494635Y-107936186D01*
X168143148Y-107936186D01*
X168153530Y-108129509D01*
X168180005Y-108331879D01*
X168218595Y-108510966D01*
X168265320Y-108634440D01*
X168282778Y-108663598D01*
X168329056Y-108722407D01*
X168391025Y-108755651D01*
X168492797Y-108772350D01*
X168658485Y-108781526D01*
X168801387Y-108785114D01*
X168923118Y-108777658D01*
X169002109Y-108752370D01*
X169063387Y-108704490D01*
X169133326Y-108623583D01*
X169144474Y-108555251D01*
X169100304Y-108460485D01*
X169053684Y-108395783D01*
X168956312Y-108284220D01*
X168828273Y-108149886D01*
X168684654Y-108007338D01*
X168540542Y-107871129D01*
X168411027Y-107755817D01*
X168311194Y-107675955D01*
X168256133Y-107646100D01*
X168201964Y-107675893D01*
X168157787Y-107760657D01*
X168152839Y-107784242D01*
X168143148Y-107936186D01*
X167494635Y-107936186D01*
X167482990Y-107762550D01*
X167460988Y-107316079D01*
X167443563Y-106816394D01*
X167430460Y-106256541D01*
X167421420Y-105629568D01*
X167416185Y-104928521D01*
X167414497Y-104146447D01*
X167414953Y-103744070D01*
X167987421Y-103744070D01*
X168022288Y-104508815D01*
X168110854Y-105209772D01*
X168252911Y-105845587D01*
X168256133Y-105854978D01*
X168448248Y-106414905D01*
X168696656Y-106916369D01*
X168997925Y-107348625D01*
X169059811Y-107420399D01*
X169213587Y-107576073D01*
X169367558Y-107705454D01*
X169507350Y-107798404D01*
X169618587Y-107844786D01*
X169686895Y-107834465D01*
X169717053Y-107787329D01*
X170385901Y-107787329D01*
X170386955Y-107818142D01*
X170411446Y-107899214D01*
X170478586Y-107939089D01*
X170601884Y-107941873D01*
X170794846Y-107911673D01*
X170816195Y-107907408D01*
X171102602Y-107823785D01*
X171324171Y-107699586D01*
X171497426Y-107525734D01*
X171535377Y-107474164D01*
X171580131Y-107394996D01*
X171604278Y-107305003D01*
X171613355Y-107178475D01*
X171612901Y-106989705D01*
X171611894Y-106933696D01*
X171601720Y-106679923D01*
X171580541Y-106431491D01*
X171545476Y-106165790D01*
X171493647Y-105860203D01*
X171422173Y-105492119D01*
X171403154Y-105398450D01*
X171345061Y-105120363D01*
X171298139Y-104913636D01*
X171258945Y-104766363D01*
X171224036Y-104666634D01*
X171189969Y-104602544D01*
X171153302Y-104562185D01*
X171143993Y-104554710D01*
X171081271Y-104531442D01*
X171013338Y-104578653D01*
X171008758Y-104583520D01*
X170974718Y-104646038D01*
X170948544Y-104755307D01*
X170927830Y-104925091D01*
X170910173Y-105169152D01*
X170899877Y-105318498D01*
X170868580Y-105597382D01*
X170819317Y-105846459D01*
X170745097Y-106105372D01*
X170712878Y-106211127D01*
X170651105Y-106437811D01*
X170587414Y-106696477D01*
X170525970Y-106967634D01*
X170470934Y-107231789D01*
X170426468Y-107469451D01*
X170396737Y-107661128D01*
X170385901Y-107787329D01*
X169717053Y-107787329D01*
X169734564Y-107759959D01*
X169780939Y-107607823D01*
X169815530Y-107383912D01*
X169838744Y-107084305D01*
X169850989Y-106705084D01*
X169852674Y-106242328D01*
X169851657Y-105978295D01*
X169853761Y-105666676D01*
X169860662Y-105419124D01*
X169873043Y-105221587D01*
X169891588Y-105060012D01*
X169916980Y-104920345D01*
X169918038Y-104915485D01*
X169953330Y-104744456D01*
X169963129Y-104629315D01*
X169939806Y-104540394D01*
X169875734Y-104448023D01*
X169763284Y-104322530D01*
X169632152Y-104147360D01*
X169487169Y-103850150D01*
X169380113Y-103494825D01*
X169312274Y-103094235D01*
X169287877Y-102707675D01*
X169650037Y-102707675D01*
X169702825Y-103126696D01*
X169778845Y-103415625D01*
X169897701Y-103703393D01*
X170042605Y-103914249D01*
X170211408Y-104045218D01*
X170401957Y-104093328D01*
X170496819Y-104083134D01*
X170670832Y-104015492D01*
X170829946Y-103902592D01*
X170939683Y-103765459D01*
X170994689Y-103642004D01*
X171035496Y-103527560D01*
X171376741Y-103527560D01*
X171381649Y-103675128D01*
X171411838Y-103848924D01*
X171468161Y-104068048D01*
X171551469Y-104351597D01*
X171625586Y-104612169D01*
X171777804Y-105256206D01*
X171836564Y-105578810D01*
X171907882Y-105970361D01*
X172013702Y-106743674D01*
X172025894Y-106837144D01*
X172063089Y-107051861D01*
X172107256Y-107238375D01*
X172151791Y-107366878D01*
X172184164Y-107426227D01*
X172324222Y-107579777D01*
X172503703Y-107666398D01*
X172703745Y-107675542D01*
X172819820Y-107648302D01*
X173068016Y-107540220D01*
X173300255Y-107378807D01*
X173492517Y-107182547D01*
X173620782Y-106969922D01*
X173642222Y-106914401D01*
X173688966Y-106746051D01*
X173707669Y-106568247D01*
X173695925Y-106372889D01*
X173651329Y-106151873D01*
X173571476Y-105897100D01*
X173453961Y-105600466D01*
X173296377Y-105253870D01*
X173096320Y-104849211D01*
X172851385Y-104378387D01*
X172765446Y-104217136D01*
X172548975Y-103821574D01*
X172353780Y-103480709D01*
X172182995Y-103199583D01*
X172039757Y-102983240D01*
X171927201Y-102836723D01*
X171848460Y-102765075D01*
X171793628Y-102746881D01*
X171687185Y-102775588D01*
X171586332Y-102887478D01*
X171494699Y-103079323D01*
X171439359Y-103234714D01*
X171396262Y-103387121D01*
X171376741Y-103527560D01*
X171035496Y-103527560D01*
X171072959Y-103422497D01*
X171081271Y-103394885D01*
X171151166Y-103162699D01*
X171222007Y-102889217D01*
X171278179Y-102628657D01*
X171312380Y-102407625D01*
X171319182Y-102343261D01*
X171335310Y-102176646D01*
X171345332Y-102050941D01*
X171347303Y-101989428D01*
X171345417Y-101971502D01*
X171336812Y-101878310D01*
X171323763Y-101730034D01*
X171308268Y-101549220D01*
X171302874Y-101490144D01*
X171246264Y-101113603D01*
X171158347Y-100809223D01*
X171040821Y-100579578D01*
X170895382Y-100427243D01*
X170723727Y-100354792D01*
X170527554Y-100364799D01*
X170448791Y-100396546D01*
X170298152Y-100509265D01*
X170146805Y-100678680D01*
X170009688Y-100886864D01*
X169901734Y-101115894D01*
X169834085Y-101311526D01*
X169718057Y-101775936D01*
X169655911Y-102249371D01*
X169650037Y-102707675D01*
X169287877Y-102707675D01*
X169284946Y-102661234D01*
X169299421Y-102208671D01*
X169356992Y-101749398D01*
X169458950Y-101296268D01*
X169577202Y-100933777D01*
X169753552Y-100540795D01*
X169959273Y-100214991D01*
X170190177Y-99962780D01*
X170442074Y-99790577D01*
X170475201Y-99774532D01*
X170723727Y-99690063D01*
X170727120Y-99688910D01*
X170956703Y-99684531D01*
X171176610Y-99763193D01*
X171399498Y-99926698D01*
X171510588Y-100044001D01*
X171683697Y-100306691D01*
X171793628Y-100557477D01*
X171825399Y-100629956D01*
X171929364Y-100998031D01*
X171989259Y-101395147D01*
X172000450Y-101520853D01*
X172022563Y-101732960D01*
X172049369Y-101889883D01*
X172089165Y-102013717D01*
X172150248Y-102126561D01*
X172240917Y-102250512D01*
X172369469Y-102407666D01*
X172432967Y-102485881D01*
X172605088Y-102710049D01*
X172777179Y-102948267D01*
X172920033Y-103160589D01*
X172995190Y-103275378D01*
X173096441Y-103419716D01*
X173177320Y-103522938D01*
X173225083Y-103568024D01*
X173257330Y-103570735D01*
X173283787Y-103543115D01*
X173297856Y-103500007D01*
X174236229Y-103500007D01*
X174269035Y-104743967D01*
X174336651Y-105952034D01*
X174439101Y-107131014D01*
X174576411Y-108287714D01*
X174748605Y-109428942D01*
X174789809Y-109668311D01*
X174831362Y-109894718D01*
X174867655Y-110077331D01*
X174895822Y-110201767D01*
X174912995Y-110253644D01*
X174924577Y-110258861D01*
X175008200Y-110274779D01*
X175156631Y-110293215D01*
X175353357Y-110312281D01*
X175468728Y-110321272D01*
X175581867Y-110330090D01*
X175654693Y-110335228D01*
X175893821Y-110353360D01*
X176108382Y-110371422D01*
X176277277Y-110387567D01*
X176379407Y-110399948D01*
X176426381Y-110406324D01*
X176501794Y-110403999D01*
X176574528Y-110372780D01*
X176665994Y-110301316D01*
X176797605Y-110178257D01*
X176833693Y-110144024D01*
X177079063Y-109932202D01*
X177326615Y-109750956D01*
X177557415Y-109613111D01*
X177752527Y-109531490D01*
X177806166Y-109519446D01*
X177963938Y-109498774D01*
X178093612Y-109489638D01*
X178163936Y-109484683D01*
X178375676Y-109479706D01*
X178524988Y-109482696D01*
X178975257Y-109530876D01*
X179192246Y-109591098D01*
X179365013Y-109639047D01*
X179698658Y-109808750D01*
X179980595Y-110041528D01*
X180078995Y-110136967D01*
X180170620Y-110213843D01*
X180223496Y-110243327D01*
X180303156Y-110221460D01*
X180436500Y-110131228D01*
X180594363Y-109981153D01*
X180764398Y-109786803D01*
X180768514Y-109782098D01*
X180950724Y-109544926D01*
X181132761Y-109280503D01*
X181163636Y-109230570D01*
X181707249Y-109230570D01*
X181737031Y-109359459D01*
X181738905Y-109365578D01*
X181827688Y-109531438D01*
X181960973Y-109641983D01*
X182118790Y-109690884D01*
X182281174Y-109671815D01*
X182428155Y-109578448D01*
X182447420Y-109557507D01*
X182531536Y-109406471D01*
X182562249Y-109244807D01*
X183735928Y-109244807D01*
X183749800Y-109351962D01*
X183795726Y-109440260D01*
X183907299Y-109532474D01*
X184048115Y-109562544D01*
X184199251Y-109531992D01*
X184341780Y-109442339D01*
X184456779Y-109295108D01*
X184501381Y-109209701D01*
X184565389Y-109059556D01*
X184582641Y-108952356D01*
X184557598Y-108869261D01*
X184553025Y-108861655D01*
X184497699Y-108817216D01*
X184406782Y-108834564D01*
X184335082Y-108852846D01*
X184270740Y-108828639D01*
X184264418Y-108788842D01*
X184265752Y-108674966D01*
X184276978Y-108509624D01*
X184297062Y-108313076D01*
X184317014Y-108133629D01*
X184329873Y-107970018D01*
X184328752Y-107854267D01*
X184313153Y-107764568D01*
X184282579Y-107679116D01*
X184266081Y-107642331D01*
X184213939Y-107550718D01*
X184174181Y-107514038D01*
X184169499Y-107514855D01*
X184124048Y-107563960D01*
X184063882Y-107674632D01*
X183997841Y-107826773D01*
X183934764Y-108000281D01*
X183883490Y-108175056D01*
X183841256Y-108360227D01*
X183795344Y-108609770D01*
X183760972Y-108853713D01*
X183740409Y-109072058D01*
X183735928Y-109244807D01*
X182562249Y-109244807D01*
X182564817Y-109231287D01*
X182538568Y-109071851D01*
X182537924Y-109070362D01*
X182474606Y-108977563D01*
X182379299Y-108884763D01*
X182379124Y-108884625D01*
X182212566Y-108801718D01*
X182042915Y-108800134D01*
X181888256Y-108875750D01*
X181766676Y-109024441D01*
X181717256Y-109132542D01*
X181707249Y-109230570D01*
X181163636Y-109230570D01*
X181306394Y-108999691D01*
X181463393Y-108713356D01*
X181595526Y-108432361D01*
X181808419Y-107896493D01*
X181910888Y-107590004D01*
X183944306Y-107590004D01*
X183952842Y-107660358D01*
X183975318Y-107673783D01*
X183978967Y-107669816D01*
X184008532Y-107606179D01*
X184021792Y-107525016D01*
X184016485Y-107460488D01*
X183990348Y-107446757D01*
X183960271Y-107493403D01*
X183944306Y-107590004D01*
X181910888Y-107590004D01*
X182027649Y-107240767D01*
X182042915Y-107183805D01*
X182211059Y-106556406D01*
X182361921Y-105829306D01*
X182483503Y-105045362D01*
X182579078Y-104190468D01*
X182590060Y-104041180D01*
X182602422Y-103798792D01*
X182613994Y-103498459D01*
X182624466Y-103156391D01*
X182633530Y-102788796D01*
X182640875Y-102411886D01*
X182646190Y-102041870D01*
X182649166Y-101694958D01*
X182649493Y-101387358D01*
X182646861Y-101135282D01*
X182640960Y-100954939D01*
X182614014Y-100538314D01*
X182558072Y-99902151D01*
X182480796Y-99218038D01*
X182380277Y-98467764D01*
X182350347Y-98258538D01*
X182286848Y-97817702D01*
X182232906Y-97449885D01*
X182186760Y-97145092D01*
X182146647Y-96893328D01*
X182124356Y-96763507D01*
X183813262Y-96763507D01*
X183818603Y-96843989D01*
X183841105Y-97005494D01*
X183876935Y-97201972D01*
X183921470Y-97413118D01*
X183970092Y-97618627D01*
X183990348Y-97694269D01*
X184018178Y-97798195D01*
X184061108Y-97931515D01*
X184094262Y-97998284D01*
X184126873Y-98028521D01*
X184174181Y-98041933D01*
X184177423Y-98042852D01*
X184241447Y-97991415D01*
X184278134Y-97932060D01*
X184312407Y-97777731D01*
X184318676Y-97556642D01*
X184296143Y-97279202D01*
X184292019Y-97244360D01*
X184288411Y-97149457D01*
X184315118Y-97110595D01*
X184384514Y-97103119D01*
X184464446Y-97095440D01*
X184549592Y-97067506D01*
X184550026Y-97067224D01*
X184597695Y-97008824D01*
X184587896Y-96920987D01*
X184518768Y-96786778D01*
X184439702Y-96679745D01*
X184300771Y-96582547D01*
X184120390Y-96552859D01*
X183957424Y-96574195D01*
X183848993Y-96644768D01*
X183813262Y-96763507D01*
X182124356Y-96763507D01*
X182110806Y-96684595D01*
X182077472Y-96508900D01*
X182044884Y-96356245D01*
X182011280Y-96216635D01*
X181974896Y-96080075D01*
X181933971Y-95936568D01*
X181910883Y-95858882D01*
X181831857Y-95610179D01*
X181743878Y-95353688D01*
X181652841Y-95104706D01*
X181564646Y-94878526D01*
X181518352Y-94768942D01*
X182197850Y-94768942D01*
X182216961Y-94886281D01*
X182255695Y-95049766D01*
X182307741Y-95238114D01*
X182366785Y-95430042D01*
X182426514Y-95604266D01*
X182480617Y-95739504D01*
X182522780Y-95814473D01*
X182574472Y-95856976D01*
X182629566Y-95866901D01*
X182650804Y-95833533D01*
X182659858Y-95746882D01*
X182657110Y-95709193D01*
X182649111Y-95586487D01*
X182638508Y-95414354D01*
X182626843Y-95217535D01*
X182621938Y-95137883D01*
X182606498Y-94955993D01*
X182586407Y-94838072D01*
X182557652Y-94766162D01*
X182516222Y-94722301D01*
X182481056Y-94700346D01*
X182365714Y-94664341D01*
X182260964Y-94672726D01*
X182199699Y-94725200D01*
X182197850Y-94768942D01*
X181518352Y-94768942D01*
X181485189Y-94690442D01*
X181420367Y-94555750D01*
X181376080Y-94489744D01*
X181375452Y-94489242D01*
X181309507Y-94461561D01*
X181173588Y-94420739D01*
X180983690Y-94370568D01*
X180755808Y-94314842D01*
X180505936Y-94257354D01*
X180250072Y-94201898D01*
X180004208Y-94152266D01*
X179784341Y-94112253D01*
X179781469Y-94111770D01*
X179350235Y-94050542D01*
X178843985Y-93998248D01*
X178275272Y-93955677D01*
X177656652Y-93923620D01*
X177000680Y-93902867D01*
X176319910Y-93894208D01*
X176286936Y-93894101D01*
X175865126Y-93894064D01*
X175526642Y-93896878D01*
X175267117Y-93902682D01*
X175082182Y-93911620D01*
X174967471Y-93923831D01*
X174918616Y-93939456D01*
X174905688Y-93978018D01*
X174882751Y-94096600D01*
X174853242Y-94284320D01*
X174818572Y-94531059D01*
X174780151Y-94826699D01*
X174739389Y-95161121D01*
X174697698Y-95524205D01*
X174593466Y-96503540D01*
X174452599Y-98029079D01*
X174346417Y-99484688D01*
X174274945Y-100877175D01*
X174238207Y-102213345D01*
X174236229Y-103500007D01*
X173297856Y-103500007D01*
X173306507Y-103473498D01*
X173328108Y-103350436D01*
X173351212Y-103162484D01*
X173378440Y-102898195D01*
X173381012Y-102869472D01*
X173391018Y-102703069D01*
X173399550Y-102475039D01*
X173406520Y-102200345D01*
X173411837Y-101893951D01*
X173415410Y-101570821D01*
X173417150Y-101245918D01*
X173416966Y-100934206D01*
X173414769Y-100650649D01*
X173410467Y-100410211D01*
X173403972Y-100227854D01*
X173395192Y-100118544D01*
X173394488Y-100113739D01*
X173379653Y-100011026D01*
X173357374Y-99855316D01*
X173332193Y-99678336D01*
X173242620Y-99187341D01*
X173107478Y-98679137D01*
X172937833Y-98205667D01*
X172739942Y-97784226D01*
X172520056Y-97432112D01*
X172462416Y-97357414D01*
X172271657Y-97144367D01*
X172054217Y-96939181D01*
X171834766Y-96763984D01*
X171637971Y-96640901D01*
X171529984Y-96591551D01*
X171403303Y-96553875D01*
X171252674Y-96535617D01*
X171046213Y-96530849D01*
X171042302Y-96530850D01*
X170840525Y-96535381D01*
X170691630Y-96553343D01*
X170561255Y-96591607D01*
X170415037Y-96657042D01*
X170354386Y-96688553D01*
X170054465Y-96893063D01*
X169759299Y-97171185D01*
X169478813Y-97511175D01*
X169222933Y-97901284D01*
X169001585Y-98329767D01*
X168911499Y-98538685D01*
X168708780Y-99084635D01*
X168523358Y-99690911D01*
X168360235Y-100338472D01*
X168224415Y-101008278D01*
X168120902Y-101681286D01*
X168079626Y-102028638D01*
X168006464Y-102916893D01*
X167987421Y-103744070D01*
X167414953Y-103744070D01*
X167414984Y-103717150D01*
X167418721Y-102959110D01*
X167426331Y-102278208D01*
X167438045Y-101667327D01*
X167454089Y-101119352D01*
X167474691Y-100627168D01*
X167500080Y-100183660D01*
X167530484Y-99781713D01*
X167566130Y-99414211D01*
X167582215Y-99260745D01*
X167606592Y-99015800D01*
X167632287Y-98746940D01*
X167655844Y-98489774D01*
X167682308Y-98198074D01*
X167716115Y-97841615D01*
X167746975Y-97534807D01*
X167773886Y-97287180D01*
X167795844Y-97108262D01*
X167811846Y-97007581D01*
X167828709Y-96962785D01*
X167874980Y-96926128D01*
X167968567Y-96901820D01*
X168129793Y-96881820D01*
X168335950Y-96850678D01*
X168627279Y-96756652D01*
X168854224Y-96606856D01*
X169022130Y-96397266D01*
X169136344Y-96123855D01*
X169172875Y-95980773D01*
X169187543Y-95856242D01*
X169180836Y-95716699D01*
X169167443Y-95622615D01*
X171530442Y-95622615D01*
X171530443Y-95623219D01*
X171551205Y-95699825D01*
X171620576Y-95777126D01*
X171750029Y-95864653D01*
X171951038Y-95971935D01*
X172079387Y-96041973D01*
X172260970Y-96156067D01*
X172408681Y-96264906D01*
X172459859Y-96307266D01*
X172604297Y-96418754D01*
X172704719Y-96477245D01*
X172775713Y-96489551D01*
X172831869Y-96462482D01*
X172861786Y-96414106D01*
X172881363Y-96318359D01*
X172891925Y-96161908D01*
X172895086Y-95931178D01*
X172893570Y-95726830D01*
X172886761Y-95575904D01*
X172871737Y-95477223D01*
X172845577Y-95412293D01*
X172805365Y-95362618D01*
X172706732Y-95298723D01*
X172574256Y-95295641D01*
X172562129Y-95297568D01*
X172439716Y-95315970D01*
X172268193Y-95340703D01*
X172080702Y-95366977D01*
X171858970Y-95405659D01*
X171673068Y-95462719D01*
X171565252Y-95534251D01*
X171530442Y-95622615D01*
X169167443Y-95622615D01*
X169153790Y-95526702D01*
X169149670Y-95500647D01*
X169128848Y-95330512D01*
X169124173Y-95205412D01*
X169136577Y-95145919D01*
X169154772Y-95135594D01*
X169254313Y-95104744D01*
X169426010Y-95065044D01*
X169659321Y-95018121D01*
X169943702Y-94965602D01*
X170268608Y-94909115D01*
X170623495Y-94850285D01*
X170997821Y-94790740D01*
X171046213Y-94783336D01*
X171381040Y-94732107D01*
X171762610Y-94676014D01*
X172131987Y-94624086D01*
X172478626Y-94577951D01*
X172574256Y-94566136D01*
X172791984Y-94539236D01*
X173061517Y-94509568D01*
X173276682Y-94490575D01*
X173426933Y-94483882D01*
X173613185Y-94483882D01*
X173584658Y-95199220D01*
X173578449Y-95346507D01*
X173562903Y-95677570D01*
X173544105Y-96043258D01*
X173523886Y-96408600D01*
X173504076Y-96738628D01*
X173499730Y-96808423D01*
X173483074Y-97109723D01*
X173475065Y-97336238D01*
X173475688Y-97498667D01*
X173484926Y-97607711D01*
X173502766Y-97674070D01*
X173514966Y-97697519D01*
X173584201Y-97768769D01*
X173658376Y-97782209D01*
X173710161Y-97730416D01*
X173712843Y-97715655D01*
X173721676Y-97623984D01*
X173733798Y-97460465D01*
X173748497Y-97236241D01*
X173765060Y-96962451D01*
X173782774Y-96650239D01*
X173800928Y-96310745D01*
X173805946Y-96214223D01*
X173824714Y-95855816D01*
X173842976Y-95510826D01*
X173859932Y-95194157D01*
X173874779Y-94920709D01*
X173886717Y-94705383D01*
X173894942Y-94563082D01*
X173918127Y-94180065D01*
X173795460Y-94149277D01*
X173746280Y-94139675D01*
X173563236Y-94125230D01*
X173309478Y-94125132D01*
X172996493Y-94138361D01*
X172635765Y-94163897D01*
X172238780Y-94200719D01*
X171817021Y-94247807D01*
X171381976Y-94304141D01*
X170945128Y-94368700D01*
X170517963Y-94440463D01*
X170324337Y-94475115D01*
X169985935Y-94535171D01*
X169710981Y-94582958D01*
X169483948Y-94620966D01*
X169289311Y-94651686D01*
X169111544Y-94677610D01*
X168935121Y-94701230D01*
X168744517Y-94725036D01*
X168579543Y-94747809D01*
X168260800Y-94813834D01*
X168010849Y-94903774D01*
X167817403Y-95022777D01*
X167668172Y-95175992D01*
X167603455Y-95267918D01*
X167535102Y-95396957D01*
X167488105Y-95543881D01*
X167458784Y-95726165D01*
X167443456Y-95961287D01*
X167438441Y-96266724D01*
X167438077Y-96336798D01*
X167434119Y-96649559D01*
X167426495Y-97027687D01*
X167415775Y-97454139D01*
X167402527Y-97911871D01*
X167387321Y-98383838D01*
X167370724Y-98852997D01*
X167353306Y-99302302D01*
X167335636Y-99714710D01*
X167318283Y-100073177D01*
X167301814Y-100360658D01*
X167287011Y-100590480D01*
X167267526Y-100892286D01*
X167244880Y-101242575D01*
X167220358Y-101621475D01*
X167195244Y-102009113D01*
X167170826Y-102385615D01*
X167148824Y-102774959D01*
X167127295Y-103280804D01*
X167109870Y-103834825D01*
X167096655Y-104421905D01*
X167087753Y-105026923D01*
X167083269Y-105634760D01*
X166270928Y-105634760D01*
X166269876Y-105585285D01*
X166261103Y-105030574D01*
X166254662Y-104453860D01*
X166250594Y-103867365D01*
X166248939Y-103283311D01*
X166249737Y-102713921D01*
X166253028Y-102171419D01*
X166258851Y-101668026D01*
X166267246Y-101215965D01*
X166278254Y-100827459D01*
X166291914Y-100514731D01*
X166314709Y-100104241D01*
X166357356Y-99346307D01*
X166396770Y-98668508D01*
X166433806Y-98065648D01*
X166469322Y-97532533D01*
X166504174Y-97063969D01*
X166539220Y-96654760D01*
X166575316Y-96299712D01*
X166613318Y-95993630D01*
X166654084Y-95731319D01*
X166698470Y-95507585D01*
X166747333Y-95317233D01*
X166801530Y-95155068D01*
X166861918Y-95015895D01*
X166929353Y-94894521D01*
X167004692Y-94785749D01*
X167088791Y-94684386D01*
X167182509Y-94585236D01*
X167286700Y-94483105D01*
X167313481Y-94457902D01*
X167479772Y-94317694D01*
X167653163Y-94193210D01*
X167800164Y-94108859D01*
X167836319Y-94093906D01*
X167990351Y-94043905D01*
X168206440Y-93985721D01*
X168466183Y-93923441D01*
X168751176Y-93861152D01*
X169043016Y-93802938D01*
X169323299Y-93752887D01*
X169573621Y-93715084D01*
X169651169Y-93703200D01*
X169778387Y-93676195D01*
X169853939Y-93649781D01*
X169860328Y-93644707D01*
X169869594Y-93627651D01*
X169873394Y-93596252D01*
X169870409Y-93544587D01*
X169859320Y-93466733D01*
X169838809Y-93356764D01*
X169807556Y-93208757D01*
X169800452Y-93177269D01*
X173797513Y-93177269D01*
X174056450Y-93147185D01*
X174196381Y-93128923D01*
X174331805Y-93100600D01*
X174393327Y-93064705D01*
X174389309Y-93015028D01*
X174328108Y-92945358D01*
X174309752Y-92927955D01*
X174259209Y-92884018D01*
X174242994Y-92879018D01*
X175184168Y-92879018D01*
X175184717Y-92896750D01*
X175218879Y-92986145D01*
X175299782Y-93011126D01*
X175418575Y-92974180D01*
X175566407Y-92877792D01*
X175734428Y-92724449D01*
X175745634Y-92713104D01*
X175865126Y-92607656D01*
X175878168Y-92596147D01*
X176049337Y-92465153D01*
X176225049Y-92346392D01*
X176274304Y-92315120D01*
X176413954Y-92219815D01*
X176516572Y-92139819D01*
X176562770Y-92089860D01*
X176563384Y-92024562D01*
X176503439Y-91957873D01*
X176396941Y-91930710D01*
X176350382Y-91937716D01*
X176222766Y-91979754D01*
X176058330Y-92049803D01*
X175881498Y-92136327D01*
X175716697Y-92227789D01*
X175588351Y-92312651D01*
X175546550Y-92346541D01*
X175413767Y-92478966D01*
X175297660Y-92627896D01*
X175215403Y-92769268D01*
X175184168Y-92879018D01*
X174242994Y-92879018D01*
X174214855Y-92870341D01*
X174157755Y-92892854D01*
X174068973Y-92957488D01*
X173929575Y-93070173D01*
X173797513Y-93177269D01*
X169800452Y-93177269D01*
X169764244Y-93016789D01*
X169707553Y-92774936D01*
X169636165Y-92477273D01*
X169548761Y-92117877D01*
X169533514Y-92055712D01*
X170414327Y-92055712D01*
X170462684Y-92288372D01*
X170590396Y-92502525D01*
X170660194Y-92578031D01*
X170813363Y-92689864D01*
X170998419Y-92749472D01*
X171240469Y-92767071D01*
X171276018Y-92766615D01*
X171566085Y-92730432D01*
X171840856Y-92643007D01*
X172082424Y-92513661D01*
X172272880Y-92351716D01*
X172394316Y-92166491D01*
X172427035Y-92072573D01*
X172438926Y-91969795D01*
X173533426Y-91969795D01*
X173542261Y-92082159D01*
X173582720Y-92262629D01*
X173604346Y-92347836D01*
X173639116Y-92465900D01*
X173672441Y-92524050D01*
X173717487Y-92539428D01*
X173787417Y-92529177D01*
X173889506Y-92510939D01*
X173957088Y-92502946D01*
X173973377Y-92500309D01*
X173993610Y-92458620D01*
X173956997Y-92390693D01*
X173936144Y-92356329D01*
X173891906Y-92254005D01*
X173843407Y-92117764D01*
X173828521Y-92073077D01*
X173780128Y-91956381D01*
X173730539Y-91900804D01*
X173664510Y-91886655D01*
X173623910Y-91888335D01*
X173559536Y-91910275D01*
X173533426Y-91969795D01*
X172438926Y-91969795D01*
X172455062Y-91830316D01*
X172408141Y-91601609D01*
X172295614Y-91400053D01*
X172126823Y-91239246D01*
X171911109Y-91132788D01*
X171787710Y-91114028D01*
X173355942Y-91114028D01*
X173373238Y-91234729D01*
X173404480Y-91389844D01*
X173424865Y-91478870D01*
X173457517Y-91600359D01*
X173489479Y-91662052D01*
X173532633Y-91681443D01*
X173598861Y-91676023D01*
X173646110Y-91666997D01*
X173664510Y-91656612D01*
X173700986Y-91636026D01*
X173708752Y-91618146D01*
X174652125Y-91618146D01*
X174673929Y-91727658D01*
X174771907Y-91839439D01*
X174874751Y-91892057D01*
X175050258Y-91927994D01*
X175244123Y-91927798D01*
X175420740Y-91888762D01*
X175530528Y-91825318D01*
X175593095Y-91725886D01*
X175580819Y-91615811D01*
X175496232Y-91510031D01*
X175341867Y-91423482D01*
X175278046Y-91402133D01*
X175093695Y-91372795D01*
X174927279Y-91388228D01*
X174790447Y-91439931D01*
X174694847Y-91519403D01*
X174652125Y-91618146D01*
X173708752Y-91618146D01*
X173731674Y-91565371D01*
X173753348Y-91430961D01*
X173763385Y-91358691D01*
X173791300Y-91192558D01*
X173819346Y-91061265D01*
X173819706Y-91059872D01*
X173835084Y-90955944D01*
X173813458Y-90918197D01*
X173752641Y-90925209D01*
X173637262Y-90950925D01*
X173511327Y-90986745D01*
X173407077Y-91023282D01*
X173356754Y-91051150D01*
X173356078Y-91052483D01*
X173355942Y-91114028D01*
X171787710Y-91114028D01*
X171657813Y-91094280D01*
X171429779Y-91116522D01*
X171158818Y-91187132D01*
X170905317Y-91294339D01*
X170704131Y-91426017D01*
X170548953Y-91598515D01*
X170443643Y-91820456D01*
X170414327Y-92055712D01*
X169533514Y-92055712D01*
X169444022Y-91690824D01*
X169320630Y-91190190D01*
X169203377Y-90715712D01*
X170136385Y-90715712D01*
X170136765Y-90730029D01*
X170150551Y-90807663D01*
X170176817Y-90929267D01*
X170187985Y-90974313D01*
X170236645Y-91097714D01*
X170294271Y-91137717D01*
X170304706Y-91136643D01*
X170389793Y-91119646D01*
X170542182Y-91084525D01*
X170748187Y-91034580D01*
X170994127Y-90973109D01*
X171266317Y-90903410D01*
X171478873Y-90847944D01*
X171657813Y-90799756D01*
X171732238Y-90779713D01*
X171917069Y-90726017D01*
X172043607Y-90683269D01*
X172122093Y-90647882D01*
X172162768Y-90616269D01*
X172175873Y-90584844D01*
X172174509Y-90518589D01*
X172140184Y-90393778D01*
X172077579Y-90296864D01*
X172002611Y-90257885D01*
X171947961Y-90267588D01*
X171823472Y-90295089D01*
X171645013Y-90336588D01*
X171428100Y-90388279D01*
X171188249Y-90446354D01*
X170940977Y-90507007D01*
X170701801Y-90566431D01*
X170486237Y-90620820D01*
X170309802Y-90666368D01*
X170188013Y-90699267D01*
X170136385Y-90715712D01*
X169203377Y-90715712D01*
X169177266Y-90610052D01*
X169140127Y-90459497D01*
X169046866Y-90078734D01*
X168949821Y-89679292D01*
X168855278Y-89287193D01*
X168827325Y-89170261D01*
X169769610Y-89170261D01*
X169770489Y-89179962D01*
X169786880Y-89261442D01*
X169819721Y-89397656D01*
X169863409Y-89565025D01*
X169934562Y-89784912D01*
X170055917Y-90020320D01*
X170209598Y-90180856D01*
X170402082Y-90272668D01*
X170639850Y-90301906D01*
X170925952Y-90273980D01*
X171216908Y-90178705D01*
X171253064Y-90155627D01*
X173137201Y-90155627D01*
X173146678Y-90305803D01*
X173148753Y-90330535D01*
X173173410Y-90482313D01*
X173212709Y-90638315D01*
X173269263Y-90820652D01*
X173309478Y-90810518D01*
X173643440Y-90726357D01*
X173716211Y-90707668D01*
X173813458Y-90677642D01*
X173889499Y-90654163D01*
X173990516Y-90594293D01*
X174030008Y-90510695D01*
X174018719Y-90386004D01*
X173967394Y-90202859D01*
X173946999Y-90139108D01*
X173910196Y-90055148D01*
X173859401Y-90011156D01*
X173776841Y-90002803D01*
X173644747Y-90025760D01*
X173445346Y-90075699D01*
X173137201Y-90155627D01*
X171253064Y-90155627D01*
X171461405Y-90022646D01*
X171648699Y-89812902D01*
X171768049Y-89556568D01*
X171816950Y-89343326D01*
X171818716Y-89301337D01*
X172890707Y-89301337D01*
X172918524Y-89438450D01*
X172939411Y-89537412D01*
X172986582Y-89731436D01*
X173028458Y-89863143D01*
X173061361Y-89920127D01*
X173072172Y-89921964D01*
X173151934Y-89913988D01*
X173287310Y-89889586D01*
X173456352Y-89852514D01*
X173600294Y-89817626D01*
X173721445Y-89782278D01*
X173776841Y-89753717D01*
X173786449Y-89748763D01*
X173812102Y-89707562D01*
X173815201Y-89649158D01*
X173810251Y-89593963D01*
X173786840Y-89461874D01*
X173752083Y-89320158D01*
X173714348Y-89201010D01*
X173682002Y-89136626D01*
X173667542Y-89133115D01*
X173583610Y-89140525D01*
X173445023Y-89165840D01*
X173272619Y-89205550D01*
X172890707Y-89301337D01*
X171818716Y-89301337D01*
X171827598Y-89090113D01*
X171782269Y-88812620D01*
X171781607Y-88809852D01*
X171764309Y-88737190D01*
X171744158Y-88685473D01*
X171709378Y-88654829D01*
X171648192Y-88645386D01*
X171548824Y-88657274D01*
X171399497Y-88690619D01*
X171188435Y-88745552D01*
X170903860Y-88822200D01*
X170692876Y-88878847D01*
X170449327Y-88943938D01*
X170230588Y-89002107D01*
X170066750Y-89045332D01*
X170057687Y-89047726D01*
X169912210Y-89092713D01*
X169808901Y-89136620D01*
X169769610Y-89170261D01*
X168827325Y-89170261D01*
X168769521Y-88928460D01*
X168698836Y-88629116D01*
X168693371Y-88605803D01*
X168627645Y-88332310D01*
X168580480Y-88144591D01*
X169597144Y-88144591D01*
X169597546Y-88325612D01*
X169615960Y-88492921D01*
X169650907Y-88628144D01*
X169700908Y-88712908D01*
X169764483Y-88728839D01*
X169851043Y-88689931D01*
X169935023Y-88609967D01*
X169977776Y-88484591D01*
X169989714Y-88293686D01*
X169990498Y-88215209D01*
X170000378Y-88085979D01*
X170026333Y-88012017D01*
X170074298Y-87970654D01*
X170086537Y-87964729D01*
X170136289Y-87958606D01*
X170196134Y-87989784D01*
X170280930Y-88068834D01*
X170405533Y-88206326D01*
X170556323Y-88365494D01*
X170727492Y-88504241D01*
X170878113Y-88570500D01*
X171016195Y-88569028D01*
X171169218Y-88498959D01*
X171204305Y-88467522D01*
X172710789Y-88467522D01*
X172716491Y-88561491D01*
X172751289Y-88725183D01*
X172787488Y-88862310D01*
X172824066Y-88979598D01*
X172849515Y-89037451D01*
X172855433Y-89040765D01*
X172926088Y-89041853D01*
X173054551Y-89025433D01*
X173218784Y-88995415D01*
X173396748Y-88955711D01*
X173566403Y-88910232D01*
X173607202Y-88893071D01*
X173638509Y-88857259D01*
X173627770Y-88809361D01*
X173601070Y-88698617D01*
X173564824Y-88552079D01*
X173548593Y-88489494D01*
X173506266Y-88360062D01*
X173463584Y-88294889D01*
X173411030Y-88276949D01*
X173401790Y-88277331D01*
X173309235Y-88291169D01*
X173166654Y-88320022D01*
X173003589Y-88357214D01*
X172849581Y-88396069D01*
X172734173Y-88429910D01*
X172733424Y-88430174D01*
X172710789Y-88467522D01*
X171204305Y-88467522D01*
X171327696Y-88356966D01*
X171446964Y-88170357D01*
X171499338Y-88008604D01*
X171525021Y-87807208D01*
X171519290Y-87623318D01*
X172517625Y-87623318D01*
X172525354Y-87720281D01*
X172562176Y-87883501D01*
X172599362Y-88021507D01*
X172632864Y-88132004D01*
X172652929Y-88181529D01*
X172685425Y-88184935D01*
X172784028Y-88174235D01*
X172922507Y-88150930D01*
X173075084Y-88119933D01*
X173215981Y-88086156D01*
X173319420Y-88054513D01*
X173386437Y-88020229D01*
X173411030Y-87990495D01*
X173418967Y-87980899D01*
X173408192Y-87928961D01*
X173381909Y-87820589D01*
X173347632Y-87686297D01*
X173312616Y-87553939D01*
X173284112Y-87451370D01*
X173269376Y-87406442D01*
X173244789Y-87405685D01*
X173154184Y-87419943D01*
X173020316Y-87447109D01*
X172867721Y-87481572D01*
X172720933Y-87517718D01*
X172604489Y-87549937D01*
X172542923Y-87572615D01*
X172537969Y-87576138D01*
X172517625Y-87623318D01*
X171519290Y-87623318D01*
X171518703Y-87604478D01*
X171482934Y-87422074D01*
X171420265Y-87281654D01*
X171333247Y-87204876D01*
X171297856Y-87198726D01*
X171201281Y-87223353D01*
X171105319Y-87284773D01*
X171037824Y-87362123D01*
X171026651Y-87434537D01*
X171097894Y-87643717D01*
X171115335Y-87816927D01*
X171072482Y-87946472D01*
X171052475Y-87975247D01*
X170982387Y-88039994D01*
X170907069Y-88039267D01*
X170814164Y-87969152D01*
X170691316Y-87825736D01*
X170545856Y-87662799D01*
X170351190Y-87514597D01*
X170162841Y-87448916D01*
X169985811Y-87466128D01*
X169825102Y-87566608D01*
X169685717Y-87750729D01*
X169656298Y-87814910D01*
X169616235Y-87968232D01*
X169597144Y-88144591D01*
X168580480Y-88144591D01*
X168564088Y-88079352D01*
X168507004Y-87863264D01*
X168460699Y-87700383D01*
X168429478Y-87607046D01*
X168426054Y-87598784D01*
X168367215Y-87386165D01*
X168378320Y-87193143D01*
X168463505Y-87010706D01*
X168626908Y-86829841D01*
X168715178Y-86762207D01*
X172323418Y-86762207D01*
X172334720Y-86868012D01*
X172357731Y-87004454D01*
X172387008Y-87143150D01*
X172417112Y-87255717D01*
X172442603Y-87313772D01*
X172454173Y-87318348D01*
X172535190Y-87316066D01*
X172671127Y-87294493D01*
X172840060Y-87256772D01*
X172956047Y-87226216D01*
X173100991Y-87179269D01*
X173178002Y-87137026D01*
X173199296Y-87093948D01*
X173199209Y-87092478D01*
X173184505Y-87002384D01*
X173153880Y-86874221D01*
X173116008Y-86739011D01*
X173079562Y-86627775D01*
X173053218Y-86571534D01*
X173026853Y-86568393D01*
X172933123Y-86578244D01*
X172796537Y-86600753D01*
X172642418Y-86630868D01*
X172496086Y-86663532D01*
X172382864Y-86693691D01*
X172328074Y-86716290D01*
X172323418Y-86762207D01*
X168715178Y-86762207D01*
X168872665Y-86641537D01*
X168914041Y-86613536D01*
X169064697Y-86511486D01*
X169122521Y-86472292D01*
X173335294Y-86472292D01*
X173341053Y-86514250D01*
X173365023Y-86636101D01*
X173405265Y-86823605D01*
X173459218Y-87065939D01*
X173524321Y-87352283D01*
X173598014Y-87671818D01*
X173667542Y-87970006D01*
X173677735Y-88013721D01*
X173760925Y-88367173D01*
X173845021Y-88721353D01*
X173927464Y-89065440D01*
X174005693Y-89388614D01*
X174077147Y-89680054D01*
X174139265Y-89928939D01*
X174189487Y-90124449D01*
X174214855Y-90217592D01*
X174225251Y-90255763D01*
X174243997Y-90312061D01*
X174249232Y-90316233D01*
X174305202Y-90303404D01*
X174394136Y-90249193D01*
X174413721Y-90234401D01*
X174490989Y-90168196D01*
X174520639Y-90128550D01*
X174520519Y-90127766D01*
X174508346Y-90073110D01*
X174479734Y-89951305D01*
X174438788Y-89779680D01*
X174389614Y-89575563D01*
X174378828Y-89530873D01*
X174330668Y-89329943D01*
X174267303Y-89064070D01*
X174192535Y-88749272D01*
X174110164Y-88401570D01*
X174023992Y-88036984D01*
X173937820Y-87671534D01*
X173892231Y-87478834D01*
X173815361Y-87158039D01*
X173745344Y-86870953D01*
X173684789Y-86627986D01*
X173636305Y-86439549D01*
X173602502Y-86316054D01*
X173585990Y-86267911D01*
X173576777Y-86261780D01*
X173513280Y-86272015D01*
X173433133Y-86325785D01*
X173364438Y-86400181D01*
X173335294Y-86472292D01*
X169122521Y-86472292D01*
X169266703Y-86374564D01*
X169504580Y-86213266D01*
X169762850Y-86038088D01*
X170026035Y-85859522D01*
X170367127Y-85630529D01*
X170554665Y-85510755D01*
X170980182Y-85510755D01*
X171228351Y-85612193D01*
X171297856Y-85639163D01*
X171335230Y-85653665D01*
X171516503Y-85720669D01*
X171648192Y-85768127D01*
X171745694Y-85803264D01*
X172002611Y-85894187D01*
X172004167Y-85894738D01*
X172273285Y-85988384D01*
X172513364Y-86070637D01*
X172733353Y-86143679D01*
X172894144Y-86192618D01*
X173008604Y-86220497D01*
X173026853Y-86222719D01*
X173089601Y-86230358D01*
X173150001Y-86225246D01*
X173202672Y-86208204D01*
X173210591Y-86204855D01*
X173244789Y-86186017D01*
X173298928Y-86156194D01*
X173335294Y-86114590D01*
X173335153Y-86109343D01*
X173319976Y-86075910D01*
X173311468Y-86073463D01*
X173237577Y-86047841D01*
X173098144Y-85997867D01*
X172905304Y-85927932D01*
X172671190Y-85842430D01*
X172407936Y-85745754D01*
X172294301Y-85704074D01*
X171986636Y-85593894D01*
X171744809Y-85513295D01*
X171556844Y-85459681D01*
X171410766Y-85430458D01*
X171294600Y-85423030D01*
X171196371Y-85434801D01*
X171104105Y-85463176D01*
X170980182Y-85510755D01*
X170554665Y-85510755D01*
X170667070Y-85438966D01*
X170921675Y-85294122D01*
X171144194Y-85193447D01*
X171294600Y-85149837D01*
X171347883Y-85134387D01*
X171545996Y-85114391D01*
X171751787Y-85130907D01*
G37*
%TD*%
D12*
X102497500Y-89000000D03*
X102497500Y-92000000D03*
X154645000Y-121200000D03*
X140145000Y-103100000D03*
X105645000Y-100672500D03*
X105645000Y-106452500D03*
D13*
X106145000Y-99242500D03*
D14*
X101965000Y-99242500D03*
D13*
X106145000Y-107882500D03*
D14*
X101965000Y-107882500D03*
D12*
X154645000Y-85200000D03*
X143945000Y-85200000D03*
X143945000Y-121200000D03*
M02*
