%TF.GenerationSoftware,KiCad,Pcbnew,8.0.7*%
%TF.CreationDate,2026-04-27T19:35:08+08:00*%
%TF.ProjectId,MK4001MTD_USB_ReaderHOTDOG,4d4b3430-3031-44d5-9444-5f5553425f52,v1.1 HOTDOG*%
%TF.SameCoordinates,Original*%
%TF.FileFunction,Paste,Top*%
%TF.FilePolarity,Positive*%
%FSLAX46Y46*%
G04 Gerber Fmt 4.6, Leading zero omitted, Abs format (unit mm)*
G04 Created by KiCad (PCBNEW 8.0.7) date 2026-04-27 19:35:08*
%MOMM*%
%LPD*%
G01*
G04 APERTURE LIST*
G04 Aperture macros list*
%AMRoundRect*
0 Rectangle with rounded corners*
0 $1 Rounding radius*
0 $2 $3 $4 $5 $6 $7 $8 $9 X,Y pos of 4 corners*
0 Add a 4 corners polygon primitive as box body*
4,1,4,$2,$3,$4,$5,$6,$7,$8,$9,$2,$3,0*
0 Add four circle primitives for the rounded corners*
1,1,$1+$1,$2,$3*
1,1,$1+$1,$4,$5*
1,1,$1+$1,$6,$7*
1,1,$1+$1,$8,$9*
0 Add four rect primitives between the rounded corners*
20,1,$1+$1,$2,$3,$4,$5,0*
20,1,$1+$1,$4,$5,$6,$7,0*
20,1,$1+$1,$6,$7,$8,$9,0*
20,1,$1+$1,$8,$9,$2,$3,0*%
G04 Aperture macros list end*
%ADD10RoundRect,0.140000X0.170000X-0.140000X0.170000X0.140000X-0.170000X0.140000X-0.170000X-0.140000X0*%
%ADD11RoundRect,0.140000X0.140000X0.170000X-0.140000X0.170000X-0.140000X-0.170000X0.140000X-0.170000X0*%
%ADD12RoundRect,0.140000X-0.140000X-0.170000X0.140000X-0.170000X0.140000X0.170000X-0.140000X0.170000X0*%
%ADD13R,1.500000X0.700000*%
%ADD14R,0.800000X1.000000*%
%ADD15RoundRect,0.135000X-0.135000X-0.185000X0.135000X-0.185000X0.135000X0.185000X-0.135000X0.185000X0*%
%ADD16RoundRect,0.135000X-0.185000X0.135000X-0.185000X-0.135000X0.185000X-0.135000X0.185000X0.135000X0*%
%ADD17RoundRect,0.140000X-0.170000X0.140000X-0.170000X-0.140000X0.170000X-0.140000X0.170000X0.140000X0*%
%ADD18RoundRect,0.135000X0.135000X0.185000X-0.135000X0.185000X-0.135000X-0.185000X0.135000X-0.185000X0*%
%ADD19RoundRect,0.218750X0.256250X-0.218750X0.256250X0.218750X-0.256250X0.218750X-0.256250X-0.218750X0*%
%ADD20R,2.790000X1.903000*%
%ADD21RoundRect,0.040000X0.040000X0.605000X-0.040000X0.605000X-0.040000X-0.605000X0.040000X-0.605000X0*%
%ADD22RoundRect,0.062500X0.387500X0.062500X-0.387500X0.062500X-0.387500X-0.062500X0.387500X-0.062500X0*%
%ADD23RoundRect,0.135000X0.185000X-0.135000X0.185000X0.135000X-0.185000X0.135000X-0.185000X-0.135000X0*%
%ADD24RoundRect,0.150000X0.150000X0.625000X-0.150000X0.625000X-0.150000X-0.625000X0.150000X-0.625000X0*%
%ADD25RoundRect,0.250000X0.350000X0.650000X-0.350000X0.650000X-0.350000X-0.650000X0.350000X-0.650000X0*%
%ADD26R,1.400000X1.200000*%
%ADD27RoundRect,0.150000X0.150000X-0.512500X0.150000X0.512500X-0.150000X0.512500X-0.150000X-0.512500X0*%
%ADD28R,1.150000X0.300000*%
%ADD29RoundRect,0.250000X0.292217X0.292217X-0.292217X0.292217X-0.292217X-0.292217X0.292217X-0.292217X0*%
%ADD30RoundRect,0.050000X0.387500X0.050000X-0.387500X0.050000X-0.387500X-0.050000X0.387500X-0.050000X0*%
%ADD31RoundRect,0.050000X0.050000X0.387500X-0.050000X0.387500X-0.050000X-0.387500X0.050000X-0.387500X0*%
%ADD32R,1.100000X0.750000*%
%ADD33R,1.000000X1.250000*%
%ADD34RoundRect,0.250000X0.475000X-0.250000X0.475000X0.250000X-0.475000X0.250000X-0.475000X-0.250000X0*%
%ADD35RoundRect,0.250000X-0.250000X-0.475000X0.250000X-0.475000X0.250000X0.475000X-0.250000X0.475000X0*%
%ADD36RoundRect,0.150000X-0.150000X0.512500X-0.150000X-0.512500X0.150000X-0.512500X0.150000X0.512500X0*%
G04 APERTURE END LIST*
D10*
%TO.C,C5*%
X117645000Y-96680000D03*
X117645000Y-95720000D03*
%TD*%
D11*
%TO.C,C11*%
X113825000Y-101300000D03*
X112865000Y-101300000D03*
%TD*%
D12*
%TO.C,C14*%
X123965000Y-104900000D03*
X124925000Y-104900000D03*
%TD*%
D13*
%TO.C,SW1*%
X104257500Y-88250000D03*
X104257500Y-91250000D03*
X104257500Y-92750000D03*
D14*
X103607500Y-86850000D03*
X101397500Y-86850000D03*
X103607500Y-94150000D03*
X101397500Y-94150000D03*
%TD*%
D15*
%TO.C,R10*%
X101072500Y-112810000D03*
X102092500Y-112810000D03*
%TD*%
%TO.C,R8*%
X109435000Y-106000000D03*
X110455000Y-106000000D03*
%TD*%
D16*
%TO.C,R5*%
X125370000Y-91390000D03*
X125370000Y-92410000D03*
%TD*%
%TO.C,R1*%
X125245000Y-111590000D03*
X125245000Y-112610000D03*
%TD*%
D17*
%TO.C,C4*%
X120140000Y-108930000D03*
X120140000Y-109890000D03*
%TD*%
D18*
%TO.C,R24*%
X102090000Y-117200000D03*
X101070000Y-117200000D03*
%TD*%
D19*
%TO.C,D2*%
X110145000Y-87587500D03*
X110145000Y-86012500D03*
%TD*%
D10*
%TO.C,C2*%
X118045000Y-93880000D03*
X118045000Y-92920000D03*
%TD*%
D18*
%TO.C,R20*%
X129655000Y-102200000D03*
X128635000Y-102200000D03*
%TD*%
D15*
%TO.C,R6*%
X109435000Y-104600000D03*
X110455000Y-104600000D03*
%TD*%
%TO.C,R2*%
X124235000Y-110600000D03*
X125255000Y-110600000D03*
%TD*%
D20*
%TO.C,L1*%
X109245000Y-116023500D03*
X109245000Y-120876500D03*
%TD*%
D21*
%TO.C,U1*%
X123745000Y-108700000D03*
D22*
X125170000Y-109450000D03*
X125170000Y-108950000D03*
X125170000Y-108450000D03*
X125170000Y-107950000D03*
X122320000Y-107950000D03*
X122320000Y-108450000D03*
X122320000Y-108950000D03*
X122320000Y-109450000D03*
%TD*%
D16*
%TO.C,R16*%
X106045000Y-91290000D03*
X106045000Y-92310000D03*
%TD*%
D23*
%TO.C,R23*%
X127345000Y-95585000D03*
X127345000Y-94565000D03*
%TD*%
D11*
%TO.C,C10*%
X113825000Y-104900000D03*
X112865000Y-104900000D03*
%TD*%
D24*
%TO.C,J3*%
X121345000Y-87500000D03*
X120345000Y-87500000D03*
X119345000Y-87500000D03*
D25*
X122645000Y-83625000D03*
X118045000Y-83625000D03*
%TD*%
D23*
%TO.C,R3*%
X119645000Y-96710000D03*
X119645000Y-95690000D03*
%TD*%
D26*
%TO.C,Y1*%
X121845000Y-92250000D03*
X119645000Y-92250000D03*
X119645000Y-93950000D03*
X121845000Y-93950000D03*
%TD*%
D17*
%TO.C,C1*%
X123445000Y-92120000D03*
X123445000Y-93080000D03*
%TD*%
D16*
%TO.C,R13*%
X110137500Y-83690000D03*
X110137500Y-84710000D03*
%TD*%
D12*
%TO.C,C13*%
X123965000Y-100900000D03*
X124925000Y-100900000D03*
%TD*%
D27*
%TO.C,U3*%
X103582500Y-116050000D03*
X104532500Y-116050000D03*
X105482500Y-116050000D03*
X105482500Y-113775000D03*
X103582500Y-113775000D03*
%TD*%
D28*
%TO.C,J2*%
X106710000Y-100212500D03*
X106710000Y-101012500D03*
X106710000Y-102312500D03*
X106710000Y-103312500D03*
X106710000Y-103812500D03*
X106710000Y-104812500D03*
X106710000Y-106112500D03*
X106710000Y-106912500D03*
X106710000Y-106612500D03*
X106710000Y-105812500D03*
X106710000Y-105312500D03*
X106710000Y-104312500D03*
X106710000Y-102812500D03*
X106710000Y-101812500D03*
X106710000Y-101312500D03*
X106710000Y-100512500D03*
%TD*%
D17*
%TO.C,C9*%
X114380000Y-108050000D03*
X114380000Y-109010000D03*
%TD*%
%TO.C,C8*%
X115380000Y-108050000D03*
X115380000Y-109010000D03*
%TD*%
D29*
%TO.C,U2*%
X119482500Y-102937500D03*
X119482500Y-101662500D03*
X118207500Y-102937500D03*
X118207500Y-101662500D03*
D30*
X122282500Y-104900000D03*
X122282500Y-104500000D03*
X122282500Y-104100000D03*
X122282500Y-103700000D03*
X122282500Y-103300000D03*
X122282500Y-102900000D03*
X122282500Y-102500000D03*
X122282500Y-102100000D03*
X122282500Y-101700000D03*
X122282500Y-101300000D03*
X122282500Y-100900000D03*
X122282500Y-100500000D03*
X122282500Y-100100000D03*
X122282500Y-99700000D03*
D31*
X121445000Y-98862500D03*
X121045000Y-98862500D03*
X120645000Y-98862500D03*
X120245000Y-98862500D03*
X119845000Y-98862500D03*
X119445000Y-98862500D03*
X119045000Y-98862500D03*
X118645000Y-98862500D03*
X118245000Y-98862500D03*
X117845000Y-98862500D03*
X117445000Y-98862500D03*
X117045000Y-98862500D03*
X116645000Y-98862500D03*
X116245000Y-98862500D03*
D30*
X115407500Y-99700000D03*
X115407500Y-100100000D03*
X115407500Y-100500000D03*
X115407500Y-100900000D03*
X115407500Y-101300000D03*
X115407500Y-101700000D03*
X115407500Y-102100000D03*
X115407500Y-102500000D03*
X115407500Y-102900000D03*
X115407500Y-103300000D03*
X115407500Y-103700000D03*
X115407500Y-104100000D03*
X115407500Y-104500000D03*
X115407500Y-104900000D03*
D31*
X116245000Y-105737500D03*
X116645000Y-105737500D03*
X117045000Y-105737500D03*
X117445000Y-105737500D03*
X117845000Y-105737500D03*
X118245000Y-105737500D03*
X118645000Y-105737500D03*
X119045000Y-105737500D03*
X119445000Y-105737500D03*
X119845000Y-105737500D03*
X120245000Y-105737500D03*
X120645000Y-105737500D03*
X121045000Y-105737500D03*
X121445000Y-105737500D03*
%TD*%
D32*
%TO.C,J1*%
X146770000Y-110075000D03*
X145820000Y-110075000D03*
X146770000Y-107575000D03*
X145820000Y-107575000D03*
X146870000Y-105075000D03*
X145920000Y-105075000D03*
X146870000Y-102575000D03*
X145920000Y-102575000D03*
X146770000Y-100075000D03*
X145820000Y-100075000D03*
X146770000Y-97575000D03*
X145820000Y-97575000D03*
X146770000Y-95150000D03*
X145820000Y-95150000D03*
X146770000Y-93350000D03*
X145820000Y-93350000D03*
X144470000Y-112575000D03*
X143520000Y-112575000D03*
X141870000Y-108850000D03*
X140920000Y-108850000D03*
X141870000Y-106350000D03*
X140920000Y-106350000D03*
%TD*%
D18*
%TO.C,R17*%
X129655000Y-105500000D03*
X128635000Y-105500000D03*
%TD*%
D16*
%TO.C,R14*%
X112645000Y-83690000D03*
X112645000Y-84710000D03*
%TD*%
D33*
%TO.C,SW3*%
X117245000Y-114425000D03*
X117245000Y-122175000D03*
%TD*%
D16*
%TO.C,R4*%
X126445000Y-91390000D03*
X126445000Y-92410000D03*
%TD*%
D19*
%TO.C,D1*%
X107537500Y-87587500D03*
X107537500Y-86012500D03*
%TD*%
%TO.C,D3*%
X112645000Y-87587500D03*
X112645000Y-86012500D03*
%TD*%
D15*
%TO.C,R7*%
X109435000Y-103630000D03*
X110455000Y-103630000D03*
%TD*%
D34*
%TO.C,C17*%
X105245000Y-120650000D03*
X105245000Y-118750000D03*
%TD*%
D17*
%TO.C,C6*%
X116380000Y-108050000D03*
X116380000Y-109010000D03*
%TD*%
D16*
%TO.C,R12*%
X107532500Y-83690000D03*
X107532500Y-84710000D03*
%TD*%
D33*
%TO.C,SW2*%
X125245000Y-114425000D03*
X125245000Y-122175000D03*
%TD*%
D17*
%TO.C,C7*%
X119240000Y-108930000D03*
X119240000Y-109890000D03*
%TD*%
D24*
%TO.C,J4*%
X128445000Y-87500000D03*
X127445000Y-87500000D03*
X126445000Y-87500000D03*
D25*
X129745000Y-83625000D03*
X125145000Y-83625000D03*
%TD*%
D19*
%TO.C,D4*%
X115145000Y-87550000D03*
X115145000Y-85975000D03*
%TD*%
D18*
%TO.C,R22*%
X129655000Y-100000000D03*
X128635000Y-100000000D03*
%TD*%
%TO.C,R19*%
X129655000Y-103300000D03*
X128635000Y-103300000D03*
%TD*%
D35*
%TO.C,C15*%
X103732500Y-112000000D03*
X105632500Y-112000000D03*
%TD*%
D12*
%TO.C,C16*%
X101102500Y-113800000D03*
X102062500Y-113800000D03*
%TD*%
D16*
%TO.C,R15*%
X115162500Y-83690000D03*
X115162500Y-84710000D03*
%TD*%
D15*
%TO.C,R9*%
X109435000Y-102100000D03*
X110455000Y-102100000D03*
%TD*%
D18*
%TO.C,R18*%
X129655000Y-104400000D03*
X128635000Y-104400000D03*
%TD*%
D15*
%TO.C,R11*%
X101072500Y-114800000D03*
X102092500Y-114800000D03*
%TD*%
D36*
%TO.C,U4*%
X132000000Y-92000000D03*
X131050000Y-92000000D03*
X130100000Y-92000000D03*
X130100000Y-94275000D03*
X131050000Y-94275000D03*
X132000000Y-94275000D03*
%TD*%
D34*
%TO.C,C20*%
X103245000Y-120650000D03*
X103245000Y-118750000D03*
%TD*%
D10*
%TO.C,C12*%
X118645000Y-96680000D03*
X118645000Y-95720000D03*
%TD*%
D12*
%TO.C,C3*%
X122240000Y-110600000D03*
X123200000Y-110600000D03*
%TD*%
D11*
%TO.C,C19*%
X132020000Y-90250000D03*
X131060000Y-90250000D03*
%TD*%
D18*
%TO.C,R21*%
X129655000Y-101100000D03*
X128635000Y-101100000D03*
%TD*%
D35*
%TO.C,C18*%
X130100000Y-96500000D03*
X132000000Y-96500000D03*
%TD*%
M02*
