%TF.GenerationSoftware,KiCad,Pcbnew,8.0.7*%
%TF.CreationDate,2026-04-27T19:35:08+08:00*%
%TF.ProjectId,MK4001MTD_USB_ReaderHOTDOG,4d4b3430-3031-44d5-9444-5f5553425f52,v1.1 HOTDOG*%
%TF.SameCoordinates,Original*%
%TF.FileFunction,Copper,L2,Bot*%
%TF.FilePolarity,Positive*%
%FSLAX46Y46*%
G04 Gerber Fmt 4.6, Leading zero omitted, Abs format (unit mm)*
G04 Created by KiCad (PCBNEW 8.0.7) date 2026-04-27 19:35:08*
%MOMM*%
%LPD*%
G01*
G04 APERTURE LIST*
%TA.AperFunction,ComponentPad*%
%ADD10O,2.100000X1.000000*%
%TD*%
%TA.AperFunction,ComponentPad*%
%ADD11O,1.600000X1.000000*%
%TD*%
%TA.AperFunction,ViaPad*%
%ADD12C,0.600000*%
%TD*%
%TA.AperFunction,Conductor*%
%ADD13C,0.500000*%
%TD*%
%TA.AperFunction,Conductor*%
%ADD14C,0.200000*%
%TD*%
%TA.AperFunction,Conductor*%
%ADD15C,0.300000*%
%TD*%
%ADD16C,0.300000*%
%ADD17C,0.350000*%
%ADD18O,1.700000X0.600000*%
%ADD19O,1.200000X0.600000*%
G04 APERTURE END LIST*
D10*
%TO.P,J2,S1*%
%TO.N,N/C*%
X106145000Y-99242500D03*
D11*
X101965000Y-99242500D03*
D10*
X106145000Y-107882500D03*
D11*
X101965000Y-107882500D03*
%TD*%
D12*
%TO.N,GND*%
X125645000Y-104900000D03*
X102810000Y-118370000D03*
X125790000Y-100500000D03*
X118845000Y-102300000D03*
X120140000Y-110610000D03*
X119945000Y-101200000D03*
X117645000Y-103400000D03*
X133470000Y-94590000D03*
X119845000Y-99800000D03*
X117645000Y-101100000D03*
X110445000Y-106800000D03*
X112845000Y-104000000D03*
X120045000Y-103400000D03*
X121845000Y-95200000D03*
X130100000Y-96500000D03*
X116380000Y-109730000D03*
X119240000Y-110610000D03*
X123200000Y-111570000D03*
X117645000Y-95000000D03*
X106045000Y-93100000D03*
X127345000Y-96300000D03*
X129745000Y-85200000D03*
%TO.N,+5V*%
X107845000Y-105950000D03*
X106495000Y-112950000D03*
X102845000Y-116050000D03*
X107895000Y-101150000D03*
%TO.N,+3V3*%
X119240000Y-108930000D03*
X124260000Y-119730000D03*
X101072500Y-112100000D03*
X123245000Y-104900000D03*
X113480000Y-122180000D03*
X122240000Y-110000000D03*
X115766828Y-106841240D03*
X123295000Y-101050000D03*
X118645000Y-97300000D03*
X115945000Y-83700000D03*
X102745000Y-120400000D03*
X124245000Y-111300000D03*
X114545000Y-101300000D03*
%TO.N,SD_DAT1*%
X134745000Y-107200000D03*
X131745000Y-102200000D03*
%TO.N,SD_DAT0*%
X134145000Y-103300000D03*
X136445000Y-107200000D03*
%TO.N,SD_DAT2*%
X135145000Y-99000000D03*
X133045000Y-101100000D03*
%TO.N,PICO_RST*%
X117245000Y-113200000D03*
X116670000Y-99870000D03*
%TD*%
D13*
%TO.N,GND*%
X125790000Y-100500000D02*
X125790000Y-104755000D01*
X118360000Y-109730000D02*
X119240000Y-110610000D01*
X121545000Y-99800000D02*
X122645000Y-98700000D01*
X119210000Y-110640000D02*
X119240000Y-110610000D01*
X132210000Y-95850000D02*
X130000000Y-95850000D01*
X112845000Y-104000000D02*
X112845000Y-104400000D01*
X127795000Y-95850000D02*
X127345000Y-96300000D01*
X133470000Y-94590000D02*
X132210000Y-95850000D01*
X130000000Y-95850000D02*
X127795000Y-95850000D01*
X123200000Y-107890000D02*
X125645000Y-105445000D01*
X122645000Y-98700000D02*
X123990000Y-98700000D01*
X130100000Y-95950000D02*
X130000000Y-95850000D01*
X116380000Y-109730000D02*
X118360000Y-109730000D01*
X119845000Y-99800000D02*
X121545000Y-99800000D01*
X123200000Y-111570000D02*
X123200000Y-107890000D01*
X129790000Y-96500000D02*
X125790000Y-100500000D01*
D14*
X120140000Y-110610000D02*
X119240000Y-110610000D01*
D13*
X107945000Y-95000000D02*
X106045000Y-93100000D01*
X121845000Y-95200000D02*
X126245000Y-95200000D01*
X130100000Y-96500000D02*
X130100000Y-95950000D01*
X117645000Y-95000000D02*
X107945000Y-95000000D01*
X112845000Y-104400000D02*
X110445000Y-106800000D01*
X125790000Y-104755000D02*
X125645000Y-104900000D01*
X130100000Y-96500000D02*
X129790000Y-96500000D01*
X125645000Y-105445000D02*
X125645000Y-104900000D01*
X123990000Y-98700000D02*
X125790000Y-100500000D01*
X126245000Y-95200000D02*
X127345000Y-96300000D01*
%TO.N,+5V*%
X102845000Y-116050000D02*
X103645000Y-115250000D01*
X103645000Y-115250000D02*
X103645000Y-113800000D01*
X107845000Y-111600000D02*
X106495000Y-112950000D01*
X107895000Y-101150000D02*
X107895000Y-105900000D01*
X103645000Y-113800000D02*
X104495000Y-112950000D01*
X104495000Y-112950000D02*
X106495000Y-112950000D01*
X107895000Y-105900000D02*
X107845000Y-105950000D01*
X107845000Y-105950000D02*
X107845000Y-111600000D01*
%TO.N,+3V3*%
X122860000Y-112680000D02*
X123800000Y-112680000D01*
X102745000Y-120400000D02*
X113480000Y-120400000D01*
X117366240Y-106841240D02*
X115766828Y-106841240D01*
X101072500Y-112100000D02*
X101072500Y-118727500D01*
X115945000Y-83700000D02*
X116522000Y-84277000D01*
X122240000Y-105905000D02*
X123245000Y-104900000D01*
X123590000Y-120400000D02*
X124260000Y-119730000D01*
X119690000Y-95080000D02*
X119690000Y-96250000D01*
X116522000Y-91912000D02*
X119690000Y-95080000D01*
X119240000Y-108715000D02*
X118545000Y-108020000D01*
D14*
X119240000Y-108930000D02*
X119240000Y-108715000D01*
D13*
X123295000Y-101050000D02*
X123295000Y-104850000D01*
D14*
X113480000Y-122180000D02*
X113480000Y-120400000D01*
D13*
X123800000Y-112680000D02*
X124245000Y-112235000D01*
X122240000Y-112060000D02*
X122860000Y-112680000D01*
X118545000Y-108020000D02*
X120260000Y-108020000D01*
X123295000Y-104850000D02*
X123245000Y-104900000D01*
X116522000Y-84277000D02*
X116522000Y-91912000D01*
X101072500Y-118727500D02*
X102745000Y-120400000D01*
X119690000Y-96250000D02*
X118645000Y-97295000D01*
X117185000Y-98760000D02*
X114550000Y-98760000D01*
X122240000Y-110000000D02*
X122240000Y-105905000D01*
X118645000Y-97300000D02*
X117185000Y-98760000D01*
X113480000Y-120400000D02*
X123590000Y-120400000D01*
X118545000Y-108020000D02*
X117366240Y-106841240D01*
X124245000Y-112235000D02*
X124245000Y-111300000D01*
X118645000Y-97295000D02*
X118645000Y-97300000D01*
X114550000Y-101295000D02*
X114545000Y-101300000D01*
X120260000Y-108020000D02*
X122240000Y-110000000D01*
X114550000Y-98760000D02*
X114550000Y-101295000D01*
X122240000Y-110000000D02*
X122240000Y-112060000D01*
D14*
%TO.N,SD_DAT1*%
X131745000Y-102800000D02*
X131745000Y-102200000D01*
X134745000Y-107200000D02*
X134745000Y-105800000D01*
X134745000Y-105800000D02*
X131745000Y-102800000D01*
%TO.N,SD_DAT0*%
X136445000Y-105600000D02*
X136445000Y-107200000D01*
X134145000Y-103300000D02*
X136445000Y-105600000D01*
%TO.N,SD_DAT2*%
X135145000Y-99000000D02*
X135145000Y-99700000D01*
X133745000Y-101100000D02*
X133045000Y-101100000D01*
X135145000Y-99700000D02*
X133745000Y-101100000D01*
D15*
%TO.N,PICO_RST*%
X116260000Y-100280000D02*
X116260000Y-100585000D01*
X116260000Y-100585000D02*
X113745000Y-103100000D01*
X113745000Y-110095000D02*
X116850000Y-113200000D01*
X113745000Y-103100000D02*
X113745000Y-110095000D01*
X116670000Y-99870000D02*
X116260000Y-100280000D01*
X116850000Y-113200000D02*
X117245000Y-113200000D01*
%TD*%
D16*
X125645000Y-104900000D03*
X102810000Y-118370000D03*
X125790000Y-100500000D03*
X118845000Y-102300000D03*
X120140000Y-110610000D03*
X119945000Y-101200000D03*
X117645000Y-103400000D03*
X133470000Y-94590000D03*
X119845000Y-99800000D03*
X117645000Y-101100000D03*
X110445000Y-106800000D03*
X112845000Y-104000000D03*
X120045000Y-103400000D03*
X121845000Y-95200000D03*
X130100000Y-96500000D03*
X116380000Y-109730000D03*
X119240000Y-110610000D03*
X123200000Y-111570000D03*
X117645000Y-95000000D03*
X106045000Y-93100000D03*
X127345000Y-96300000D03*
X129745000Y-85200000D03*
X107845000Y-105950000D03*
X106495000Y-112950000D03*
X102845000Y-116050000D03*
X107895000Y-101150000D03*
X119240000Y-108930000D03*
X124260000Y-119730000D03*
X101072500Y-112100000D03*
X123245000Y-104900000D03*
X113480000Y-122180000D03*
X122240000Y-110000000D03*
X115766828Y-106841240D03*
X123295000Y-101050000D03*
X118645000Y-97300000D03*
X115945000Y-83700000D03*
X102745000Y-120400000D03*
X124245000Y-111300000D03*
X114545000Y-101300000D03*
X134745000Y-107200000D03*
X131745000Y-102200000D03*
X134145000Y-103300000D03*
X136445000Y-107200000D03*
X135145000Y-99000000D03*
X133045000Y-101100000D03*
X117245000Y-113200000D03*
X116670000Y-99870000D03*
D17*
X102497500Y-89000000D03*
X102497500Y-92000000D03*
X154645000Y-121200000D03*
X140145000Y-103100000D03*
X105645000Y-100672500D03*
X105645000Y-106452500D03*
D18*
X106145000Y-99242500D03*
D19*
X101965000Y-99242500D03*
D18*
X106145000Y-107882500D03*
D19*
X101965000Y-107882500D03*
D17*
X154645000Y-85200000D03*
X143945000Y-85200000D03*
X143945000Y-121200000D03*
M02*
